<svg xmlns="http://www.w3.org/2000/svg" viewBox="0 0 1080 600" font-family="Noto Sans CJK JP, sans-serif">
  <rect width="1080" height="600" fill="#FFFFFF" rx="20"/>

  <!-- Header -->
  <text x="60" y="60" font-size="44" font-weight="900" fill="#4A7C2E">アボカド</text>
  <line x1="60" y1="75" x2="180" y2="75" stroke="#4A7C2E" stroke-width="4"/>
  <text x="200" y="68" font-size="22" fill="#666">旬:通年</text>

  <line x1="540" y1="100" x2="540" y2="540" stroke="#DDD" stroke-width="2" stroke-dasharray="6,6"/>

  <!-- OK side: cross-section showing flesh + big seed + dark skin -->
  <g transform="translate(280, 320)">
    <circle cx="-200" cy="-180" r="22" fill="#2C5F2D"/>
    <text x="-200" y="-172" font-size="26" font-weight="900" fill="white" text-anchor="middle">○</text>
    <defs>
      <radialGradient id="wcFleshAvocado" cx="50%" cy="40%">
        <stop offset="0%" stop-color="#EFE090" stop-opacity="0.95"/>
        <stop offset="50%" stop-color="#C8D878" stop-opacity="0.92"/>
        <stop offset="100%" stop-color="#7AAB42" stop-opacity="0.88"/>
      </radialGradient>
      <radialGradient id="wcSeedAvocado" cx="38%" cy="38%">
        <stop offset="0%" stop-color="#B47C56" stop-opacity="0.95"/>
        <stop offset="55%" stop-color="#8A5530" stop-opacity="0.92"/>
        <stop offset="100%" stop-color="#5D3520" stop-opacity="0.9"/>
      </radialGradient>
      <radialGradient id="wcSkinAvocado" cx="50%" cy="50%">
        <stop offset="0%" stop-color="#3D2A1A" stop-opacity="0.95"/>
        <stop offset="100%" stop-color="#1A1208" stop-opacity="0.95"/>
      </radialGradient>
      <filter id="wcRoughAvocado" x="-10%" y="-10%" width="120%" height="120%">
        <feTurbulence baseFrequency="0.05" numOctaves="3" seed="113"/>
        <feDisplacementMap in="SourceGraphic" scale="3"/>
      </filter>
      <filter id="wcBlurAvocado"><feGaussianBlur stdDeviation="1.5"/></filter>
    </defs>

    <g filter="url(#wcBlurAvocado)" opacity="0.35"><ellipse cx="0" cy="0" rx="80" ry="118" fill="#9BCB7A"/></g>

    <g filter="url(#wcRoughAvocado)">
      <!-- Outer skin (dark, almost black, with stipple texture suggested) -->
      <path d="M 0 -110 Q -25 -100 -35 -75 Q -55 -50 -65 0 Q -75 70 0 110 Q 75 70 65 0 Q 55 -50 35 -75 Q 25 -100 0 -110 Z M 0 -100 Q -22 -92 -30 -68 Q -48 -45 -55 0 Q -65 60 0 100 Q 65 60 55 0 Q 48 -45 30 -68 Q 22 -92 0 -100 Z" fill="url(#wcSkinAvocado)" fill-rule="evenodd"/>
      <!-- Flesh (yellow-green pear shape inside) -->
      <path d="M 0 -100 Q -22 -92 -30 -68 Q -48 -45 -55 0 Q -65 60 0 100 Q 65 60 55 0 Q 48 -45 30 -68 Q 22 -92 0 -100 Z" fill="url(#wcFleshAvocado)"/>
    </g>

    <!-- Skin texture stippling (small dots on dark skin) -->
    <g fill="#5A4030" opacity="0.55">
      <circle cx="-58" cy="-15" r="1.4"/>
      <circle cx="-55" cy="20" r="1.2"/>
      <circle cx="-50" cy="55" r="1.4"/>
      <circle cx="-30" cy="80" r="1.3"/>
      <circle cx="0" cy="92" r="1.4"/>
      <circle cx="30" cy="80" r="1.3"/>
      <circle cx="50" cy="55" r="1.4"/>
      <circle cx="55" cy="20" r="1.2"/>
      <circle cx="58" cy="-15" r="1.4"/>
      <circle cx="-40" cy="-50" r="1.2"/>
      <circle cx="40" cy="-50" r="1.2"/>
    </g>

    <!-- Seed cavity highlight (subtle ring around where seed sits) -->
    <circle cx="0" cy="-25" r="42" fill="#D8C870" opacity="0.4"/>

    <!-- Seed (large round brown) -->
    <circle cx="0" cy="-25" r="38" fill="url(#wcSeedAvocado)" stroke="#3D2817" stroke-width="2.5"/>
    <!-- Seed surface texture (subtle bands) -->
    <g stroke="#5D3825" stroke-width="0.7" fill="none" opacity="0.55">
      <path d="M -22 -50 Q 0 -55 25 -45"/>
      <path d="M -28 -25 Q 0 -33 28 -20"/>
      <path d="M -25 -5 Q 0 -10 25 0"/>
      <path d="M -18 -55 Q -5 -52 5 -55"/>
    </g>
    <!-- Seed highlight -->
    <ellipse cx="-12" cy="-40" rx="9" ry="6" fill="#FFFFFF" opacity="0.32"/>

    <!-- Outer outline + stem -->
    <g stroke="#3D2817" stroke-width="3" fill="none" stroke-linecap="round" stroke-linejoin="round" opacity="0.9">
      <path d="M 0 -110 Q -25 -100 -35 -75 Q -55 -50 -65 0 Q -75 70 0 110 Q 75 70 65 0 Q 55 -50 35 -75 Q 25 -100 0 -110 Z"/>
      <path d="M 0 -110 L 0 -125" stroke-width="2.5"/>
    </g>
  </g>

  <!-- NG side: over-ripe cross-section -->
  <g transform="translate(800, 320)">
    <circle cx="-200" cy="-180" r="22" fill="#C62828"/>
    <text x="-200" y="-172" font-size="26" font-weight="900" fill="white" text-anchor="middle">×</text>
    <!-- Outer skin (cracked, brown) -->
    <path d="M 0 -110 Q -25 -100 -35 -75 Q -55 -50 -65 0 Q -75 70 0 110 Q 75 70 65 0 Q 55 -50 35 -75 Q 25 -100 0 -110 Z M 0 -100 Q -22 -92 -30 -68 Q -48 -45 -55 0 Q -65 60 0 100 Q 65 60 55 0 Q 48 -45 30 -68 Q 22 -92 0 -100 Z" fill="#3A2818" fill-rule="evenodd"/>
    <!-- Flesh (gray-brown, oxidized) -->
    <path d="M 0 -100 Q -22 -92 -30 -68 Q -48 -45 -55 0 Q -65 60 0 100 Q 65 60 55 0 Q 48 -45 30 -68 Q 22 -92 0 -100 Z" fill="#9A8868"/>
    <!-- Brown rotting spots -->
    <g fill="#3D2818" opacity="0.65">
      <ellipse cx="-25" cy="20" rx="18" ry="14"/>
      <ellipse cx="22" cy="-50" rx="12" ry="9"/>
      <ellipse cx="-15" cy="60" rx="14" ry="10"/>
      <ellipse cx="30" cy="40" rx="10" ry="8"/>
    </g>
    <!-- Loose darkened seed -->
    <circle cx="0" cy="-25" r="38" fill="#3A2515" stroke="#1A1008" stroke-width="2"/>
    <!-- Outline -->
    <path d="M 0 -110 Q -25 -100 -35 -75 Q -55 -50 -65 0 Q -75 70 0 110 Q 75 70 65 0 Q 55 -50 35 -75 Q 25 -100 0 -110 Z" stroke="#3D2817" stroke-width="2.5" fill="none" opacity="0.7"/>
  </g>

  <!-- Comparison labels -->
  <g font-size="20" fill="#333">
    <rect x="60" y="495" width="460" height="80" rx="8" fill="#E8F5E9"/>
    <text x="80" y="520" font-weight="bold" fill="#2C5F2D">● 果肉が黄緑、種は艶あり</text>
    <text x="80" y="545" font-weight="bold" fill="#2C5F2D">● 皮が暗緑〜黒、ハリある</text>
    <text x="80" y="568" fill="#666" font-size="17">軽く押して柔らかい弾力=食べ頃</text>

    <rect x="560" y="495" width="460" height="80" rx="8" fill="#FFEBEE"/>
    <text x="580" y="520" font-weight="bold" fill="#C62828">× 果肉が灰褐色・斑点多い</text>
    <text x="580" y="545" font-weight="bold" fill="#C62828">× 種の周りに黒変</text>
    <text x="580" y="568" fill="#666" font-size="17">ブヨブヨ/ヘタ周りが黒=熟しすぎ</text>
  </g>
</svg>
