<svg xmlns="http://www.w3.org/2000/svg" viewBox="0 0 1080 600" font-family="Noto Sans CJK JP, sans-serif">
  <rect width="1080" height="600" fill="#FFFFFF" rx="20"/>
  
  <!-- Header -->
  <text x="60" y="60" font-size="44" font-weight="900" fill="#FF8C42">人参</text>
  <line x1="60" y1="75" x2="200" y2="75" stroke="#FF8C42" stroke-width="4"/>
  <text x="220" y="68" font-size="22" fill="#666">旬:秋〜冬・春</text>
  
  <line x1="540" y1="100" x2="540" y2="540" stroke="#DDD" stroke-width="2" stroke-dasharray="6,6"/>
  
  <!-- OK side -->
  <g transform="translate(280, 320)">
    <circle cx="-200" cy="-180" r="22" fill="#2C5F2D"/>
    <text x="-200" y="-172" font-size="26" font-weight="900" fill="white" text-anchor="middle">○</text>
    
    <!-- Leaves (small cut, fresh) -->
    <g transform="translate(0, -150)">
      <!-- Small green stem stub -->
      <path d="M -15 0 Q -20 -25 -10 -40 Q 0 -25 10 -40 Q 20 -25 15 0 Z" fill="#4A7C2E"/>
      <!-- Tiny tuft of leaves -->
      <circle cx="-10" cy="-45" r="8" fill="#5D8F3D"/>
      <circle cx="0" cy="-50" r="9" fill="#4A7C2E"/>
      <circle cx="10" cy="-45" r="8" fill="#5D8F3D"/>
    </g>
    
    <!-- Carrot body (vibrant orange, smooth) -->
    <path d="M -45 -150 Q -50 -130 -50 -100 L -25 100 Q -10 150 0 170 Q 10 150 25 100 L 50 -100 Q 50 -130 45 -150 Q 0 -160 -45 -150 Z" fill="#FF8C42"/>
    <!-- Highlight -->
    <ellipse cx="-15" cy="-50" rx="8" ry="80" fill="#FFB07A" opacity="0.6"/>
    <!-- Subtle horizontal lines (texture) -->
    <path d="M -42 -100 Q 0 -95 42 -100" stroke="#E07020" stroke-width="1" fill="none" opacity="0.5"/>
    <path d="M -38 -50 Q 0 -45 38 -50" stroke="#E07020" stroke-width="1" fill="none" opacity="0.5"/>
    <path d="M -32 0 Q 0 5 32 0" stroke="#E07020" stroke-width="1" fill="none" opacity="0.5"/>
    <path d="M -25 50 Q 0 55 25 50" stroke="#E07020" stroke-width="1" fill="none" opacity="0.5"/>
    <!-- Few short hair roots -->
    <line x1="0" y1="170" x2="-3" y2="180" stroke="#D45F1A" stroke-width="1"/>
    <line x1="0" y1="170" x2="3" y2="180" stroke="#D45F1A" stroke-width="1"/>
  </g>
  
  <!-- NG side -->
  <g transform="translate(800, 320)">
    <circle cx="-200" cy="-180" r="22" fill="#C62828"/>
    <text x="-200" y="-172" font-size="26" font-weight="900" fill="white" text-anchor="middle">×</text>
    
    <!-- Large dark cut at top -->
    <g transform="translate(0, -150)">
      <ellipse cx="0" cy="0" rx="22" ry="6" fill="#3D2817"/>
      <ellipse cx="0" cy="-2" rx="20" ry="4" fill="#5D4E37"/>
    </g>
    
    <!-- Carrot body (dull, with imperfections) -->
    <path d="M -45 -150 Q -50 -130 -50 -100 L -25 100 Q -10 150 0 170 Q 10 150 25 100 L 50 -100 Q 50 -130 45 -150 Q 0 -160 -45 -150 Z" fill="#C77A4A"/>
    <!-- Discolored patch -->
    <ellipse cx="20" cy="-30" rx="15" ry="20" fill="#8B5A30" opacity="0.6"/>
    <ellipse cx="-15" cy="50" rx="12" ry="18" fill="#8B5A30" opacity="0.5"/>
    <!-- Wrinkles/cracks -->
    <path d="M -30 -80 Q -10 -70 0 -85" stroke="#5D4E37" stroke-width="1.5" fill="none"/>
    <path d="M 10 0 Q 25 10 30 -5" stroke="#5D4E37" stroke-width="1.5" fill="none"/>
    <path d="M -25 80 Q 0 85 20 75" stroke="#5D4E37" stroke-width="1.5" fill="none"/>
    <!-- Many hair roots (rough) -->
    <line x1="-40" y1="-50" x2="-50" y2="-48" stroke="#5D4E37" stroke-width="1.5"/>
    <line x1="40" y1="-30" x2="50" y2="-25" stroke="#5D4E37" stroke-width="1.5"/>
    <line x1="-35" y1="20" x2="-48" y2="25" stroke="#5D4E37" stroke-width="1.5"/>
    <line x1="35" y1="40" x2="48" y2="48" stroke="#5D4E37" stroke-width="1.5"/>
    <line x1="-30" y1="80" x2="-42" y2="85" stroke="#5D4E37" stroke-width="1.5"/>
    <line x1="0" y1="170" x2="-5" y2="183" stroke="#5D4E37" stroke-width="1.5"/>
    <line x1="0" y1="170" x2="5" y2="183" stroke="#5D4E37" stroke-width="1.5"/>
  </g>
  
  <!-- Comparison labels -->
  <g font-size="20" fill="#333">
    <rect x="60" y="495" width="460" height="80" rx="8" fill="#E8F5E9"/>
    <text x="80" y="520" font-weight="bold" fill="#2C5F2D">● 鮮やかなオレンジ、表面が滑らか</text>
    <text x="80" y="545" font-weight="bold" fill="#2C5F2D">● 首の切り口が小さく、ひげ根少なめ</text>
    <text x="80" y="568" fill="#666" font-size="17">皮の近くが栄養豊富。皮ごと使うのが◎</text>
    
    <rect x="560" y="495" width="460" height="80" rx="8" fill="#FFEBEE"/>
    <text x="580" y="520" font-weight="bold" fill="#C62828">× 色がくすむ、シワや黒ずみがある</text>
    <text x="580" y="545" font-weight="bold" fill="#C62828">× 切り口が大きく黒い、ひげ根が多い</text>
    <text x="580" y="568" fill="#666" font-size="17">切り口の大きさ=葉が太かった証=硬い</text>
  </g>
</svg>
