<svg xmlns="http://www.w3.org/2000/svg" viewBox="-140 -80 280 160" font-family="Noto Sans CJK JP, sans-serif">
<defs>
      <radialGradient id="wcBodyAji" cx="35%" cy="25%"><stop offset="0%" stop-color="#F8F8FA" stop-opacity="0.95"/><stop offset="40%" stop-color="#D0D8DC" stop-opacity="0.9"/><stop offset="80%" stop-color="#90A0A8" stop-opacity="0.85"/><stop offset="100%" stop-color="#506068" stop-opacity="0.65"/></radialGradient>
      <radialGradient id="wcLeafAji" cx="50%" cy="20%"><stop offset="0%" stop-color="#9BCB7A" stop-opacity="0.9"/><stop offset="60%" stop-color="#5D8F3D" stop-opacity="0.7"/><stop offset="100%" stop-color="#2C5F2D" stop-opacity="0.5"/></radialGradient>
      <filter id="wcRoughAji" x="-10%" y="-10%" width="120%" height="120%">
        <feTurbulence baseFrequency="0.04" numOctaves="3" seed="193"/>
        <feDisplacementMap in="SourceGraphic" scale="4"/>
      </filter>
      <filter id="wcBlurAji"><feGaussianBlur stdDeviation="1.5"/></filter>
    </defs>
    <g filter="url(#wcBlurAji)" opacity="0.4"><ellipse cx="0" cy="0" rx="125" ry="55" fill="#90A0A8"/></g>
    
    <g filter="url(#wcRoughAji)"><path d="M -110 0 Q -105 -42 -40 -48 Q 50 -50 95 -28 L 115 -22 Q 128 -10 128 0 Q 128 10 115 22 L 95 28 Q 50 50 -40 48 Q -105 42 -110 0 Z" fill="url(#wcBodyAji)"/><path d="M 115 -22 L 135 -38 L 130 0 L 135 38 L 115 22 Z" fill="url(#wcBodyAji)"/></g>
    
    <g stroke="#3D2817" stroke-width="3" fill="none" stroke-linecap="round" stroke-linejoin="round" opacity="0.9"><path d="M -110 0 Q -105 -42 -40 -48 Q 50 -50 95 -28 L 115 -22 Q 128 -10 128 0 Q 128 10 115 22 L 95 28 Q 50 50 -40 48 Q -105 42 -110 0 Z"/><path d="M 115 -22 L 135 -38 L 130 0 L 135 38 L 115 22"/><path d="M -90 -15 m -5 0 a 5 5 0 1 0 10 0 a 5 5 0 1 0 -10 0 Z" opacity="0.95" stroke-width="2.2"/><path d="M -110 0 Q -115 5 -105 12" opacity="0.85" stroke-width="1.8"/><path d="M -70 5 Q 0 10 95 8" opacity="0.85" stroke-width="3"/><path d="M -80 -25 Q -75 0 -78 25" opacity="0.6" stroke-width="1.6"/><path d="M -50 -25 Q -20 -20 10 -25" opacity="0.5" stroke-width="1.4"/><path d="M 20 -25 Q 50 -20 80 -25" opacity="0.5" stroke-width="1.4"/></g>
</svg>
