<svg xmlns="http://www.w3.org/2000/svg" viewBox="-120 -140 240 280" font-family="Noto Sans CJK JP, sans-serif">
<defs>
      <radialGradient id="wcBodyApple" cx="35%" cy="25%"><stop offset="0%" stop-color="#FFB0A8" stop-opacity="0.95"/><stop offset="40%" stop-color="#FF6655" stop-opacity="0.9"/><stop offset="80%" stop-color="#E33825" stop-opacity="0.85"/><stop offset="100%" stop-color="#A02818" stop-opacity="0.7"/></radialGradient>
      <radialGradient id="wcLeafApple" cx="50%" cy="20%"><stop offset="0%" stop-color="#9BCB7A" stop-opacity="0.9"/><stop offset="60%" stop-color="#5D8F3D" stop-opacity="0.7"/><stop offset="100%" stop-color="#2C5F2D" stop-opacity="0.5"/></radialGradient>
      <filter id="wcRoughApple" x="-10%" y="-10%" width="120%" height="120%">
        <feTurbulence baseFrequency="0.04" numOctaves="3" seed="41"/>
        <feDisplacementMap in="SourceGraphic" scale="4"/>
      </filter>
      <filter id="wcBlurApple"><feGaussianBlur stdDeviation="1.5"/></filter>
    </defs>
    <g filter="url(#wcBlurApple)" opacity="0.4"><ellipse cx="0" cy="0" rx="100" ry="100" fill="#FF8077"/></g>
    <g filter="url(#wcRoughApple)" opacity="0.8"><path d="M 5 -100 Q 18 -110 25 -98 Q 18 -92 8 -98 Z" fill="url(#wcLeafApple)"/></g>
    <g filter="url(#wcRoughApple)"><path d="M -90 -5 Q -100 50 -50 90 Q 0 100 50 90 Q 100 50 90 -5 Q 95 -75 50 -90 Q 25 -82 5 -90 Q -25 -100 -50 -85 Q -95 -75 -90 -5 Z" fill="url(#wcBodyApple)"/></g>
    
    <g stroke="#3D2817" stroke-width="3" fill="none" stroke-linecap="round" stroke-linejoin="round" opacity="0.9"><path d="M -90 -5 Q -100 50 -50 90 Q 0 100 50 90 Q 100 50 90 -5 Q 95 -75 50 -90 Q 25 -82 5 -90 Q -25 -100 -50 -85 Q -95 -75 -90 -5 Z"/><path d="M 0 -90 L -5 -115 L 5 -120" opacity="0.85" stroke-width="2.5"/><path d="M -20 -85 Q 0 -78 20 -85" opacity="0.6" stroke-width="1.5"/><path d="M 5 -100 Q 18 -110 25 -98 Q 18 -92 8 -98" opacity="0.85" stroke-width="2"/></g>
</svg>
