<svg xmlns="http://www.w3.org/2000/svg" viewBox="-150 -110 300 220" font-family="Noto Sans CJK JP, sans-serif">
<defs>
      <radialGradient id="wcBodyBanana" cx="35%" cy="25%"><stop offset="0%" stop-color="#FFF5C0" stop-opacity="0.95"/><stop offset="40%" stop-color="#FFE066" stop-opacity="0.9"/><stop offset="80%" stop-color="#F2C232" stop-opacity="0.85"/><stop offset="100%" stop-color="#B88A1B" stop-opacity="0.7"/></radialGradient>
      <radialGradient id="wcLeafBanana" cx="50%" cy="20%"><stop offset="0%" stop-color="#9BCB7A" stop-opacity="0.9"/><stop offset="60%" stop-color="#5D8F3D" stop-opacity="0.7"/><stop offset="100%" stop-color="#2C5F2D" stop-opacity="0.5"/></radialGradient>
      <filter id="wcRoughBanana" x="-10%" y="-10%" width="120%" height="120%">
        <feTurbulence baseFrequency="0.04" numOctaves="3" seed="37"/>
        <feDisplacementMap in="SourceGraphic" scale="4"/>
      </filter>
      <filter id="wcBlurBanana"><feGaussianBlur stdDeviation="1.5"/></filter>
    </defs>
    <g filter="url(#wcBlurBanana)" opacity="0.4"><ellipse cx="0" cy="10" rx="140" ry="75" fill="#FFE066"/></g>
    
    <g filter="url(#wcRoughBanana)"><path d="M -120 -50 Q -135 -10 -120 35 Q -60 70 0 75 Q 80 80 120 60 Q 130 35 110 -5 Q 100 -50 60 -55 Q 0 -45 -120 -50 Z" fill="url(#wcBodyBanana)"/></g>
    <g stroke="#3D2817" stroke-width="3" fill="none" stroke-linecap="round" stroke-linejoin="round" opacity="0.9"><path d="M -120 -50 Q -135 -10 -120 35 Q -60 70 0 75 Q 80 80 120 60 Q 130 35 110 -5 Q 100 -50 60 -55 Q 0 -45 -120 -50 Z"/><path d="M -120 -50 L -135 -68 L -125 -75" opacity="0.85" stroke-width="2.5"/><path d="M 120 60 L 130 70 L 130 78" opacity="0.85" stroke-width="2.5"/><path d="M -100 -42 Q 0 -38 100 -8" opacity="0.6" stroke-width="1.5"/><path d="M -100 25 Q 0 50 100 50" opacity="0.6" stroke-width="1.5"/></g>
</svg>
