<svg xmlns="http://www.w3.org/2000/svg" viewBox="-140 -130 280 220" font-family="Noto Sans CJK JP, sans-serif">
<!-- ヘタ(黒ずむ) -->
    <path d="M -150 -45 Q -165 -25 -168 0 Q -165 25 -150 45 L -130 38 Q -125 0 -130 -38 Z" fill="#3A2812" stroke="#3D2817" stroke-width="2.5"/>

    <!-- バナナ3本(茶色く変色) -->
    <path d="M -130 -38 Q -100 -55 -50 -60 Q 30 -62 90 -50 Q 130 -38 145 -15 Q 148 0 140 12 Q 130 18 110 18 Q 30 18 -50 8 Q -100 0 -125 -10 Q -130 -25 -130 -38 Z" fill="#9A7838"/>
    <path d="M -130 -10 Q -90 -10 -50 -8 Q 30 -8 90 -2 Q 135 5 155 25 Q 162 38 155 48 Q 145 55 130 55 Q 30 55 -50 45 Q -100 38 -128 25 Q -135 10 -130 -10 Z" fill="#A88040"/>
    <path d="M -130 25 Q -90 30 -50 35 Q 30 40 90 50 Q 130 60 145 75 Q 148 88 138 95 Q 125 100 105 98 Q 30 90 -50 80 Q -100 72 -125 55 Q -130 40 -130 25 Z" fill="#A88040"/>

    <!-- 大きな黒い斑点 -->
    <g fill="#2A1F15" opacity="0.75">
      <ellipse cx="-70" cy="-30" rx="13" ry="9"/>
      <ellipse cx="20" cy="-30" rx="14" ry="10"/>
      <ellipse cx="80" cy="-15" rx="11" ry="8"/>
      <ellipse cx="-50" cy="20" rx="12" ry="9"/>
      <ellipse cx="40" cy="20" rx="14" ry="10"/>
      <ellipse cx="100" cy="30" rx="11" ry="8"/>
      <ellipse cx="-60" cy="65" rx="13" ry="9"/>
      <ellipse cx="20" cy="65" rx="14" ry="10"/>
      <ellipse cx="90" cy="80" rx="11" ry="8"/>
    </g>
    <!-- 中サイズの茶斑 -->
    <g fill="#5A3A18" opacity="0.7">
      <ellipse cx="-30" cy="-50" rx="6" ry="5"/>
      <ellipse cx="60" cy="-50" rx="6" ry="5"/>
      <ellipse cx="-90" cy="0" rx="5" ry="4"/>
      <ellipse cx="-20" cy="40" rx="5" ry="4"/>
    </g>

    <!-- 稜線 -->
    <g stroke="#3D2817" stroke-width="1.8" fill="none" stroke-linecap="round" opacity="0.55">
      <path d="M -50 -55 Q 30 -55 90 -45"/>
      <path d="M -50 -3 Q 30 -3 90 3"/>
      <path d="M -50 40 Q 30 45 90 55"/>
    </g>

    <!-- 先端の黒(右、お尻) -->
    <ellipse cx="148" cy="-2" rx="4" ry="6" fill="#1F1812"/>
    <ellipse cx="160" cy="38" rx="4" ry="6" fill="#1F1812"/>
    <ellipse cx="148" cy="85" rx="4" ry="6" fill="#1F1812"/>

    <!-- 輪郭 -->
    <g stroke="#3D2817" stroke-width="3" fill="none" stroke-linecap="round" stroke-linejoin="round">
      <path d="M -130 -38 Q -100 -55 -50 -60 Q 30 -62 90 -50 Q 130 -38 145 -15 Q 148 0 140 12 Q 130 18 110 18 Q 30 18 -50 8 Q -100 0 -125 -10" opacity="0.8"/>
      <path d="M -130 -10 Q -90 -10 -50 -8 Q 30 -8 90 -2 Q 135 5 155 25 Q 162 38 155 48 Q 145 55 130 55 Q 30 55 -50 45 Q -100 38 -128 25"/>
      <path d="M -130 25 Q -90 30 -50 35 Q 30 40 90 50 Q 130 60 145 75 Q 148 88 138 95 Q 125 100 105 98 Q 30 90 -50 80 Q -100 72 -125 55"/>
    </g>

    <!-- 影 -->
    <ellipse cx="0" cy="115" rx="135" ry="7" fill="#3D2817" opacity="0.08"/>
</svg>
