<svg xmlns="http://www.w3.org/2000/svg" viewBox="-140 -130 280 220" font-family="Noto Sans CJK JP, sans-serif">
<defs>
      <radialGradient id="wcBodyBanana" cx="35%" cy="25%"><stop offset="0%" stop-color="#FFF5C0" stop-opacity="0.95"/><stop offset="40%" stop-color="#FFE066" stop-opacity="0.9"/><stop offset="80%" stop-color="#F2C232" stop-opacity="0.85"/><stop offset="100%" stop-color="#B88A1B" stop-opacity="0.7"/></radialGradient>
      <radialGradient id="wcLeafBanana" cx="50%" cy="20%"><stop offset="0%" stop-color="#9BCB7A" stop-opacity="0.9"/><stop offset="60%" stop-color="#5D8F3D" stop-opacity="0.7"/><stop offset="100%" stop-color="#2C5F2D" stop-opacity="0.5"/></radialGradient>
      <filter id="wcRoughBanana" x="-10%" y="-10%" width="120%" height="120%">
        <feTurbulence baseFrequency="0.04" numOctaves="3" seed="37"/>
        <feDisplacementMap in="SourceGraphic" scale="4"/>
      </filter>
      <filter id="wcBlurBanana"><feGaussianBlur stdDeviation="1.5"/></filter>
    </defs>
    <g filter="url(#wcBlurBanana)" opacity="0.4"><ellipse cx="10" cy="0" rx="140" ry="75" fill="#FFE066"/></g>
    <g filter="url(#wcRoughBanana)" opacity="0.8"><path d="M -103 -45 Q -125 -75 -105 -100 Q -85 -90 -88 -50 Z" fill="url(#wcLeafBanana)"/></g>
    <g filter="url(#wcRoughBanana)"><path d="M -98 -38 Q -55 -88 30 -85 Q 95 -75 115 -25 Q 122 -2 105 10 Q 55 -5 -10 -5 Q -75 -8 -95 -22 Q -110 -32 -98 -38 Z" fill="url(#wcBodyBanana)"/></g>
    
                <!-- ヘタの濃緑コア (より緑色を強調) -->
                <g fill="#5D8F3D" opacity="0.8">
                    <path d="M -103 -45 Q -120 -68 -105 -90 Q -90 -82 -94 -55 Z"/>
                </g>
                <!-- ヘタの根元 (バナナとの接続部) -->
                <g fill="#7BAB46" opacity="0.85">
                    <ellipse cx="-95" cy="-42" rx="10" ry="4"/>
                </g>
            
    <g stroke="#3D2817" stroke-width="3" fill="none" stroke-linecap="round" stroke-linejoin="round" opacity="0.9"><path d="M -98 -38 Q -55 -88 30 -85 Q 95 -75 115 -25 Q 122 -2 105 10 Q 55 -5 -10 -5 Q -75 -8 -95 -22 Q -110 -32 -98 -38 Z"/><path d="M -103 -45 Q -125 -75 -105 -100 Q -85 -90 -88 -50 Z" opacity="0.9" stroke-width="2.2"/><path d="M -100 -50 Q -107 -75 -100 -95" opacity="0.7" stroke-width="1.5"/><path d="M -75 -65 Q -10 -75 60 -75" opacity="0.55" stroke-width="1.4"/><path d="M -75 -25 Q -10 -38 70 -38" opacity="0.5" stroke-width="1.3"/><path d="M 115 -25 L 122 -10 L 117 -2" opacity="0.85" stroke-width="2.2"/></g>
</svg>
