<svg xmlns="http://www.w3.org/2000/svg" viewBox="-130 -110 260 220" font-family="Noto Sans CJK JP, sans-serif">
<path d="M -90 -45 Q -100 0 -90 50 Q 0 75 90 50 Q 100 0 90 -45 Q 0 -65 -90 -45 Z" fill="#783030"/><path d="M -85 -35 Q 0 -30 85 -35" stroke="#A88830" stroke-width="4" fill="none" opacity="0.7"/><ellipse cx="-25" cy="10" rx="25" ry="18" fill="#3D1818" opacity="0.5"/><ellipse cx="30" cy="30" rx="18" ry="12" fill="#3D1818" opacity="0.5"/><ellipse cx="0" cy="70" rx="60" ry="8" fill="#702018" opacity="0.6"/>
  
    <!-- animal-icon: boar (tusks + bristles, dark) -->
    <g transform="translate(88, 72)" data-icon="boar">
      <circle cx="0" cy="0" r="38" fill="#FFFFFF" fill-opacity="0.96" stroke="#3D2817" stroke-width="2"/>
      <g fill="#3D2817" stroke="none">
        <path d="M -11 -14 L -14 -24 L -8 -15 Z"/>
        <path d="M -4 -17 L -6 -27 L 0 -17 Z"/>
        <path d="M 4 -17 L 6 -27 L 10 -17 Z"/>
        <path d="M 11 -14 L 14 -24 L 16 -15 Z"/>
      </g>
      <path d="M -17 -11 L -10 -20 L -7 -8 Z" fill="#3D2817" stroke="#3D2817" stroke-width="1.7" stroke-linejoin="round"/>
      <path d="M -17 -3 Q -17 -11 -4 -14 Q 10 -14 18 -8 Q 25 3 22 12 Q 14 20 0 20 Q -14 17 -19 8 Q -19 0 -17 -3 Z" fill="#5D4028" stroke="#3D2817" stroke-width="2"/>
      <ellipse cx="20" cy="9" rx="10" ry="6.5" fill="#3D2817" stroke="#3D2817" stroke-width="1.7"/>
      <path d="M 16 9 Q 16 -1 13 -7" fill="none" stroke="#FFFFFF" stroke-width="3" stroke-linecap="round"/>
      <path d="M 24 10 Q 24 0 21 -6" fill="none" stroke="#FFFFFF" stroke-width="3" stroke-linecap="round"/>
      <circle cx="18" cy="7" r="1.3" fill="#FFFFFF"/>
      <circle cx="18" cy="11" r="1.3" fill="#FFFFFF"/>
      <circle cx="0" cy="-3" r="2.2" fill="#3D2817"/>
    </g>
</svg>
