<svg xmlns="http://www.w3.org/2000/svg" viewBox="-130 -110 260 220" font-family="Noto Sans CJK JP, sans-serif">
<defs>
      <radialGradient id="wcBodyBoar" cx="35%" cy="25%"><stop offset="0%" stop-color="#F8C8B8" stop-opacity="0.95"/><stop offset="40%" stop-color="#D87060" stop-opacity="0.9"/><stop offset="80%" stop-color="#9A3020" stop-opacity="0.85"/><stop offset="100%" stop-color="#581008" stop-opacity="0.65"/></radialGradient>
      <radialGradient id="wcLeafBoar" cx="50%" cy="20%"><stop offset="0%" stop-color="#9BCB7A" stop-opacity="0.9"/><stop offset="60%" stop-color="#5D8F3D" stop-opacity="0.7"/><stop offset="100%" stop-color="#2C5F2D" stop-opacity="0.5"/></radialGradient>
      <filter id="wcRoughBoar" x="-10%" y="-10%" width="120%" height="120%">
        <feTurbulence baseFrequency="0.04" numOctaves="3" seed="227"/>
        <feDisplacementMap in="SourceGraphic" scale="4"/>
      </filter>
      <filter id="wcBlurBoar"><feGaussianBlur stdDeviation="1.5"/></filter>
    </defs>
    <g filter="url(#wcBlurBoar)" opacity="0.4"><ellipse cx="0" cy="0" rx="110" ry="70" fill="#D87060"/></g>
    
    <g filter="url(#wcRoughBoar)"><path d="M -90 -45 Q -100 0 -90 50 Q 0 75 90 50 Q 100 0 90 -45 Q 0 -65 -90 -45 Z" fill="url(#wcBodyBoar)"/></g>
    <g stroke="#3D2817" stroke-width="3" fill="none" stroke-linecap="round" stroke-linejoin="round" opacity="0.9"><path d="M -90 -45 Q -100 0 -90 50 Q 0 75 90 50 Q 100 0 90 -45 Q 0 -65 -90 -45 Z"/><path d="M -85 -28 Q 0 -25 85 -28" opacity="0.55" stroke-width="1.6"/><path d="M -82 -8 Q 0 -3 82 -8" opacity="0.65" stroke-width="1.5"/><path d="M -78 12 Q 0 17 78 12" opacity="0.65" stroke-width="1.5"/><path d="M -72 32 Q 0 37 72 32" opacity="0.65" stroke-width="1.5"/><path d="M -65 52 Q 0 57 65 52" opacity="0.65" stroke-width="1.5"/><path d="M -45 0 Q -25 5 -5 -5" opacity="0.7" stroke-width="2.2"/><path d="M 15 22 Q 35 27 55 18" opacity="0.7" stroke-width="2.2"/><path d="M -55 40 Q -30 45 -10 38" opacity="0.65" stroke-width="2"/></g>
  
    <!-- animal-icon: boar (tusks + bristles, dark) -->
    <g transform="translate(88, 72)" data-icon="boar">
      <circle cx="0" cy="0" r="38" fill="#FFFFFF" fill-opacity="0.96" stroke="#3D2817" stroke-width="2"/>
      <g fill="#3D2817" stroke="none">
        <path d="M -11 -14 L -14 -24 L -8 -15 Z"/>
        <path d="M -4 -17 L -6 -27 L 0 -17 Z"/>
        <path d="M 4 -17 L 6 -27 L 10 -17 Z"/>
        <path d="M 11 -14 L 14 -24 L 16 -15 Z"/>
      </g>
      <path d="M -17 -11 L -10 -20 L -7 -8 Z" fill="#3D2817" stroke="#3D2817" stroke-width="1.7" stroke-linejoin="round"/>
      <path d="M -17 -3 Q -17 -11 -4 -14 Q 10 -14 18 -8 Q 25 3 22 12 Q 14 20 0 20 Q -14 17 -19 8 Q -19 0 -17 -3 Z" fill="#5D4028" stroke="#3D2817" stroke-width="2"/>
      <ellipse cx="20" cy="9" rx="10" ry="6.5" fill="#3D2817" stroke="#3D2817" stroke-width="1.7"/>
      <path d="M 16 9 Q 16 -1 13 -7" fill="none" stroke="#FFFFFF" stroke-width="3" stroke-linecap="round"/>
      <path d="M 24 10 Q 24 0 21 -6" fill="none" stroke="#FFFFFF" stroke-width="3" stroke-linecap="round"/>
      <circle cx="18" cy="7" r="1.3" fill="#FFFFFF"/>
      <circle cx="18" cy="11" r="1.3" fill="#FFFFFF"/>
      <circle cx="0" cy="-3" r="2.2" fill="#3D2817"/>
    </g>
</svg>
