<svg xmlns="http://www.w3.org/2000/svg" viewBox="-130 -160 260 280" font-family="Noto Sans CJK JP, sans-serif">
<defs>
      <radialGradient id="wcBodyBroccoli" cx="35%" cy="25%"><stop offset="0%" stop-color="#9BCB7A" stop-opacity="0.95"/><stop offset="40%" stop-color="#5D8F3D" stop-opacity="0.9"/><stop offset="80%" stop-color="#2C5F2D" stop-opacity="0.85"/><stop offset="100%" stop-color="#1A3F1A" stop-opacity="0.65"/></radialGradient>
      <radialGradient id="wcLeafBroccoli" cx="50%" cy="20%"><stop offset="0%" stop-color="#9BCB7A" stop-opacity="0.9"/><stop offset="60%" stop-color="#5D8F3D" stop-opacity="0.7"/><stop offset="100%" stop-color="#2C5F2D" stop-opacity="0.5"/></radialGradient>
      <filter id="wcRoughBroccoli" x="-10%" y="-10%" width="120%" height="120%">
        <feTurbulence baseFrequency="0.04" numOctaves="3" seed="71"/>
        <feDisplacementMap in="SourceGraphic" scale="4"/>
      </filter>
      <filter id="wcBlurBroccoli"><feGaussianBlur stdDeviation="1.5"/></filter>
    </defs>
    <g filter="url(#wcBlurBroccoli)" opacity="0.4"><ellipse cx="0" cy="-50" rx="110" ry="80" fill="#5D8F3D"/></g>
    
    <g filter="url(#wcRoughBroccoli)"><path d="M -90 -30 Q -100 -100 -50 -130 Q 0 -140 50 -130 Q 100 -100 90 -30 Q 80 0 50 -10 Q 0 0 -50 -10 Q -80 0 -90 -30 Z" fill="url(#wcBodyBroccoli)"/><path d="M -25 -10 L -25 80 Q -25 100 0 105 Q 25 100 25 80 L 25 -10 Z" fill="url(#wcBodyBroccoli)"/></g>
    <g stroke="#3D2817" stroke-width="3" fill="none" stroke-linecap="round" stroke-linejoin="round" opacity="0.9"><path d="M -90 -30 Q -100 -100 -50 -130 Q 0 -140 50 -130 Q 100 -100 90 -30 Q 80 0 50 -10 Q 0 0 -50 -10 Q -80 0 -90 -30 Z"/><path d="M -25 -10 L -25 80 Q -25 100 0 105 Q 25 100 25 80 L 25 -10 Z"/><path d="M -65 -90 Q -55 -100 -50 -85" opacity="0.7" stroke-width="1.6"/><path d="M -35 -110 Q -25 -120 -15 -105" opacity="0.7" stroke-width="1.6"/><path d="M 0 -120 Q 10 -130 20 -115" opacity="0.7" stroke-width="1.6"/><path d="M 30 -110 Q 40 -120 50 -100" opacity="0.7" stroke-width="1.6"/><path d="M 60 -90 Q 70 -100 75 -75" opacity="0.7" stroke-width="1.6"/><path d="M -60 -50 Q -50 -60 -40 -45" opacity="0.6" stroke-width="1.4"/><path d="M -10 -55 Q 0 -65 15 -50" opacity="0.6" stroke-width="1.4"/><path d="M 35 -55 Q 50 -65 60 -45" opacity="0.6" stroke-width="1.4"/><path d="M -25 30 L 25 30" opacity="0.5" stroke-width="1.3"/><path d="M -25 60 L 25 60" opacity="0.5" stroke-width="1.3"/></g>
</svg>
