<svg xmlns="http://www.w3.org/2000/svg" viewBox="-170 -160 340 320" font-family="Noto Sans CJK JP, sans-serif">
<!-- 外葉(萎れて変色) -->
    <path d="M -130 35 Q -150 -10 -140 -55 Q -105 -85 -72 -73 Q -68 -28 -78 8 Q -88 55 -118 70 Q -135 62 -130 35 Z" fill="#A8A058"/>
    <!-- 葉先の枯れ -->
    <path d="M -148 -25 Q -135 -40 -118 -32 Q -120 -15 -135 -10 Z" fill="#7A4A1F" opacity="0.65"/>

    <path d="M 130 35 Q 150 -10 140 -55 Q 105 -85 72 -73 Q 68 -28 78 8 Q 88 55 118 70 Q 135 62 130 35 Z" fill="#A8A058"/>
    <path d="M 148 -25 Q 135 -40 118 -32 Q 120 -15 135 -10 Z" fill="#7A4A1F" opacity="0.65"/>

    <!-- 本体球(くすんだ黄緑) -->
    <ellipse cx="0" cy="0" rx="113" ry="108" fill="#C5C295"/>

    <!-- 茶色のシミ -->
    <ellipse cx="-30" cy="-20" rx="14" ry="10" fill="#8B5A30" opacity="0.55"/>
    <ellipse cx="40" cy="30" rx="12" ry="8" fill="#8B5A30" opacity="0.5"/>
    <ellipse cx="-5" cy="60" rx="16" ry="9" fill="#8B5A30" opacity="0.5"/>

    <!-- 重なり線(雑) -->
    <path d="M 0 -105 Q -25 -75 -45 -25 Q -55 25 -35 90" stroke="#5D4E37" stroke-width="1.5" fill="none" opacity="0.6"/>
    <path d="M 0 -105 Q 25 -75 45 -25 Q 55 25 35 90" stroke="#5D4E37" stroke-width="1.5" fill="none" opacity="0.6"/>
    <path d="M 0 -108 Q 0 -50 0 100" stroke="#5D4E37" stroke-width="1.3" fill="none" opacity="0.5"/>

    <!-- 黒い斑点 -->
    <circle cx="-50" cy="40" r="3" fill="#2A2820" opacity="0.7"/>
    <circle cx="35" cy="-30" r="2.5" fill="#2A2820" opacity="0.65"/>

    <!-- 輪郭 -->
    <ellipse cx="0" cy="0" rx="113" ry="108" stroke="#3D2817" stroke-width="3" fill="none"/>
    <path d="M -130 35 Q -150 -10 -140 -55 Q -105 -85 -72 -73 Q -68 -28 -78 8 Q -88 55 -118 70 Q -135 62 -130 35 Z" stroke="#3D2817" stroke-width="3" fill="none"/>
    <path d="M 130 35 Q 150 -10 140 -55 Q 105 -85 72 -73 Q 68 -28 78 8 Q 88 55 118 70 Q 135 62 130 35 Z" stroke="#3D2817" stroke-width="3" fill="none"/>
</svg>
