<svg xmlns="http://www.w3.org/2000/svg" viewBox="-140 -130 280 270" font-family="Noto Sans CJK JP, sans-serif">
<defs>
      <radialGradient id="wcBodyCabbage" cx="35%" cy="25%"><stop offset="0%" stop-color="#D4E8B5" stop-opacity="0.95"/><stop offset="40%" stop-color="#9BCB7A" stop-opacity="0.9"/><stop offset="80%" stop-color="#5D8F3D" stop-opacity="0.85"/><stop offset="100%" stop-color="#2C5F2D" stop-opacity="0.65"/></radialGradient>
      <radialGradient id="wcLeafCabbage" cx="50%" cy="20%"><stop offset="0%" stop-color="#9BCB7A" stop-opacity="0.9"/><stop offset="60%" stop-color="#5D8F3D" stop-opacity="0.7"/><stop offset="100%" stop-color="#2C5F2D" stop-opacity="0.5"/></radialGradient>
      <filter id="wcRoughCabbage" x="-10%" y="-10%" width="120%" height="120%">
        <feTurbulence baseFrequency="0.04" numOctaves="3" seed="29"/>
        <feDisplacementMap in="SourceGraphic" scale="4"/>
      </filter>
      <filter id="wcBlurCabbage"><feGaussianBlur stdDeviation="1.5"/></filter>
    </defs>
    <g filter="url(#wcBlurCabbage)" opacity="0.4"><ellipse cx="0" cy="0" rx="110" ry="100" fill="#9BCB7A"/></g>
    
    <g filter="url(#wcRoughCabbage)"><path d="M 0 -100 Q -100 -90 -100 -10 Q -100 80 0 100 Q 100 80 100 -10 Q 100 -90 0 -100 Z" fill="url(#wcBodyCabbage)"/></g>
    
    <g stroke="#3D2817" stroke-width="3" fill="none" stroke-linecap="round" stroke-linejoin="round" opacity="0.9"><path d="M 0 -100 Q -100 -90 -100 -10 Q -100 80 0 100 Q 100 80 100 -10 Q 100 -90 0 -100 Z"/><path d="M -85 -30 Q 0 -20 85 -30" opacity="0.7" stroke-width="1.8"/><path d="M -90 0 Q 0 10 90 0" opacity="0.7" stroke-width="1.8"/><path d="M -85 30 Q 0 40 85 30" opacity="0.7" stroke-width="1.8"/><path d="M 0 -95 L 0 50" opacity="0.6" stroke-width="1.5"/><path d="M -50 -90 Q -55 -10 -45 75" opacity="0.5" stroke-width="1.3"/><path d="M 50 -90 Q 55 -10 45 75" opacity="0.5" stroke-width="1.3"/></g>
</svg>
