<svg xmlns="http://www.w3.org/2000/svg" viewBox="0 0 400 400" opacity="0.9">
  <defs>
    <radialGradient id="cabbage-aura-ok" cx="50%" cy="55%" r="55%">
      <stop offset="0%" stop-color="#C5E1A5" stop-opacity="0.5"/>
      <stop offset="100%" stop-color="#C5E1A5" stop-opacity="0"/>
    </radialGradient>
    <radialGradient id="cabbage-body-ok" cx="40%" cy="35%" r="75%">
      <stop offset="0%" stop-color="#F0F8DC"/>
      <stop offset="55%" stop-color="#A8C97C"/>
      <stop offset="100%" stop-color="#6B8E3D"/>
    </radialGradient>
    <radialGradient id="cabbage-outer-ok" cx="50%" cy="50%" r="60%">
      <stop offset="0%" stop-color="#7FA856"/>
      <stop offset="100%" stop-color="#4A6B2A"/>
    </radialGradient>
  </defs>

  <ellipse cx="200" cy="220" rx="180" ry="160" fill="url(#cabbage-aura-ok)"/>

  <!-- 外葉(左) -->
  <path d="M 70 250 Q 50 220 60 180 Q 80 145 130 140 Q 145 175 140 220 Q 125 265 90 280 Q 70 275 70 250 Z"
        fill="url(#cabbage-outer-ok)" stroke="#3D2817" stroke-width="3" stroke-linejoin="round"/>
  <path d="M 95 270 Q 100 220 115 165" fill="none" stroke="#F0FAD8" stroke-width="2.5" stroke-linecap="round" opacity="0.85"/>
  <path d="M 95 270 Q 80 240 70 215" fill="none" stroke="#F0FAD8" stroke-width="1.5" stroke-linecap="round" opacity="0.65"/>
  <path d="M 95 270 Q 110 245 125 220" fill="none" stroke="#F0FAD8" stroke-width="1.5" stroke-linecap="round" opacity="0.65"/>

  <!-- 外葉(右) -->
  <path d="M 320 240 Q 345 215 340 175 Q 320 145 280 145 Q 265 180 270 220 Q 285 260 310 275 Q 325 270 320 240 Z"
        fill="url(#cabbage-outer-ok)" stroke="#3D2817" stroke-width="3" stroke-linejoin="round"/>
  <path d="M 305 270 Q 295 220 285 170" fill="none" stroke="#F0FAD8" stroke-width="2.5" stroke-linecap="round" opacity="0.85"/>
  <path d="M 305 270 Q 320 245 335 220" fill="none" stroke="#F0FAD8" stroke-width="1.5" stroke-linecap="round" opacity="0.65"/>

  <!-- 本体球 -->
  <ellipse cx="200" cy="215" rx="125" ry="120" fill="url(#cabbage-body-ok)" stroke="#3D2817" stroke-width="3"/>

  <!-- 葉の重なり(白系で同じ葉脈) -->
  <path d="M 200 110 Q 175 140 155 195 Q 145 245 165 305" fill="none" stroke="#FFFFFF" stroke-width="2.5" stroke-linecap="round" opacity="0.75"/>
  <path d="M 200 110 Q 225 140 245 195 Q 255 245 235 305" fill="none" stroke="#FFFFFF" stroke-width="2.5" stroke-linecap="round" opacity="0.75"/>
  <path d="M 200 105 Q 200 175 200 320" fill="none" stroke="#FFFFFF" stroke-width="2" stroke-linecap="round" opacity="0.6"/>

  <!-- 横方向葉脈 -->
  <path d="M 110 195 Q 145 175 195 160" fill="none" stroke="#FFFFFF" stroke-width="1.8" stroke-linecap="round" opacity="0.55"/>
  <path d="M 115 250 Q 150 250 195 250" fill="none" stroke="#FFFFFF" stroke-width="1.8" stroke-linecap="round" opacity="0.55"/>
  <path d="M 290 195 Q 255 175 205 160" fill="none" stroke="#FFFFFF" stroke-width="1.8" stroke-linecap="round" opacity="0.55"/>
  <path d="M 285 250 Q 250 250 205 250" fill="none" stroke="#FFFFFF" stroke-width="1.8" stroke-linecap="round" opacity="0.55"/>

  <!-- 上部頂点 -->
  <path d="M 195 110 Q 200 100 205 110" fill="#6B8E3D" stroke="#3D2817" stroke-width="2.5" stroke-linejoin="round"/>

  <!-- ハイライト強化 -->
  <ellipse cx="155" cy="155" rx="45" ry="28" fill="#FFFFFF" opacity="0.4" transform="rotate(-25 155 155)"/>
  <ellipse cx="170" cy="135" rx="20" ry="12" fill="#FFFFFF" opacity="0.55" transform="rotate(-25 170 135)"/>

  <ellipse cx="200" cy="345" rx="120" ry="12" fill="#3D2817" opacity="0.12"/>
</svg>
