<svg xmlns="http://www.w3.org/2000/svg" viewBox="-130 -230 260 440" font-family="Noto Sans CJK JP, sans-serif">
<!-- Watercolor defs (carrot-specific) -->
    <defs>
      <radialGradient id="wcBodyCarrot" cx="35%" cy="25%">
        <stop offset="0%" stop-color="#FFD9B0" stop-opacity="0.95"/>
        <stop offset="40%" stop-color="#FFB07A" stop-opacity="0.9"/>
        <stop offset="80%" stop-color="#FF8C42" stop-opacity="0.85"/>
        <stop offset="100%" stop-color="#D45F1A" stop-opacity="0.7"/>
      </radialGradient>
      <radialGradient id="wcLeafCarrot" cx="50%" cy="20%">
        <stop offset="0%" stop-color="#9BCB7A" stop-opacity="0.9"/>
        <stop offset="60%" stop-color="#5D8F3D" stop-opacity="0.7"/>
        <stop offset="100%" stop-color="#2C5F2D" stop-opacity="0.5"/>
      </radialGradient>
      <filter id="wcRoughCarrot" x="-10%" y="-10%" width="120%" height="120%">
        <feTurbulence baseFrequency="0.04" numOctaves="3" seed="3"/>
        <feDisplacementMap in="SourceGraphic" scale="4"/>
      </filter>
      <filter id="wcBlurCarrot">
        <feGaussianBlur stdDeviation="1.5"/>
      </filter>
    </defs>

    <!-- Watercolor bleeds (背景) -->
    <g filter="url(#wcBlurCarrot)" opacity="0.4">
      <ellipse cx="0" cy="-180" rx="40" ry="30" fill="#9BCB7A"/>
      <ellipse cx="-5" cy="-30" rx="65" ry="100" fill="#FFB07A"/>
      <ellipse cx="5" cy="130" rx="40" ry="40" fill="#E07020"/>
    </g>

    <!-- Watercolor leaves (small ferny tuft) -->
    <g filter="url(#wcRoughCarrot)" opacity="0.8">
      <path d="M -22 -150 Q -28 -198 -10 -212 Q 0 -190 -5 -148" fill="url(#wcLeafCarrot)"/>
      <path d="M -8 -150 Q -5 -204 10 -215 Q 20 -195 14 -148" fill="url(#wcLeafCarrot)"/>
      <path d="M 14 -150 Q 22 -198 32 -195 Q 32 -178 24 -148" fill="url(#wcLeafCarrot)"/>
    </g>

    <!-- Watercolor body (carrot shape) -->
    <g filter="url(#wcRoughCarrot)">
      <path d="M -45 -150 Q -50 -130 -50 -100 L -25 100 Q -10 150 0 170 Q 10 150 25 100 L 50 -100 Q 50 -130 45 -150 Q 0 -160 -45 -150 Z" fill="url(#wcBodyCarrot)"/>
    </g>

    <!-- Strong ink lines (Pattern A: 線はっきり) -->
    <g stroke="#3D2817" stroke-width="3" fill="none" stroke-linecap="round" stroke-linejoin="round" opacity="0.9">
      <!-- Body outline -->
      <path d="M -45 -150 Q -50 -130 -50 -100 L -25 100 Q -10 150 0 170 Q 10 150 25 100 L 50 -100 Q 50 -130 45 -150 Q 0 -160 -45 -150 Z"/>
      <!-- Top cut (首の切り口を強調) -->
      <path d="M -45 -150 Q 0 -158 45 -150"/>
      <!-- Leaf outlines -->
      <path d="M -22 -150 Q -28 -198 -10 -212"/>
      <path d="M -10 -212 Q 0 -190 -5 -148"/>
      <path d="M -8 -150 Q -5 -204 10 -215"/>
      <path d="M 10 -215 Q 20 -195 14 -148"/>
      <path d="M 14 -150 Q 22 -198 32 -195"/>
      <path d="M 32 -195 Q 32 -178 24 -148"/>
      <!-- Subtle horizontal texture lines -->
      <path d="M -42 -100 Q 0 -95 42 -100" opacity="0.7"/>
      <path d="M -36 -50 Q 0 -45 36 -50" opacity="0.7"/>
      <path d="M -28 0 Q 0 5 28 0" opacity="0.7"/>
      <path d="M -20 50 Q 0 55 20 50" opacity="0.7"/>
    </g>
</svg>
