<svg xmlns="http://www.w3.org/2000/svg" viewBox="-130 -110 260 220" font-family="Noto Sans CJK JP, sans-serif">
<path d="M -90 -45 Q -100 0 -90 50 Q 0 75 90 50 Q 100 0 90 -45 Q 0 -65 -90 -45 Z" fill="#A88078"/><ellipse cx="-30" cy="0" rx="25" ry="18" fill="#5D4E37" opacity="0.35"/><ellipse cx="35" cy="15" rx="18" ry="12" fill="#5D4E37" opacity="0.35"/><ellipse cx="0" cy="70" rx="50" ry="8" fill="#A05050" opacity="0.4"/>
  
    <!-- animal-icon: chicken (head profile, red comb + yellow beak) -->
    <g transform="translate(88, 72)" data-icon="chicken">
      <circle cx="0" cy="0" r="38" fill="#FFFFFF" fill-opacity="0.96" stroke="#3D2817" stroke-width="2"/>
      <path d="M -14 -14 Q -10 -25 -4 -17 Q 1 -28 7 -17 Q 13 -25 16 -14 Z" fill="#D03030" stroke="#3D2817" stroke-width="1.5" stroke-linejoin="round"/>
      <ellipse cx="-3" cy="3" rx="20" ry="17" fill="#FFF4C8" stroke="#3D2817" stroke-width="2"/>
      <path d="M 16 0 L 31 3 L 16 9 Z" fill="#F4A030" stroke="#3D2817" stroke-width="1.5" stroke-linejoin="round"/>
      <ellipse cx="17" cy="14" rx="3.5" ry="5" fill="#D03030" stroke="#3D2817" stroke-width="1.3"/>
      <circle cx="4" cy="-2" r="2.5" fill="#3D2817"/>
    </g>
</svg>
