<svg xmlns="http://www.w3.org/2000/svg" viewBox="-130 -110 260 220" font-family="Noto Sans CJK JP, sans-serif">
<defs>
      <radialGradient id="wcBodyChicken" cx="35%" cy="25%"><stop offset="0%" stop-color="#FCD8D0" stop-opacity="0.95"/><stop offset="40%" stop-color="#F8AAA0" stop-opacity="0.9"/><stop offset="80%" stop-color="#E07770" stop-opacity="0.85"/><stop offset="100%" stop-color="#A0463F" stop-opacity="0.65"/></radialGradient>
      <radialGradient id="wcLeafChicken" cx="50%" cy="20%"><stop offset="0%" stop-color="#9BCB7A" stop-opacity="0.9"/><stop offset="60%" stop-color="#5D8F3D" stop-opacity="0.7"/><stop offset="100%" stop-color="#2C5F2D" stop-opacity="0.5"/></radialGradient>
      <filter id="wcRoughChicken" x="-10%" y="-10%" width="120%" height="120%">
        <feTurbulence baseFrequency="0.04" numOctaves="3" seed="19"/>
        <feDisplacementMap in="SourceGraphic" scale="4"/>
      </filter>
      <filter id="wcBlurChicken"><feGaussianBlur stdDeviation="1.5"/></filter>
    </defs>
    <g filter="url(#wcBlurChicken)" opacity="0.4"><ellipse cx="0" cy="0" rx="110" ry="70" fill="#F8AAA0"/></g>
    
    <g filter="url(#wcRoughChicken)"><path d="M -90 -45 Q -100 0 -90 50 Q 0 75 90 50 Q 100 0 90 -45 Q 0 -65 -90 -45 Z" fill="url(#wcBodyChicken)"/></g>
    
    <g stroke="#3D2817" stroke-width="3" fill="none" stroke-linecap="round" stroke-linejoin="round" opacity="0.9"><path d="M -90 -45 Q -100 0 -90 50 Q 0 75 90 50 Q 100 0 90 -45 Q 0 -65 -90 -45 Z"/><path d="M -75 -25 Q 0 -20 75 -25" opacity="0.6" stroke-width="1.5"/><path d="M -78 0 Q 0 5 78 0" opacity="0.6" stroke-width="1.5"/><path d="M -72 25 Q 0 30 72 25" opacity="0.6" stroke-width="1.5"/><path d="M -40 -10 L -38 -8" opacity="0.7" stroke-width="2.5"/><path d="M 30 5 L 32 7" opacity="0.7" stroke-width="2.5"/><path d="M 0 -30 L 2 -28" opacity="0.7" stroke-width="2.5"/></g>
  
    <!-- animal-icon: chicken (head profile, red comb + yellow beak) -->
    <g transform="translate(88, 72)" data-icon="chicken">
      <circle cx="0" cy="0" r="38" fill="#FFFFFF" fill-opacity="0.96" stroke="#3D2817" stroke-width="2"/>
      <path d="M -14 -14 Q -10 -25 -4 -17 Q 1 -28 7 -17 Q 13 -25 16 -14 Z" fill="#D03030" stroke="#3D2817" stroke-width="1.5" stroke-linejoin="round"/>
      <ellipse cx="-3" cy="3" rx="20" ry="17" fill="#FFF4C8" stroke="#3D2817" stroke-width="2"/>
      <path d="M 16 0 L 31 3 L 16 9 Z" fill="#F4A030" stroke="#3D2817" stroke-width="1.5" stroke-linejoin="round"/>
      <ellipse cx="17" cy="14" rx="3.5" ry="5" fill="#D03030" stroke="#3D2817" stroke-width="1.3"/>
      <circle cx="4" cy="-2" r="2.5" fill="#3D2817"/>
    </g>
</svg>
