<svg xmlns="http://www.w3.org/2000/svg" viewBox="-240 -65 480 130" font-family="Noto Sans CJK JP, sans-serif">
<defs>
      <linearGradient id="wcBodyCucumber" x1="0" y1="0" x2="0" y2="1">
        <stop offset="0%" stop-color="#9BCB7A" stop-opacity="0.9"/>
        <stop offset="40%" stop-color="#7AB048" stop-opacity="0.85"/>
        <stop offset="100%" stop-color="#3D6020" stop-opacity="0.75"/>
      </linearGradient>
      <filter id="wcRoughCucumber" x="-10%" y="-10%" width="120%" height="120%">
        <feTurbulence baseFrequency="0.05" numOctaves="3" seed="17"/>
        <feDisplacementMap in="SourceGraphic" scale="3"/>
      </filter>
      <filter id="wcBlurCucumber">
        <feGaussianBlur stdDeviation="1.5"/>
      </filter>
    </defs>

    <!-- Watercolor bleeds -->
    <g filter="url(#wcBlurCucumber)" opacity="0.4">
      <ellipse cx="0" cy="0" rx="180" ry="55" fill="#7AB048"/>
      <ellipse cx="0" cy="-15" rx="160" ry="35" fill="#9BCB7A"/>
    </g>

    <!-- 本体: 横長、両端細め、軽く湾曲 -->
    <g filter="url(#wcRoughCucumber)">
      <path d="M -210 0
               Q -205 -32 -150 -42
               Q -50 -50 50 -48
               Q 130 -45 175 -38
               Q 200 -25 205 0
               Q 200 25 175 38
               Q 130 45 50 48
               Q -50 50 -150 42
               Q -205 32 -210 0 Z" fill="url(#wcBodyCucumber)"/>
    </g>

    <!-- Strong ink lines -->
    <g stroke="#3D2817" stroke-width="3" fill="none" stroke-linecap="round" stroke-linejoin="round" opacity="0.9">
      <!-- 本体輪郭 -->
      <path d="M -210 0 Q -205 -32 -150 -42 Q -50 -50 50 -48 Q 130 -45 175 -38 Q 200 -25 205 0 Q 200 25 175 38 Q 130 45 50 48 Q -50 50 -150 42 Q -205 32 -210 0 Z"/>
      <!-- ヘタ(花落ち、左) -->
      <path d="M -210 -5 L -228 -5 L -225 -12 L -228 0 L -225 7 L -228 5 L -210 5"/>
      <!-- ヘタ(蔕、右、緑の濃い) -->
      <path d="M 205 -5 Q 220 -8 220 0 Q 220 8 205 5" fill="#3D6020" stroke="#3D2817" stroke-width="2"/>
      <!-- 縦の白い線(きゅうりの特徴) -->
      <path d="M -150 -28 Q 0 -30 150 -28" opacity="0.6"/>
      <path d="M -160 0 Q 0 -2 160 0" opacity="0.55"/>
      <path d="M -150 28 Q 0 30 150 28" opacity="0.6"/>
    </g>

    <!-- イボ(きゅうり最大の特徴、凸の小点) -->
    <g fill="#3D6020" stroke="#3D2817" stroke-width="1.8">
      <ellipse cx="-130" cy="-30" rx="3.5" ry="2.5"/>
      <ellipse cx="-95" cy="-35" rx="3.5" ry="2.5"/>
      <ellipse cx="-55" cy="-38" rx="3.5" ry="2.5"/>
      <ellipse cx="-15" cy="-40" rx="3.5" ry="2.5"/>
      <ellipse cx="25" cy="-40" rx="3.5" ry="2.5"/>
      <ellipse cx="65" cy="-38" rx="3.5" ry="2.5"/>
      <ellipse cx="105" cy="-35" rx="3.5" ry="2.5"/>
      <ellipse cx="140" cy="-30" rx="3.5" ry="2.5"/>
      <!-- 上段(ずらして配置) -->
      <ellipse cx="-115" cy="-20" rx="3" ry="2"/>
      <ellipse cx="-75" cy="-22" rx="3" ry="2"/>
      <ellipse cx="-35" cy="-25" rx="3" ry="2"/>
      <ellipse cx="5" cy="-26" rx="3" ry="2"/>
      <ellipse cx="45" cy="-26" rx="3" ry="2"/>
      <ellipse cx="85" cy="-24" rx="3" ry="2"/>
      <ellipse cx="125" cy="-22" rx="3" ry="2"/>
    </g>

    <!-- ブルーム(白い粉、新鮮さの証) -->
    <g fill="#FFFFFF">
      <ellipse cx="-90" cy="-5" rx="22" ry="10" opacity="0.3"/>
      <ellipse cx="0" cy="-10" rx="35" ry="14" opacity="0.35"/>
      <ellipse cx="90" cy="-5" rx="22" ry="10" opacity="0.3"/>
    </g>
</svg>
