<svg xmlns="http://www.w3.org/2000/svg" viewBox="-110 -250 220 440" font-family="Noto Sans CJK JP, sans-serif">
<!-- Leaves (vibrant green) -->
    <g transform="translate(-100, -150)">
      <path d="M 0 0 Q -25 -50 -15 -90 Q -5 -60 5 -50 Q 15 -90 25 -50 Q 30 -20 10 0 Z" fill="#4A7C2E"/>
      <path d="M 30 0 Q 20 -45 35 -85 Q 45 -50 55 -45 Q 65 -85 70 -40 Q 70 -10 50 5 Z" fill="#5D8F3D"/>
      <path d="M 60 0 Q 60 -40 80 -75 Q 88 -45 95 -40 Q 105 -75 105 -30 Q 100 -5 80 5 Z" fill="#4A7C2E"/>
    </g>
    
    <!-- White root (clean, smooth) -->
    <path d="M -50 -150 L 50 -150 Q 60 -150 60 -130 L 55 100 Q 50 130 0 140 Q -50 130 -55 100 L -60 -130 Q -60 -150 -50 -150 Z" fill="#FAFAF8"/>
    <ellipse cx="0" cy="-150" rx="50" ry="8" fill="#E8E8E0"/>
    <!-- Highlight -->
    <ellipse cx="-25" cy="-30" rx="10" ry="80" fill="#FFFFFF" opacity="0.6"/>
    <!-- Tiny straight hair roots (aligned) -->
    <line x1="-30" y1="-50" x2="-32" y2="-46" stroke="#999" stroke-width="1"/>
    <line x1="-30" y1="-20" x2="-32" y2="-16" stroke="#999" stroke-width="1"/>
    <line x1="-30" y1="10" x2="-32" y2="14" stroke="#999" stroke-width="1"/>
    <line x1="-30" y1="40" x2="-32" y2="44" stroke="#999" stroke-width="1"/>
    <line x1="-30" y1="70" x2="-32" y2="74" stroke="#999" stroke-width="1"/>
    <!-- Pointy tip -->
    <path d="M -55 100 Q 0 150 55 100 Q 30 175 0 180 Q -30 175 -55 100 Z" fill="#F0F0E8"/>
</svg>
