<svg xmlns="http://www.w3.org/2000/svg" viewBox="-210 -130 420 250" font-family="Noto Sans CJK JP, sans-serif">
<!-- 本体(くすんだ色) -->
    <path d="M -160 -30
             Q -180 -10 -175 15
             Q -170 40 -150 50
             Q -130 60 -110 55
             Q -100 50 -95 35
             Q -85 30 -75 35
             Q -50 50 -10 55
             Q 30 58 70 50
             Q 105 38 125 18
             Q 140 0 142 -15
             L 168 -35
             L 175 -10
             L 168 15
             L 142 -8
             Q 138 -30 120 -45
             Q 95 -60 60 -65
             Q 20 -68 -25 -60
             Q -65 -52 -100 -42
             Q -125 -38 -140 -38
             Q -155 -38 -160 -30 Z" fill="#783820"/>

    <!-- 頭の部分が黒ずむ(エビNGの最大ポイント) -->
    <g fill="#1F1408" opacity="0.7">
      <path d="M -160 -30
               Q -180 -10 -175 15
               Q -170 40 -150 50
               Q -130 60 -110 55
               Q -100 50 -95 35
               L -100 -42
               Q -125 -38 -140 -38
               Q -155 -38 -160 -30 Z"/>
    </g>

    <!-- 触覚(折れて短い) -->
    <g stroke="#3D2817" stroke-width="1.8" fill="none" stroke-linecap="round">
      <path d="M -155 -32 Q -170 -50 -175 -65"/>
      <path d="M -148 -38 Q -160 -55 -165 -70"/>
    </g>

    <!-- 目(濁る) -->
    <circle cx="-150" cy="-5" r="5" fill="#5A4A30"/>

    <!-- 体節の境界線 -->
    <g stroke="#3D2817" stroke-width="2" fill="none" stroke-linecap="round" opacity="0.65">
      <path d="M -55 -62 Q -55 -10 -55 35"/>
      <path d="M -20 -65 Q -20 -10 -15 38"/>
      <path d="M 20 -65 Q 22 -10 28 38"/>
      <path d="M 60 -60 Q 65 -10 75 30"/>
    </g>

    <!-- 殻の黒い斑点(NG) -->
    <ellipse cx="-30" cy="-10" rx="6" ry="5" fill="#1F1408" opacity="0.7"/>
    <ellipse cx="20" cy="0" rx="7" ry="5" fill="#1F1408" opacity="0.7"/>
    <ellipse cx="65" cy="-15" rx="5" ry="4" fill="#1F1408" opacity="0.65"/>

    <!-- 輪郭 -->
    <path d="M -160 -30 Q -180 -10 -175 15 Q -170 40 -150 50 Q -130 60 -110 55 Q -100 50 -95 35 Q -85 30 -75 35 Q -50 50 -10 55 Q 30 58 70 50 Q 105 38 125 18 Q 140 0 142 -15 L 168 -35 L 175 -10 L 168 15 L 142 -8 Q 138 -30 120 -45 Q 95 -60 60 -65 Q 20 -68 -25 -60 Q -65 -52 -100 -42 Q -125 -38 -140 -38 Q -155 -38 -160 -30 Z" stroke="#3D2817" stroke-width="3" fill="none"/>

    <!-- 脚 -->
    <g stroke="#3D2817" stroke-width="1.5" fill="none" stroke-linecap="round">
      <path d="M -100 50 Q -105 65 -108 78"/>
      <path d="M -75 55 Q -78 70 -78 82"/>
      <path d="M -45 58 Q -45 73 -42 85"/>
      <path d="M -10 60 Q -8 75 -5 87"/>
      <path d="M 30 58 Q 32 72 35 84"/>
      <path d="M 65 52 Q 68 65 70 78"/>
    </g>

    <ellipse cx="0" cy="105" rx="160" ry="6" fill="#3D2817" opacity="0.1"/>
</svg>
