<svg xmlns="http://www.w3.org/2000/svg" viewBox="-130 -120 260 240" font-family="Noto Sans CJK JP, sans-serif">
<defs>
      <radialGradient id="wcBodyEbi" cx="35%" cy="25%"><stop offset="0%" stop-color="#F0DCD0" stop-opacity="0.95"/><stop offset="40%" stop-color="#D0A898" stop-opacity="0.9"/><stop offset="80%" stop-color="#A07060" stop-opacity="0.85"/><stop offset="100%" stop-color="#604040" stop-opacity="0.65"/></radialGradient>
      <radialGradient id="wcLeafEbi" cx="50%" cy="20%"><stop offset="0%" stop-color="#9BCB7A" stop-opacity="0.9"/><stop offset="60%" stop-color="#5D8F3D" stop-opacity="0.7"/><stop offset="100%" stop-color="#2C5F2D" stop-opacity="0.5"/></radialGradient>
      <filter id="wcRoughEbi" x="-10%" y="-10%" width="120%" height="120%">
        <feTurbulence baseFrequency="0.04" numOctaves="3" seed="197"/>
        <feDisplacementMap in="SourceGraphic" scale="4"/>
      </filter>
      <filter id="wcBlurEbi"><feGaussianBlur stdDeviation="1.5"/></filter>
    </defs>
    <g filter="url(#wcBlurEbi)" opacity="0.4"><ellipse cx="0" cy="10" rx="110" ry="80" fill="#D0A898"/></g>
    
    <g filter="url(#wcRoughEbi)"><path d="M -85 -55 Q -115 -10 -100 50 Q -70 95 -10 95 Q 60 90 95 55 L 75 25 Q 55 0 15 5 Q -25 15 -55 -10 Q -75 -30 -85 -55 Z" fill="url(#wcBodyEbi)"/><path d="M 95 55 L 115 75 L 105 50 L 120 35 L 95 30 Z" fill="url(#wcBodyEbi)"/></g>
    <g stroke="#3D2817" stroke-width="3" fill="none" stroke-linecap="round" stroke-linejoin="round" opacity="0.9"><path d="M -85 -55 Q -115 -10 -100 50 Q -70 95 -10 95 Q 60 90 95 55 L 75 25 Q 55 0 15 5 Q -25 15 -55 -10 Q -75 -30 -85 -55 Z"/><path d="M 95 55 L 115 75 L 105 50 L 120 35 L 95 30"/><path d="M -88 -25 Q -75 -10 -60 -20" opacity="0.65" stroke-width="1.5"/><path d="M -100 5 Q -82 18 -65 5" opacity="0.65" stroke-width="1.5"/><path d="M -98 35 Q -75 48 -55 38" opacity="0.65" stroke-width="1.5"/><path d="M -75 70 Q -50 80 -25 70" opacity="0.65" stroke-width="1.5"/><path d="M -25 85 Q 5 90 30 80" opacity="0.65" stroke-width="1.5"/><path d="M 30 75 Q 55 78 80 65" opacity="0.65" stroke-width="1.5"/><path d="M -88 -55 Q -110 -75 -125 -100" opacity="0.85" stroke-width="2"/><path d="M -75 -55 Q -90 -80 -100 -110" opacity="0.7" stroke-width="1.8"/><path d="M -75 -45 m -3 0 a 3 3 0 1 0 6 0 a 3 3 0 1 0 -6 0 Z" opacity="0.95" stroke-width="2"/><path d="M -90 50 L -95 75" opacity="0.65" stroke-width="1.5"/><path d="M -55 80 L -55 100" opacity="0.65" stroke-width="1.5"/><path d="M -15 90 L -10 110" opacity="0.65" stroke-width="1.5"/><path d="M 30 88 L 35 108" opacity="0.65" stroke-width="1.5"/></g>
</svg>
