<svg xmlns="http://www.w3.org/2000/svg" viewBox="-120 -150 240 290" font-family="Noto Sans CJK JP, sans-serif">
<!-- 上から伸びた緑の芽 -->
    <g stroke="#7AAB45" stroke-width="3" fill="none" stroke-linecap="round">
      <path d="M -5 -150 Q -10 -180 -16 -205"/>
      <path d="M 0 -152 Q 0 -185 -2 -215"/>
      <path d="M 5 -150 Q 12 -180 18 -205"/>
    </g>
    <path d="M -5 -150 Q 0 -160 5 -150 L 4 -135 Q 0 -133 -4 -135 Z" fill="#8A6028" stroke="#3D2817" stroke-width="2"/>

    <!-- 本体(くすんだ色) -->
    <path d="M 0 -135 Q -15 -132 -25 -120 Q -45 -95 -65 -55 Q -90 -5 -100 50 Q -100 95 -85 115 Q -75 120 -65 110 Q -50 122 -35 115 Q -20 125 -8 117 Q 0 130 8 117 Q 20 125 35 115 Q 50 122 65 110 Q 75 120 85 115 Q 100 95 100 50 Q 90 -5 65 -55 Q 45 -95 25 -120 Q 15 -132 0 -135 Z" fill="#D8C898"/>

    <!-- 鱗片の縦線 -->
    <g stroke="#5A3A15" stroke-width="2.5" fill="none" stroke-linecap="round" opacity="0.7">
      <path d="M -65 110 Q -45 30 -18 -125"/>
      <path d="M -35 115 Q -20 30 -3 -132"/>
      <path d="M 35 115 Q 20 30 3 -132"/>
      <path d="M 65 110 Q 45 30 18 -125"/>
    </g>

    <!-- 茶色のシミ(下のお尻部分に多め) -->
    <ellipse cx="-50" cy="30" rx="13" ry="16" fill="#7A4A1F" opacity="0.65"/>
    <ellipse cx="-48" cy="25" rx="6" ry="8" fill="#5A3215" opacity="0.75"/>
    <ellipse cx="42" cy="60" rx="11" ry="14" fill="#7A4A1F" opacity="0.6"/>
    <ellipse cx="-15" cy="80" rx="13" ry="9" fill="#7A4A1F" opacity="0.55"/>
    <circle cx="50" cy="-10" r="3" fill="#2A1F15" opacity="0.7"/>
    <circle cx="-25" cy="100" r="2.5" fill="#2A1F15" opacity="0.65"/>

    <!-- 輪郭 -->
    <path d="M 0 -135 Q -15 -132 -25 -120 Q -45 -95 -65 -55 Q -90 -5 -100 50 Q -100 95 -85 115 Q -75 120 -65 110 Q -50 122 -35 115 Q -20 125 -8 117 Q 0 130 8 117 Q 20 125 35 115 Q 50 122 65 110 Q 75 120 85 115 Q 100 95 100 50 Q 90 -5 65 -55 Q 45 -95 25 -120 Q 15 -132 0 -135 Z" stroke="#3D2817" stroke-width="3" fill="none"/>
</svg>
