<svg xmlns="http://www.w3.org/2000/svg" viewBox="-110 -160 220 280" font-family="Noto Sans CJK JP, sans-serif">
<defs>
      <radialGradient id="wcBodyGarlic" cx="35%" cy="25%"><stop offset="0%" stop-color="#FFFFFF" stop-opacity="0.95"/><stop offset="40%" stop-color="#F5EFE0" stop-opacity="0.85"/><stop offset="80%" stop-color="#E0D5B0" stop-opacity="0.7"/><stop offset="100%" stop-color="#B89870" stop-opacity="0.5"/></radialGradient>
      <radialGradient id="wcLeafGarlic" cx="50%" cy="20%"><stop offset="0%" stop-color="#9BCB7A" stop-opacity="0.9"/><stop offset="60%" stop-color="#5D8F3D" stop-opacity="0.7"/><stop offset="100%" stop-color="#2C5F2D" stop-opacity="0.5"/></radialGradient>
      <filter id="wcRoughGarlic" x="-10%" y="-10%" width="120%" height="120%">
        <feTurbulence baseFrequency="0.04" numOctaves="3" seed="43"/>
        <feDisplacementMap in="SourceGraphic" scale="4"/>
      </filter>
      <filter id="wcBlurGarlic"><feGaussianBlur stdDeviation="1.5"/></filter>
    </defs>
    <g filter="url(#wcBlurGarlic)" opacity="0.4"><ellipse cx="0" cy="10" rx="80" ry="90" fill="#E0C088"/></g>
    
    <g filter="url(#wcRoughGarlic)"><path d="M -75 -30 Q -82 60 0 95 Q 82 60 75 -30 Q 70 -100 0 -115 Q -70 -100 -75 -30 Z" fill="url(#wcBodyGarlic)"/></g>
    <g stroke="#3D2817" stroke-width="3" fill="none" stroke-linecap="round" stroke-linejoin="round" opacity="0.9"><path d="M -75 -30 Q -82 60 0 95 Q 82 60 75 -30 Q 70 -100 0 -115 Q -70 -100 -75 -30 Z"/><path d="M -8 -115 L 0 -140 L 8 -115" opacity="0.7" stroke-width="2"/><path d="M -55 -85 Q -50 0 -55 90" opacity="0.6" stroke-width="1.4"/><path d="M -25 -100 Q -20 0 -25 95" opacity="0.6" stroke-width="1.4"/><path d="M 0 -115 L 0 95" opacity="0.5" stroke-width="1.4"/><path d="M 25 -100 Q 20 0 25 95" opacity="0.6" stroke-width="1.4"/><path d="M 55 -85 Q 50 0 55 90" opacity="0.6" stroke-width="1.4"/><path d="M -15 95 L -18 115" opacity="0.7" stroke-width="2"/><path d="M 0 98 L 0 120" opacity="0.7" stroke-width="2"/><path d="M 15 95 L 20 115" opacity="0.7" stroke-width="2"/></g>
</svg>
