<svg xmlns="http://www.w3.org/2000/svg" viewBox="-150 -100 300 200" font-family="Noto Sans CJK JP, sans-serif">
<defs>
      <radialGradient id="wcBodyGinger" cx="35%" cy="25%"><stop offset="0%" stop-color="#FFF5DC" stop-opacity="0.95"/><stop offset="40%" stop-color="#F0DEB0" stop-opacity="0.9"/><stop offset="80%" stop-color="#D4B880" stop-opacity="0.85"/><stop offset="100%" stop-color="#9A7848" stop-opacity="0.65"/></radialGradient>
      <radialGradient id="wcLeafGinger" cx="50%" cy="20%"><stop offset="0%" stop-color="#9BCB7A" stop-opacity="0.9"/><stop offset="60%" stop-color="#5D8F3D" stop-opacity="0.7"/><stop offset="100%" stop-color="#2C5F2D" stop-opacity="0.5"/></radialGradient>
      <filter id="wcRoughGinger" x="-10%" y="-10%" width="120%" height="120%">
        <feTurbulence baseFrequency="0.04" numOctaves="3" seed="73"/>
        <feDisplacementMap in="SourceGraphic" scale="4"/>
      </filter>
      <filter id="wcBlurGinger"><feGaussianBlur stdDeviation="1.5"/></filter>
    </defs>
    <g filter="url(#wcBlurGinger)" opacity="0.4"><ellipse cx="0" cy="0" rx="130" ry="60" fill="#D4B880"/></g>
    
    <g filter="url(#wcRoughGinger)"><path d="M -120 -20 Q -130 30 -90 50 Q -50 60 -30 30 Q -10 60 30 50 Q 80 70 100 30 Q 130 0 110 -30 Q 80 -55 50 -40 Q 20 -55 -10 -35 Q -50 -55 -90 -40 Q -130 -50 -120 -20 Z" fill="url(#wcBodyGinger)"/></g>
    <g stroke="#3D2817" stroke-width="3" fill="none" stroke-linecap="round" stroke-linejoin="round" opacity="0.9"><path d="M -120 -20 Q -130 30 -90 50 Q -50 60 -30 30 Q -10 60 30 50 Q 80 70 100 30 Q 130 0 110 -30 Q 80 -55 50 -40 Q 20 -55 -10 -35 Q -50 -55 -90 -40 Q -130 -50 -120 -20 Z"/><path d="M -60 -30 Q -55 0 -45 25" opacity="0.6" stroke-width="1.5"/><path d="M 0 -35 Q 5 0 -5 30" opacity="0.6" stroke-width="1.5"/><path d="M 50 -35 Q 60 0 65 30" opacity="0.6" stroke-width="1.5"/><path d="M -100 -10 Q -90 -5 -80 -15" opacity="0.5" stroke-width="1.3"/><path d="M 70 0 Q 90 5 105 -10" opacity="0.5" stroke-width="1.3"/></g>
</svg>
