<svg xmlns="http://www.w3.org/2000/svg" viewBox="-100 -150 200 280" font-family="Noto Sans CJK JP, sans-serif">
<defs>
      <radialGradient id="wcBodyGrape" cx="35%" cy="25%"><stop offset="0%" stop-color="#C8AED8" stop-opacity="0.95"/><stop offset="40%" stop-color="#8050C8" stop-opacity="0.9"/><stop offset="80%" stop-color="#5D2A6F" stop-opacity="0.85"/><stop offset="100%" stop-color="#3A1A50" stop-opacity="0.65"/></radialGradient>
      <radialGradient id="wcLeafGrape" cx="50%" cy="20%"><stop offset="0%" stop-color="#9BCB7A" stop-opacity="0.9"/><stop offset="60%" stop-color="#5D8F3D" stop-opacity="0.7"/><stop offset="100%" stop-color="#2C5F2D" stop-opacity="0.5"/></radialGradient>
      <filter id="wcRoughGrape" x="-10%" y="-10%" width="120%" height="120%">
        <feTurbulence baseFrequency="0.04" numOctaves="3" seed="137"/>
        <feDisplacementMap in="SourceGraphic" scale="4"/>
      </filter>
      <filter id="wcBlurGrape"><feGaussianBlur stdDeviation="1.5"/></filter>
    </defs>
    <g filter="url(#wcBlurGrape)" opacity="0.4"><ellipse cx="0" cy="30" rx="85" ry="105" fill="#7040A0"/></g>
    <g filter="url(#wcRoughGrape)" opacity="0.8"><path d="M -10 -110 L 0 -130 L 10 -110 Q 5 -100 -5 -100 Z" fill="url(#wcLeafGrape)"/></g>
    <g filter="url(#wcRoughGrape)"><path d="M 0 -100 m -22 0 a 22 22 0 1 0 44 0 a 22 22 0 1 0 -44 0 Z" fill="url(#wcBodyGrape)"/><path d="M -30 -65 m -22 0 a 22 22 0 1 0 44 0 a 22 22 0 1 0 -44 0 Z" fill="url(#wcBodyGrape)"/><path d="M 30 -65 m -22 0 a 22 22 0 1 0 44 0 a 22 22 0 1 0 -44 0 Z" fill="url(#wcBodyGrape)"/><path d="M -55 -25 m -22 0 a 22 22 0 1 0 44 0 a 22 22 0 1 0 -44 0 Z" fill="url(#wcBodyGrape)"/><path d="M 0 -25 m -22 0 a 22 22 0 1 0 44 0 a 22 22 0 1 0 -44 0 Z" fill="url(#wcBodyGrape)"/><path d="M 55 -25 m -22 0 a 22 22 0 1 0 44 0 a 22 22 0 1 0 -44 0 Z" fill="url(#wcBodyGrape)"/><path d="M -30 15 m -22 0 a 22 22 0 1 0 44 0 a 22 22 0 1 0 -44 0 Z" fill="url(#wcBodyGrape)"/><path d="M 30 15 m -22 0 a 22 22 0 1 0 44 0 a 22 22 0 1 0 -44 0 Z" fill="url(#wcBodyGrape)"/><path d="M 0 55 m -22 0 a 22 22 0 1 0 44 0 a 22 22 0 1 0 -44 0 Z" fill="url(#wcBodyGrape)"/><path d="M -25 90 m -18 0 a 18 18 0 1 0 36 0 a 18 18 0 1 0 -36 0 Z" fill="url(#wcBodyGrape)"/><path d="M 25 90 m -18 0 a 18 18 0 1 0 36 0 a 18 18 0 1 0 -36 0 Z" fill="url(#wcBodyGrape)"/><path d="M 0 120 m -15 0 a 15 15 0 1 0 30 0 a 15 15 0 1 0 -30 0 Z" fill="url(#wcBodyGrape)"/></g>
    
    <g stroke="#3D2817" stroke-width="3" fill="none" stroke-linecap="round" stroke-linejoin="round" opacity="0.9"><path d="M 0 -100 m -22 0 a 22 22 0 1 0 44 0 a 22 22 0 1 0 -44 0"/><path d="M -30 -65 m -22 0 a 22 22 0 1 0 44 0 a 22 22 0 1 0 -44 0"/><path d="M 30 -65 m -22 0 a 22 22 0 1 0 44 0 a 22 22 0 1 0 -44 0"/><path d="M -55 -25 m -22 0 a 22 22 0 1 0 44 0 a 22 22 0 1 0 -44 0"/><path d="M 0 -25 m -22 0 a 22 22 0 1 0 44 0 a 22 22 0 1 0 -44 0"/><path d="M 55 -25 m -22 0 a 22 22 0 1 0 44 0 a 22 22 0 1 0 -44 0"/><path d="M -30 15 m -22 0 a 22 22 0 1 0 44 0 a 22 22 0 1 0 -44 0"/><path d="M 30 15 m -22 0 a 22 22 0 1 0 44 0 a 22 22 0 1 0 -44 0"/><path d="M 0 55 m -22 0 a 22 22 0 1 0 44 0 a 22 22 0 1 0 -44 0"/><path d="M -25 90 m -18 0 a 18 18 0 1 0 36 0 a 18 18 0 1 0 -36 0"/><path d="M 25 90 m -18 0 a 18 18 0 1 0 36 0 a 18 18 0 1 0 -36 0"/><path d="M 0 120 m -15 0 a 15 15 0 1 0 30 0 a 15 15 0 1 0 -30 0"/><path d="M 0 -100 L 0 -130" opacity="0.85" stroke-width="2.5"/><path d="M -10 -110 L 0 -130 L 10 -110" opacity="0.85" stroke-width="2"/></g>
</svg>
