<svg xmlns="http://www.w3.org/2000/svg" viewBox="-100 -150 200 280" font-family="Noto Sans CJK JP, sans-serif">
<path d="M 0 -100 m -22 0 a 22 22 0 1 0 44 0 a 22 22 0 1 0 -44 0 Z" fill="#604050"/><path d="M -30 -65 m -22 0 a 22 22 0 1 0 44 0 a 22 22 0 1 0 -44 0 Z" fill="#604050"/><path d="M 30 -65 m -22 0 a 22 22 0 1 0 44 0 a 22 22 0 1 0 -44 0 Z" fill="#604050"/><path d="M -55 -25 m -22 0 a 22 22 0 1 0 44 0 a 22 22 0 1 0 -44 0 Z" fill="#604050"/><path d="M 0 -25 m -22 0 a 22 22 0 1 0 44 0 a 22 22 0 1 0 -44 0 Z" fill="#604050"/><path d="M 55 -25 m -22 0 a 22 22 0 1 0 44 0 a 22 22 0 1 0 -44 0 Z" fill="#604050"/><path d="M -30 15 m -22 0 a 22 22 0 1 0 44 0 a 22 22 0 1 0 -44 0 Z" fill="#604050"/><path d="M 30 15 m -22 0 a 22 22 0 1 0 44 0 a 22 22 0 1 0 -44 0 Z" fill="#604050"/><path d="M 0 -100 L 0 -130" stroke="#5D4E37" stroke-width="2" fill="none" opacity="0.7"/><path d="M -55 -25 Q -45 -10 -25 -5" stroke="#5D4E37" stroke-width="1.5" fill="none" opacity="0.5"/>
</svg>
