<svg xmlns="http://www.w3.org/2000/svg" viewBox="-130 -110 260 220" font-family="Noto Sans CJK JP, sans-serif">
<defs>
      <radialGradient id="wcBodyGround_meat" cx="35%" cy="25%"><stop offset="0%" stop-color="#FFD0C0" stop-opacity="0.95"/><stop offset="40%" stop-color="#F8907A" stop-opacity="0.9"/><stop offset="80%" stop-color="#C85040" stop-opacity="0.85"/><stop offset="100%" stop-color="#803020" stop-opacity="0.65"/></radialGradient>
      <radialGradient id="wcLeafGround_meat" cx="50%" cy="20%"><stop offset="0%" stop-color="#9BCB7A" stop-opacity="0.9"/><stop offset="60%" stop-color="#5D8F3D" stop-opacity="0.7"/><stop offset="100%" stop-color="#2C5F2D" stop-opacity="0.5"/></radialGradient>
      <filter id="wcRoughGround_meat" x="-10%" y="-10%" width="120%" height="120%">
        <feTurbulence baseFrequency="0.04" numOctaves="3" seed="179"/>
        <feDisplacementMap in="SourceGraphic" scale="4"/>
      </filter>
      <filter id="wcBlurGround_meat"><feGaussianBlur stdDeviation="1.5"/></filter>
    </defs>
    <g filter="url(#wcBlurGround_meat)" opacity="0.4"><ellipse cx="0" cy="5" rx="115" ry="75" fill="#F8907A"/></g>
    
    <g filter="url(#wcRoughGround_meat)"><path d="M -100 30 Q -110 -10 -85 -35 Q -55 -55 -25 -45 Q 0 -60 30 -45 Q 60 -60 85 -35 Q 110 -10 100 30 Q 80 55 0 60 Q -80 55 -100 30 Z" fill="url(#wcBodyGround_meat)"/></g>
    <g stroke="#3D2817" stroke-width="3" fill="none" stroke-linecap="round" stroke-linejoin="round" opacity="0.9"><path d="M -100 30 Q -110 -10 -85 -35 Q -55 -55 -25 -45 Q 0 -60 30 -45 Q 60 -60 85 -35 Q 110 -10 100 30 Q 80 55 0 60 Q -80 55 -100 30 Z"/><path d="M -75 -10 L -68 -5" opacity="0.6" stroke-width="1.5"/><path d="M -45 -25 L -38 -20" opacity="0.6" stroke-width="1.5"/><path d="M -20 -10 L -13 -5" opacity="0.6" stroke-width="1.5"/><path d="M 10 -25 L 17 -20" opacity="0.6" stroke-width="1.5"/><path d="M 40 -10 L 47 -5" opacity="0.6" stroke-width="1.5"/><path d="M 65 -20 L 72 -15" opacity="0.6" stroke-width="1.5"/><path d="M -60 15 L -53 20" opacity="0.6" stroke-width="1.5"/><path d="M -25 25 L -18 30" opacity="0.6" stroke-width="1.5"/><path d="M 15 20 L 22 25" opacity="0.6" stroke-width="1.5"/><path d="M 50 25 L 57 30" opacity="0.6" stroke-width="1.5"/><path d="M -40 45 L -33 50" opacity="0.6" stroke-width="1.5"/><path d="M 30 45 L 37 50" opacity="0.6" stroke-width="1.5"/></g>
</svg>
