<svg xmlns="http://www.w3.org/2000/svg" viewBox="-150 -180 300 340" font-family="Noto Sans CJK JP, sans-serif">
<defs>
      <radialGradient id="wcBodyHakusai" cx="35%" cy="25%"><stop offset="0%" stop-color="#FFFFFF" stop-opacity="0.95"/><stop offset="40%" stop-color="#FFF8DC" stop-opacity="0.9"/><stop offset="80%" stop-color="#F0E8B0" stop-opacity="0.75"/><stop offset="100%" stop-color="#D8C868" stop-opacity="0.5"/></radialGradient>
      <radialGradient id="wcLeafHakusai" cx="50%" cy="20%"><stop offset="0%" stop-color="#9BCB7A" stop-opacity="0.95"/><stop offset="40%" stop-color="#5D8F3D" stop-opacity="0.9"/><stop offset="80%" stop-color="#3D6F1D" stop-opacity="0.75"/><stop offset="100%" stop-color="#2C5F2D" stop-opacity="0.55"/></radialGradient>
      <filter id="wcRoughHakusai" x="-10%" y="-10%" width="120%" height="120%">
        <feTurbulence baseFrequency="0.04" numOctaves="3" seed="59"/>
        <feDisplacementMap in="SourceGraphic" scale="4"/>
      </filter>
      <filter id="wcBlurHakusai"><feGaussianBlur stdDeviation="1.5"/></filter>
    </defs>
    <g filter="url(#wcBlurHakusai)" opacity="0.4"><ellipse cx="0" cy="0" rx="130" ry="155" fill="#C0DC9C"/></g>
    <g filter="url(#wcRoughHakusai)" opacity="0.8"><path d="M -100 -50 Q -115 -110 -88 -160 Q -75 -125 -78 -55 Z" fill="url(#wcLeafHakusai)"/><path d="M -55 -65 Q -70 -130 -42 -170 Q -25 -135 -32 -55 Z" fill="url(#wcLeafHakusai)"/><path d="M -10 -75 Q -20 -140 5 -178 Q 22 -140 18 -55 Z" fill="url(#wcLeafHakusai)"/><path d="M 25 -75 Q 12 -135 38 -175 Q 55 -135 52 -55 Z" fill="url(#wcLeafHakusai)"/><path d="M 55 -65 Q 42 -125 70 -165 Q 88 -125 82 -55 Z" fill="url(#wcLeafHakusai)"/><path d="M 90 -50 Q 78 -115 105 -155 Q 118 -115 108 -45 Z" fill="url(#wcLeafHakusai)"/></g>
    <g filter="url(#wcRoughHakusai)"><path d="M -110 30 L -110 -55 Q -120 -130 0 -160 Q 120 -130 110 -55 L 110 30 Q 100 145 0 152 Q -100 145 -110 30 Z" fill="url(#wcBodyHakusai)"/></g>
    
                <!-- 白い葉茎 (葉の根元〜中央へ伸びる白い線・帯) — 葉の数だけ -->
                <g fill="#FAFAEC" opacity="0.85" filter="url(#wcRoughHakusai)">
                    <path d="M -85 -40 Q -90 0 -82 100 Q -75 130 -50 130 Q -45 100 -55 50 Q -65 -10 -85 -40 Z"/>
                    <path d="M -45 -50 Q -50 0 -42 110 Q -35 135 -15 135 Q -10 105 -22 55 Q -32 -5 -45 -50 Z"/>
                    <path d="M -10 -60 Q -15 0 -8 115 Q -2 140 12 140 Q 18 110 8 60 Q -2 0 -10 -60 Z"/>
                    <path d="M 25 -60 Q 22 0 30 110 Q 35 135 50 135 Q 55 105 45 55 Q 35 -5 25 -60 Z"/>
                    <path d="M 60 -50 Q 58 0 65 100 Q 72 128 88 128 Q 92 100 80 50 Q 70 -10 60 -50 Z"/>
                </g>
                <!-- 葉と葉の境目に薄緑のスジ (層感を強調) -->
                <g stroke="#5D8F3D" stroke-width="2" fill="none" opacity="0.55" stroke-linecap="round">
                    <path d="M -68 -30 Q -72 30 -65 120"/>
                    <path d="M -28 -40 Q -32 30 -25 130"/>
                    <path d="M 8 -45 Q 4 30 12 132"/>
                    <path d="M 42 -40 Q 38 30 45 130"/>
                    <path d="M 75 -30 Q 72 30 80 120"/>
                </g>
            
    <g stroke="#3D2817" stroke-width="3" fill="none" stroke-linecap="round" stroke-linejoin="round" opacity="0.9"><path d="M -110 30 L -110 -55 Q -120 -130 0 -160 Q 120 -130 110 -55 L 110 30 Q 100 145 0 152 Q -100 145 -110 30 Z"/><path d="M -100 -50 Q -115 -110 -88 -160 Q -75 -125 -78 -55" opacity="0.85" stroke-width="2"/><path d="M -55 -65 Q -70 -130 -42 -170 Q -25 -135 -32 -55" opacity="0.85" stroke-width="2"/><path d="M -10 -75 Q -20 -140 5 -178 Q 22 -140 18 -55" opacity="0.85" stroke-width="2"/><path d="M 25 -75 Q 12 -135 38 -175 Q 55 -135 52 -55" opacity="0.85" stroke-width="2"/><path d="M 55 -65 Q 42 -125 70 -165 Q 88 -125 82 -55" opacity="0.85" stroke-width="2"/><path d="M 90 -50 Q 78 -115 105 -155 Q 118 -115 108 -45" opacity="0.85" stroke-width="2"/><path d="M -88 -158 Q -85 -110 -90 -55" opacity="0.55" stroke-width="1.3"/><path d="M -42 -168 Q -42 -120 -50 -60" opacity="0.55" stroke-width="1.3"/><path d="M 5 -176 Q 5 -130 0 -70" opacity="0.55" stroke-width="1.3"/><path d="M 38 -173 Q 40 -125 35 -70" opacity="0.55" stroke-width="1.3"/><path d="M 70 -163 Q 72 -120 65 -60" opacity="0.55" stroke-width="1.3"/><path d="M 105 -153 Q 105 -110 98 -45" opacity="0.55" stroke-width="1.3"/><path d="M -100 145 Q 0 155 100 145" opacity="0.55" stroke-width="1.5"/><path d="M -25 145 L 0 95 L 25 145" opacity="0.7" stroke-width="1.6"/></g>
</svg>
