<svg xmlns="http://www.w3.org/2000/svg" viewBox="-150 -180 300 340" font-family="Noto Sans CJK JP, sans-serif">
<defs>
      <linearGradient id="wcBodyHakusai" x1="0" y1="0" x2="0" y2="1">
        <stop offset="0%" stop-color="#A8C770" stop-opacity="0.85"/>
        <stop offset="20%" stop-color="#C8DC8E" stop-opacity="0.9"/>
        <stop offset="50%" stop-color="#F8FAE0" stop-opacity="0.95"/>
        <stop offset="80%" stop-color="#FFFAE8" stop-opacity="0.95"/>
        <stop offset="100%" stop-color="#F0E8C8" stop-opacity="0.9"/>
      </linearGradient>
      <linearGradient id="wcLeafHakusai" x1="0" y1="0" x2="0" y2="1">
        <stop offset="0%" stop-color="#7FA850" stop-opacity="0.9"/>
        <stop offset="100%" stop-color="#B8D480" stop-opacity="0.7"/>
      </linearGradient>
      <filter id="wcRoughHakusai" x="-10%" y="-10%" width="120%" height="120%">
        <feTurbulence baseFrequency="0.04" numOctaves="3" seed="13"/>
        <feDisplacementMap in="SourceGraphic" scale="4"/>
      </filter>
      <filter id="wcBlurHakusai">
        <feGaussianBlur stdDeviation="1.5"/>
      </filter>
    </defs>

    <!-- Watercolor bleeds -->
    <g filter="url(#wcBlurHakusai)" opacity="0.4">
      <ellipse cx="0" cy="-130" rx="70" ry="40" fill="#7FA850"/>
      <ellipse cx="0" cy="20" rx="80" ry="130" fill="#F8FAE0"/>
      <ellipse cx="0" cy="160" rx="55" ry="30" fill="#E8DCB0"/>
    </g>

    <!-- 上部の葉(濃い緑) -->
    <g filter="url(#wcRoughHakusai)" opacity="0.85">
      <path d="M -35 -150 Q -45 -175 -25 -180 Q -15 -160 -22 -140 Z" fill="url(#wcLeafHakusai)"/>
      <path d="M 0 -160 Q -5 -185 15 -183 Q 20 -163 10 -145 Z" fill="url(#wcLeafHakusai)"/>
      <path d="M 35 -150 Q 45 -180 28 -185 Q 18 -165 22 -143 Z" fill="url(#wcLeafHakusai)"/>
    </g>

    <!-- 本体: 縦長砲弾型 -->
    <g filter="url(#wcRoughHakusai)">
      <path d="M 0 -150
               Q -55 -145 -70 -75
               Q -82 -5 -78 75
               Q -70 145 0 158
               Q 70 145 78 75
               Q 82 -5 70 -75
               Q 55 -145 0 -150 Z" fill="url(#wcBodyHakusai)"/>
    </g>

    <!-- Strong ink lines -->
    <g stroke="#3D2817" stroke-width="3" fill="none" stroke-linecap="round" stroke-linejoin="round" opacity="0.9">
      <!-- 本体輪郭 -->
      <path d="M 0 -150 Q -55 -145 -70 -75 Q -82 -5 -78 75 Q -70 145 0 158 Q 70 145 78 75 Q 82 -5 70 -75 Q 55 -145 0 -150 Z"/>
      <!-- 上部の葉 -->
      <path d="M -35 -150 Q -45 -175 -25 -180 Q -15 -160 -22 -140 Z"/>
      <path d="M 0 -160 Q -5 -185 15 -183 Q 20 -163 10 -145 Z"/>
      <path d="M 35 -150 Q 45 -180 28 -185 Q 18 -165 22 -143 Z"/>
      <!-- 葉先のフリル -->
      <path d="M -70 -75 Q -62 -90 -52 -82 Q -45 -100 -35 -90" stroke-width="2" opacity="0.7"/>
      <path d="M 35 -90 Q 45 -100 52 -82 Q 62 -90 70 -75" stroke-width="2" opacity="0.7"/>
      <!-- 縦縞(葉の重なり) -->
      <path d="M -55 -130 Q -62 0 -55 145" opacity="0.7"/>
      <path d="M -35 -150 Q -42 0 -38 152" opacity="0.7"/>
      <path d="M -15 -158 Q -18 0 -17 156" opacity="0.65"/>
      <path d="M 0 -158 Q 0 0 0 158" opacity="0.65"/>
      <path d="M 15 -158 Q 18 0 17 156" opacity="0.65"/>
      <path d="M 35 -150 Q 42 0 38 152" opacity="0.7"/>
      <path d="M 55 -130 Q 62 0 55 145" opacity="0.7"/>
      <!-- 切り口の楕円 -->
      <ellipse cx="0" cy="158" rx="40" ry="6"/>
    </g>

    <!-- 縦縞の白いハイライト(瑞々しさ) -->
    <g stroke="#FFFFFF" stroke-width="2" fill="none" stroke-linecap="round" opacity="0.7">
      <path d="M -35 -148 Q -42 0 -38 150"/>
      <path d="M 0 -156 Q 0 0 0 156"/>
      <path d="M 35 -148 Q 42 0 38 150"/>
    </g>
</svg>
