<svg xmlns="http://www.w3.org/2000/svg" viewBox="-150 -180 300 340" font-family="Noto Sans CJK JP, sans-serif">
<!-- 上部の葉(変色、黒ずみ) -->
    <path d="M -35 -148 Q -45 -173 -25 -178 Q -15 -158 -22 -138 Z" fill="#7A8045"/>
    <path d="M 0 -158 Q -5 -183 15 -181 Q 20 -161 10 -143 Z" fill="#7A8045"/>
    <path d="M 35 -148 Q 45 -178 28 -183 Q 18 -163 22 -141 Z" fill="#7A8045"/>
    <!-- 葉先の黒ずみ -->
    <ellipse cx="-25" cy="-178" rx="6" ry="4" fill="#2A2820" opacity="0.7"/>
    <ellipse cx="8" cy="-181" rx="6" ry="4" fill="#2A2820" opacity="0.7"/>
    <ellipse cx="32" cy="-180" rx="6" ry="4" fill="#2A2820" opacity="0.7"/>

    <!-- 本体(くすんだ色) -->
    <path d="M 0 -148 Q -55 -143 -70 -73 Q -82 -3 -78 77 Q -70 145 0 158 Q 70 145 78 77 Q 82 -3 70 -73 Q 55 -143 0 -148 Z" fill="#D8C898"/>

    <!-- 茶色シミ -->
    <ellipse cx="-40" cy="-25" rx="9" ry="14" fill="#7A4A1F" opacity="0.6"/>
    <ellipse cx="38" cy="20" rx="8" ry="12" fill="#7A4A1F" opacity="0.55"/>
    <ellipse cx="-15" cy="65" rx="10" ry="6" fill="#7A4A1F" opacity="0.55"/>
    <ellipse cx="20" cy="100" rx="7" ry="11" fill="#7A4A1F" opacity="0.55"/>
    <!-- 黒い斑点 -->
    <circle cx="-20" cy="-45" r="4" fill="#2A2820" opacity="0.7"/>
    <circle cx="25" cy="-25" r="3" fill="#2A2820" opacity="0.6"/>

    <!-- 縦縞 -->
    <path d="M -55 -128 Q -62 0 -55 145" stroke="#5D4E37" stroke-width="1.5" fill="none" opacity="0.65"/>
    <path d="M 0 -150 Q 0 0 0 158" stroke="#5D4E37" stroke-width="1.3" fill="none" opacity="0.55"/>
    <path d="M 55 -128 Q 62 0 55 145" stroke="#5D4E37" stroke-width="1.5" fill="none" opacity="0.65"/>

    <!-- 切り口(変色) -->
    <ellipse cx="0" cy="158" rx="40" ry="6" fill="#C8B888"/>
    <ellipse cx="-10" cy="158" rx="8" ry="2" fill="#7A4A1F" opacity="0.6"/>

    <!-- 輪郭 -->
    <path d="M 0 -148 Q -55 -143 -70 -73 Q -82 -3 -78 77 Q -70 145 0 158 Q 70 145 78 77 Q 82 -3 70 -73 Q 55 -143 0 -148 Z" stroke="#3D2817" stroke-width="3" fill="none"/>
    <ellipse cx="0" cy="158" rx="40" ry="6" stroke="#3D2817" stroke-width="3" fill="none"/>
</svg>
