<svg xmlns="http://www.w3.org/2000/svg" viewBox="-110 -120 220 220" font-family="Noto Sans CJK JP, sans-serif">
<defs>
      <radialGradient id="wcBodyKaki" cx="35%" cy="25%"><stop offset="0%" stop-color="#FFD9B0" stop-opacity="0.95"/><stop offset="40%" stop-color="#FFB07A" stop-opacity="0.9"/><stop offset="80%" stop-color="#FF8C42" stop-opacity="0.85"/><stop offset="100%" stop-color="#D45F1A" stop-opacity="0.7"/></radialGradient>
      <radialGradient id="wcLeafKaki" cx="50%" cy="20%"><stop offset="0%" stop-color="#9BCB7A" stop-opacity="0.9"/><stop offset="60%" stop-color="#5D8F3D" stop-opacity="0.7"/><stop offset="100%" stop-color="#2C5F2D" stop-opacity="0.5"/></radialGradient>
      <filter id="wcRoughKaki" x="-10%" y="-10%" width="120%" height="120%">
        <feTurbulence baseFrequency="0.04" numOctaves="3" seed="149"/>
        <feDisplacementMap in="SourceGraphic" scale="4"/>
      </filter>
      <filter id="wcBlurKaki"><feGaussianBlur stdDeviation="1.5"/></filter>
    </defs>
    <g filter="url(#wcBlurKaki)" opacity="0.4"><ellipse cx="0" cy="5" rx="100" ry="80" fill="#FFB07A"/></g>
    <g filter="url(#wcRoughKaki)" opacity="0.8"><path d="M -45 -75 L -55 -100 L -25 -85 L -10 -105 L 0 -85 L 10 -105 L 25 -85 L 55 -100 L 45 -75 Q 0 -65 -45 -75 Z" fill="url(#wcLeafKaki)"/></g>
    <g filter="url(#wcRoughKaki)"><path d="M -90 -10 Q -95 60 0 85 Q 95 60 90 -10 Q 85 -75 0 -80 Q -85 -75 -90 -10 Z" fill="url(#wcBodyKaki)"/></g>
    
    <g stroke="#3D2817" stroke-width="3" fill="none" stroke-linecap="round" stroke-linejoin="round" opacity="0.9"><path d="M -90 -10 Q -95 60 0 85 Q 95 60 90 -10 Q 85 -75 0 -80 Q -85 -75 -90 -10 Z"/><path d="M -45 -75 L -55 -100 L -25 -85 L -10 -105 L 0 -85 L 10 -105 L 25 -85 L 55 -100 L 45 -75" opacity="0.85" stroke-width="2.5"/><path d="M 0 -105 L 0 -118" opacity="0.85" stroke-width="2.5"/><path d="M -25 80 Q 0 85 25 80" opacity="0.5" stroke-width="1.4"/></g>
</svg>
