<svg xmlns="http://www.w3.org/2000/svg" viewBox="-110 -90 220 180" font-family="Noto Sans CJK JP, sans-serif">
<defs>
      <radialGradient id="wcBodyKiwi" cx="35%" cy="25%"><stop offset="0%" stop-color="#D8B89A" stop-opacity="0.95"/><stop offset="40%" stop-color="#A07848" stop-opacity="0.9"/><stop offset="80%" stop-color="#7E5A2A" stop-opacity="0.85"/><stop offset="100%" stop-color="#4F3A1F" stop-opacity="0.65"/></radialGradient>
      <radialGradient id="wcLeafKiwi" cx="50%" cy="20%"><stop offset="0%" stop-color="#9BCB7A" stop-opacity="0.9"/><stop offset="60%" stop-color="#5D8F3D" stop-opacity="0.7"/><stop offset="100%" stop-color="#2C5F2D" stop-opacity="0.5"/></radialGradient>
      <filter id="wcRoughKiwi" x="-10%" y="-10%" width="120%" height="120%">
        <feTurbulence baseFrequency="0.04" numOctaves="3" seed="131"/>
        <feDisplacementMap in="SourceGraphic" scale="4"/>
      </filter>
      <filter id="wcBlurKiwi"><feGaussianBlur stdDeviation="1.5"/></filter>
    </defs>
    <g filter="url(#wcBlurKiwi)" opacity="0.4"><ellipse cx="0" cy="0" rx="95" ry="65" fill="#A07848"/></g>
    
    <g filter="url(#wcRoughKiwi)"><path d="M -85 0 Q -95 -55 0 -70 Q 95 -55 85 0 Q 95 55 0 70 Q -95 55 -85 0 Z" fill="url(#wcBodyKiwi)"/></g>
    <g stroke="#3D2817" stroke-width="3" fill="none" stroke-linecap="round" stroke-linejoin="round" opacity="0.9"><path d="M -85 0 Q -95 -55 0 -70 Q 95 -55 85 0 Q 95 55 0 70 Q -95 55 -85 0 Z"/><path d="M -50 -40 L -45 -35" opacity="0.55" stroke-width="1.4"/><path d="M -20 -50 L -15 -45" opacity="0.55" stroke-width="1.4"/><path d="M 20 -50 L 25 -45" opacity="0.55" stroke-width="1.4"/><path d="M 50 -40 L 55 -35" opacity="0.55" stroke-width="1.4"/><path d="M -55 30 L -50 35" opacity="0.55" stroke-width="1.4"/><path d="M -15 45 L -10 50" opacity="0.55" stroke-width="1.4"/><path d="M 25 40 L 30 45" opacity="0.55" stroke-width="1.4"/><path d="M 55 25 L 60 30" opacity="0.55" stroke-width="1.4"/></g>
</svg>
