<svg xmlns="http://www.w3.org/2000/svg" viewBox="-130 -180 260 320" font-family="Noto Sans CJK JP, sans-serif">
<path d="M -25 -90 L 25 -90 Q 30 -85 28 90 Q 25 110 0 115 Q -25 110 -28 90 Q -30 -85 -25 -90 Z" fill="#E8DC60"/><path d="M -65 -100 Q -90 -145 -55 -155 Q -25 -130 -40 -95 Z" fill="#A0A040"/><path d="M -20 -120 Q -50 -165 -15 -170 Q 15 -150 -5 -100 Z" fill="#A0A040"/><path d="M 18 -125 Q -10 -170 30 -170 Q 55 -150 35 -100 Z" fill="#A0A040"/><path d="M 50 -100 Q 25 -155 65 -145 Q 85 -125 65 -90 Z" fill="#A0A040"/><ellipse cx="-40" cy="-130" rx="12" ry="8" fill="#8B6F47" opacity="0.5"/><ellipse cx="30" cy="-135" rx="10" ry="7" fill="#8B6F47" opacity="0.5"/><path d="M -25 90 Q 0 95 25 90" stroke="#5D4E37" stroke-width="1.5" fill="none" opacity="0.6"/>
</svg>
