<svg xmlns="http://www.w3.org/2000/svg" viewBox="-130 -180 260 320" font-family="Noto Sans CJK JP, sans-serif">
<defs>
      <radialGradient id="wcBodyKomatsuna" cx="35%" cy="25%"><stop offset="0%" stop-color="#D4E8B5" stop-opacity="0.95"/><stop offset="40%" stop-color="#9BCB7A" stop-opacity="0.9"/><stop offset="80%" stop-color="#5D8F3D" stop-opacity="0.85"/><stop offset="100%" stop-color="#2C5F2D" stop-opacity="0.65"/></radialGradient>
      <radialGradient id="wcLeafKomatsuna" cx="50%" cy="20%"><stop offset="0%" stop-color="#9BCB7A" stop-opacity="0.9"/><stop offset="60%" stop-color="#5D8F3D" stop-opacity="0.7"/><stop offset="100%" stop-color="#2C5F2D" stop-opacity="0.5"/></radialGradient>
      <filter id="wcRoughKomatsuna" x="-10%" y="-10%" width="120%" height="120%">
        <feTurbulence baseFrequency="0.04" numOctaves="3" seed="47"/>
        <feDisplacementMap in="SourceGraphic" scale="4"/>
      </filter>
      <filter id="wcBlurKomatsuna"><feGaussianBlur stdDeviation="1.5"/></filter>
    </defs>
    <g filter="url(#wcBlurKomatsuna)" opacity="0.4"><ellipse cx="0" cy="-50" rx="110" ry="90" fill="#9BCB7A"/><ellipse cx="0" cy="100" rx="30" ry="30" fill="#E8DCC0"/></g>
    <g filter="url(#wcRoughKomatsuna)" opacity="0.8"><path d="M -65 -100 Q -90 -150 -50 -160 Q -25 -130 -40 -90 Z" fill="url(#wcLeafKomatsuna)"/><path d="M -25 -120 Q -50 -170 -10 -175 Q 15 -150 -5 -100 Z" fill="url(#wcLeafKomatsuna)"/><path d="M 15 -125 Q -10 -175 30 -175 Q 55 -150 35 -100 Z" fill="url(#wcLeafKomatsuna)"/><path d="M 50 -100 Q 25 -160 70 -150 Q 85 -125 65 -90 Z" fill="url(#wcLeafKomatsuna)"/></g>
    <g filter="url(#wcRoughKomatsuna)"><path d="M -25 -90 L 25 -90 Q 30 -85 28 90 Q 25 110 0 115 Q -25 110 -28 90 Q -30 -85 -25 -90 Z" fill="url(#wcBodyKomatsuna)"/></g>
    <g stroke="#3D2817" stroke-width="3" fill="none" stroke-linecap="round" stroke-linejoin="round" opacity="0.9"><path d="M -25 -90 L 25 -90 Q 30 -85 28 90 Q 25 110 0 115 Q -25 110 -28 90 Q -30 -85 -25 -90 Z"/><path d="M -65 -100 Q -90 -150 -50 -160 Q -25 -130 -40 -90 Z"/><path d="M -25 -120 Q -50 -170 -10 -175 Q 15 -150 -5 -100 Z"/><path d="M 15 -125 Q -10 -175 30 -175 Q 55 -150 35 -100 Z"/><path d="M 50 -100 Q 25 -160 70 -150 Q 85 -125 65 -90 Z"/><path d="M -55 -95 Q -65 -140 -45 -155" opacity="0.6" stroke-width="1.4"/><path d="M -15 -110 Q -25 -150 -5 -170" opacity="0.6" stroke-width="1.4"/><path d="M 25 -110 Q 15 -150 35 -170" opacity="0.6" stroke-width="1.4"/><path d="M 60 -95 Q 50 -140 70 -150" opacity="0.6" stroke-width="1.4"/><path d="M 0 -85 L 0 110" opacity="0.5" stroke-width="1.5"/></g>
</svg>
