<svg xmlns="http://www.w3.org/2000/svg" viewBox="-90 -140 180 260" font-family="Noto Sans CJK JP, sans-serif">
<defs>
      <radialGradient id="wcBodyLemon" cx="35%" cy="25%"><stop offset="0%" stop-color="#FFF8C8" stop-opacity="0.95"/><stop offset="40%" stop-color="#FFE066" stop-opacity="0.9"/><stop offset="80%" stop-color="#F2C232" stop-opacity="0.85"/><stop offset="100%" stop-color="#B88A1B" stop-opacity="0.65"/></radialGradient>
      <radialGradient id="wcLeafLemon" cx="50%" cy="20%"><stop offset="0%" stop-color="#9BCB7A" stop-opacity="0.9"/><stop offset="60%" stop-color="#5D8F3D" stop-opacity="0.7"/><stop offset="100%" stop-color="#2C5F2D" stop-opacity="0.5"/></radialGradient>
      <filter id="wcRoughLemon" x="-10%" y="-10%" width="120%" height="120%">
        <feTurbulence baseFrequency="0.04" numOctaves="3" seed="109"/>
        <feDisplacementMap in="SourceGraphic" scale="4"/>
      </filter>
      <filter id="wcBlurLemon"><feGaussianBlur stdDeviation="1.5"/></filter>
    </defs>
    <g filter="url(#wcBlurLemon)" opacity="0.4"><ellipse cx="0" cy="0" rx="80" ry="110" fill="#FFE066"/></g>
    
    <g filter="url(#wcRoughLemon)"><path d="M 0 -110 Q -10 -110 -25 -100 Q -65 -80 -65 0 Q -65 80 -25 100 Q -10 110 0 110 Q 10 110 25 100 Q 65 80 65 0 Q 65 -80 25 -100 Q 10 -110 0 -110 Z" fill="url(#wcBodyLemon)"/></g>
    
    <g stroke="#3D2817" stroke-width="3" fill="none" stroke-linecap="round" stroke-linejoin="round" opacity="0.9"><path d="M 0 -110 Q -10 -110 -25 -100 Q -65 -80 -65 0 Q -65 80 -25 100 Q -10 110 0 110 Q 10 110 25 100 Q 65 80 65 0 Q 65 -80 25 -100 Q 10 -110 0 -110 Z"/><path d="M 0 -110 L 0 -130" opacity="0.85" stroke-width="2.5"/><path d="M 0 110 L 0 122" opacity="0.85" stroke-width="2.5"/><path d="M -50 -40 Q -35 -45 -40 -20" opacity="0.4" stroke-width="1.2"/><path d="M 50 30 Q 35 35 40 60" opacity="0.4" stroke-width="1.2"/></g>
</svg>
