<svg xmlns="http://www.w3.org/2000/svg" viewBox="-170 -165 340 330" font-family="Noto Sans CJK JP, sans-serif">
<!-- 上部の葉(変色) -->
    <path d="M 0 -85 Q -45 -70 -70 -40 Q -75 -80 -45 -105 Q 0 -125 45 -105 Q 75 -80 70 -40 Q 45 -70 0 -85 Z" fill="#A8A058"/>
    <!-- 葉先の赤茶 -->
    <path d="M -45 -108 Q -35 -118 -25 -110" stroke="#A85530" stroke-width="3" fill="none" opacity="0.7"/>
    <path d="M 25 -110 Q 35 -118 45 -108" stroke="#A85530" stroke-width="3" fill="none" opacity="0.7"/>

    <!-- 外葉(左) -->
    <path d="M -120 35 Q -150 5 -150 -35 Q -128 -80 -82 -85 Q -62 -45 -72 5 Q -82 55 -108 85 Q -135 78 -120 35 Z" fill="#A8A058"/>
    <!-- 葉先の赤茶 -->
    <path d="M -150 -10 Q -135 -22 -118 -15 Q -125 0 -140 5 Z" fill="#A85530" opacity="0.7"/>

    <!-- 外葉(右) -->
    <path d="M 120 35 Q 150 5 150 -35 Q 128 -80 82 -85 Q 62 -45 72 5 Q 82 55 108 85 Q 135 78 120 35 Z" fill="#A8A058"/>
    <path d="M 150 -10 Q 135 -22 118 -15 Q 125 0 140 5 Z" fill="#A85530" opacity="0.7"/>

    <!-- 本体(くすむ) -->
    <ellipse cx="0" cy="5" rx="103" ry="98" fill="#BFBF82"/>

    <!-- 茶色のシミ -->
    <ellipse cx="-30" cy="-15" rx="15" ry="10" fill="#8A4520" opacity="0.5"/>
    <ellipse cx="40" cy="35" rx="13" ry="9" fill="#8A4520" opacity="0.5"/>
    <ellipse cx="0" cy="80" rx="18" ry="9" fill="#8A4520" opacity="0.5"/>

    <!-- 重なり線 -->
    <path d="M 0 -85 Q -25 -55 -40 0 Q -45 55 -25 95" stroke="#5D4E37" stroke-width="1.5" fill="none" opacity="0.6"/>
    <path d="M 0 -85 Q 25 -55 40 0 Q 45 55 25 95" stroke="#5D4E37" stroke-width="1.5" fill="none" opacity="0.6"/>

    <!-- 輪郭 -->
    <ellipse cx="0" cy="5" rx="103" ry="98" stroke="#3D2817" stroke-width="3" fill="none"/>
    <path d="M -120 35 Q -150 5 -150 -35 Q -128 -80 -82 -85 Q -62 -45 -72 5 Q -82 55 -108 85 Q -135 78 -120 35 Z" stroke="#3D2817" stroke-width="3" fill="none"/>
    <path d="M 120 35 Q 150 5 150 -35 Q 128 -80 82 -85 Q 62 -45 72 5 Q 82 55 108 85 Q 135 78 120 35 Z" stroke="#3D2817" stroke-width="3" fill="none"/>
</svg>
