<svg xmlns="http://www.w3.org/2000/svg" viewBox="-130 -130 260 240" font-family="Noto Sans CJK JP, sans-serif">
<defs>
      <radialGradient id="wcBodyMaitake" cx="35%" cy="25%"><stop offset="0%" stop-color="#D8B89A" stop-opacity="0.95"/><stop offset="40%" stop-color="#A07848" stop-opacity="0.9"/><stop offset="80%" stop-color="#7E5A2A" stop-opacity="0.85"/><stop offset="100%" stop-color="#4F3A1F" stop-opacity="0.65"/></radialGradient>
      <radialGradient id="wcLeafMaitake" cx="50%" cy="20%"><stop offset="0%" stop-color="#9BCB7A" stop-opacity="0.9"/><stop offset="60%" stop-color="#5D8F3D" stop-opacity="0.7"/><stop offset="100%" stop-color="#2C5F2D" stop-opacity="0.5"/></radialGradient>
      <filter id="wcRoughMaitake" x="-10%" y="-10%" width="120%" height="120%">
        <feTurbulence baseFrequency="0.04" numOctaves="3" seed="103"/>
        <feDisplacementMap in="SourceGraphic" scale="4"/>
      </filter>
      <filter id="wcBlurMaitake"><feGaussianBlur stdDeviation="1.5"/></filter>
    </defs>
    <g filter="url(#wcBlurMaitake)" opacity="0.4"><ellipse cx="0" cy="0" rx="115" ry="95" fill="#A07848"/></g>
    
    <g filter="url(#wcRoughMaitake)"><path d="M -100 30 Q -110 -50 -70 -80 Q -40 -90 -20 -70 Q -10 -100 10 -90 Q 30 -110 60 -90 Q 90 -85 100 -40 Q 110 20 80 60 Q 50 90 0 95 Q -50 90 -90 70 Q -110 50 -100 30 Z" fill="url(#wcBodyMaitake)"/></g>
    <g stroke="#3D2817" stroke-width="3" fill="none" stroke-linecap="round" stroke-linejoin="round" opacity="0.9"><path d="M -100 30 Q -110 -50 -70 -80 Q -40 -90 -20 -70 Q -10 -100 10 -90 Q 30 -110 60 -90 Q 90 -85 100 -40 Q 110 20 80 60 Q 50 90 0 95 Q -50 90 -90 70 Q -110 50 -100 30 Z"/><path d="M -65 -50 Q -50 -40 -55 -10" opacity="0.7" stroke-width="1.5"/><path d="M -30 -65 Q -15 -50 -20 -20" opacity="0.7" stroke-width="1.5"/><path d="M 5 -85 Q 20 -65 15 -30" opacity="0.7" stroke-width="1.5"/><path d="M 40 -80 Q 55 -60 50 -25" opacity="0.7" stroke-width="1.5"/><path d="M 75 -55 Q 85 -35 80 -5" opacity="0.7" stroke-width="1.5"/><path d="M -55 30 Q -40 45 -45 70" opacity="0.6" stroke-width="1.4"/><path d="M -10 35 Q 5 50 0 80" opacity="0.6" stroke-width="1.4"/><path d="M 35 25 Q 50 40 45 70" opacity="0.6" stroke-width="1.4"/></g>
</svg>
