<svg xmlns="http://www.w3.org/2000/svg" viewBox="-140 -130 280 240" font-family="Noto Sans CJK JP, sans-serif">
<path d="M -120 30 Q -130 -55 -75 -90 Q -50 -88 -45 -55 Q -65 -10 -65 35 Q -90 50 -120 30 Z" fill="#A09078"/><path d="M -55 50 Q -68 -35 -10 -100 Q 18 -98 22 -65 Q 0 -10 0 60 Q -28 70 -55 50 Z" fill="#A09078"/><path d="M 5 60 Q 0 -25 55 -90 Q 80 -85 78 -50 Q 58 0 58 65 Q 30 75 5 60 Z" fill="#A09078"/><path d="M 60 40 Q 60 -40 110 -75 Q 125 -70 115 -30 Q 100 5 100 45 Q 80 60 60 40 Z" fill="#A09078"/><ellipse cx="-30" cy="40" rx="22" ry="18" fill="#3D2817" opacity="0.5"/><ellipse cx="40" cy="-30" rx="18" ry="14" fill="#3D2817" opacity="0.5"/><path d="M -90 55 Q 0 70 95 50" stroke="#5D4E37" stroke-width="1.5" fill="none" opacity="0.5"/>
</svg>
