<svg xmlns="http://www.w3.org/2000/svg" viewBox="-145 -115 290 255" font-family="Noto Sans CJK JP, sans-serif">
<!-- 株元(変色) -->
    <ellipse cx="0" cy="105" rx="55" ry="18" fill="#A89060"/>
    <ellipse cx="-15" cy="105" rx="10" ry="4" fill="#5A3215" opacity="0.7"/>
    <ellipse cx="20" cy="107" rx="9" ry="3" fill="#5A3215" opacity="0.65"/>

    <!-- キノコ1 軸+傘(くすむ) -->
    <path d="M -65 -10 Q -68 35 -65 90 Q -60 105 -45 105 Q -32 100 -32 90 Q -33 35 -33 -10 Z" fill="#C8B888"/>
    <path d="M -85 -10 Q -88 -45 -65 -60 Q -45 -65 -28 -60 Q -10 -45 -12 -10 Q -20 -2 -32 -2 Q -50 0 -65 -2 Q -78 -2 -85 -10 Z" fill="#5A4218"/>

    <!-- キノコ2 -->
    <path d="M -25 -5 Q -28 35 -25 95 Q -20 110 -5 110 Q 8 105 8 95 Q 7 35 7 -5 Z" fill="#C8B888"/>
    <path d="M -45 -5 Q -48 -55 -25 -72 Q 0 -78 18 -72 Q 35 -55 32 -5 Q 25 5 8 5 Q -10 7 -25 5 Q -38 5 -45 -5 Z" fill="#5A4218"/>

    <!-- キノコ3 -->
    <path d="M 18 0 Q 15 40 18 100 Q 23 115 38 110 Q 52 105 50 95 Q 50 40 50 0 Z" fill="#C8B888"/>
    <path d="M 0 0 Q -3 -50 18 -68 Q 38 -73 60 -68 Q 78 -50 75 0 Q 65 8 50 8 Q 30 10 18 8 Q 5 8 0 0 Z" fill="#5A4218"/>

    <!-- キノコ4 -->
    <path d="M 60 -5 Q 58 35 60 90 Q 65 100 78 100 Q 90 95 90 88 Q 90 35 90 -5 Z" fill="#C8B888"/>
    <path d="M 45 -5 Q 42 -45 62 -60 Q 80 -65 95 -60 Q 110 -45 108 -5 Q 100 2 90 2 Q 75 4 62 2 Q 50 2 45 -5 Z" fill="#5A4218"/>

    <!-- 黒い斑点 -->
    <ellipse cx="-55" cy="-35" rx="9" ry="6" fill="#1F1408" opacity="0.7"/>
    <ellipse cx="0" cy="-50" rx="10" ry="7" fill="#1F1408" opacity="0.7"/>
    <ellipse cx="40" cy="-45" rx="9" ry="6" fill="#1F1408" opacity="0.7"/>
    <ellipse cx="80" cy="-30" rx="9" ry="6" fill="#1F1408" opacity="0.65"/>

    <!-- 軸の茶色シミ -->
    <ellipse cx="-48" cy="40" rx="6" ry="9" fill="#7A4A1F" opacity="0.55"/>
    <ellipse cx="-5" cy="50" rx="6" ry="10" fill="#7A4A1F" opacity="0.55"/>
    <ellipse cx="35" cy="60" rx="6" ry="9" fill="#7A4A1F" opacity="0.55"/>
    <ellipse cx="78" cy="40" rx="5" ry="8" fill="#7A4A1F" opacity="0.5"/>

    <!-- 輪郭(再描画) -->
    <g stroke="#3D2817" stroke-width="3" fill="none" stroke-linecap="round" stroke-linejoin="round">
      <ellipse cx="0" cy="105" rx="55" ry="18"/>
      <path d="M -65 -10 Q -68 35 -65 90 Q -60 105 -45 105 Q -32 100 -32 90 Q -33 35 -33 -10"/>
      <path d="M -85 -10 Q -88 -45 -65 -60 Q -45 -65 -28 -60 Q -10 -45 -12 -10 Q -20 -2 -32 -2 Q -50 0 -65 -2 Q -78 -2 -85 -10 Z"/>
      <path d="M -25 -5 Q -28 35 -25 95 Q -20 110 -5 110 Q 8 105 8 95 Q 7 35 7 -5"/>
      <path d="M -45 -5 Q -48 -55 -25 -72 Q 0 -78 18 -72 Q 35 -55 32 -5 Q 25 5 8 5 Q -10 7 -25 5 Q -38 5 -45 -5 Z"/>
      <path d="M 18 0 Q 15 40 18 100 Q 23 115 38 110 Q 52 105 50 95 Q 50 40 50 0"/>
      <path d="M 0 0 Q -3 -50 18 -68 Q 38 -73 60 -68 Q 78 -50 75 0 Q 65 8 50 8 Q 30 10 18 8 Q 5 8 0 0 Z"/>
      <path d="M 60 -5 Q 58 35 60 90 Q 65 100 78 100 Q 90 95 90 88 Q 90 35 90 -5"/>
      <path d="M 45 -5 Q 42 -45 62 -60 Q 80 -65 95 -60 Q 110 -45 108 -5 Q 100 2 90 2 Q 75 4 62 2 Q 50 2 45 -5 Z"/>
    </g>
</svg>
