<svg xmlns="http://www.w3.org/2000/svg" viewBox="-100 -120 200 220" font-family="Noto Sans CJK JP, sans-serif">
<defs>
      <radialGradient id="wcBodyMikan" cx="35%" cy="25%"><stop offset="0%" stop-color="#FFD9B0" stop-opacity="0.95"/><stop offset="40%" stop-color="#FFB07A" stop-opacity="0.9"/><stop offset="80%" stop-color="#FF8C42" stop-opacity="0.85"/><stop offset="100%" stop-color="#D45F1A" stop-opacity="0.7"/></radialGradient>
      <radialGradient id="wcLeafMikan" cx="50%" cy="20%"><stop offset="0%" stop-color="#9BCB7A" stop-opacity="0.9"/><stop offset="60%" stop-color="#5D8F3D" stop-opacity="0.7"/><stop offset="100%" stop-color="#2C5F2D" stop-opacity="0.5"/></radialGradient>
      <filter id="wcRoughMikan" x="-10%" y="-10%" width="120%" height="120%">
        <feTurbulence baseFrequency="0.04" numOctaves="3" seed="107"/>
        <feDisplacementMap in="SourceGraphic" scale="4"/>
      </filter>
      <filter id="wcBlurMikan"><feGaussianBlur stdDeviation="1.5"/></filter>
    </defs>
    <g filter="url(#wcBlurMikan)" opacity="0.4"><ellipse cx="0" cy="0" rx="90" ry="75" fill="#FFB07A"/></g>
    <g filter="url(#wcRoughMikan)" opacity="0.8"><path d="M 5 -85 Q 18 -100 25 -85 Q 18 -78 8 -83 Z" fill="url(#wcLeafMikan)"/></g>
    <g filter="url(#wcRoughMikan)"><path d="M -80 -10 Q -85 60 0 80 Q 85 60 80 -10 Q 75 -75 0 -85 Q -75 -75 -80 -10 Z" fill="url(#wcBodyMikan)"/></g>
    <g stroke="#3D2817" stroke-width="3" fill="none" stroke-linecap="round" stroke-linejoin="round" opacity="0.9"><path d="M -80 -10 Q -85 60 0 80 Q 85 60 80 -10 Q 75 -75 0 -85 Q -75 -75 -80 -10 Z"/><path d="M 0 -85 L -2 -100" opacity="0.85" stroke-width="2"/><path d="M 5 -85 Q 18 -100 25 -85 Q 18 -78 8 -83" opacity="0.85" stroke-width="2"/><path d="M -15 -80 Q 0 -78 15 -80" opacity="0.5" stroke-width="1.4"/><path d="M -15 75 Q 0 78 15 75" opacity="0.5" stroke-width="1.4"/><path d="M -65 -45 Q -45 -50 -50 -25" opacity="0.4" stroke-width="1.2"/><path d="M 65 -45 Q 45 -50 50 -25" opacity="0.4" stroke-width="1.2"/></g>
</svg>
