<svg xmlns="http://www.w3.org/2000/svg" viewBox="-120 -100 240 200" font-family="Noto Sans CJK JP, sans-serif">
<defs>
      <radialGradient id="wcBodyNatto" cx="35%" cy="25%"><stop offset="0%" stop-color="#D8B888" stop-opacity="0.95"/><stop offset="40%" stop-color="#A07848" stop-opacity="0.9"/><stop offset="80%" stop-color="#5D4E20" stop-opacity="0.85"/><stop offset="100%" stop-color="#3D3018" stop-opacity="0.65"/></radialGradient>
      <radialGradient id="wcLeafNatto" cx="50%" cy="20%"><stop offset="0%" stop-color="#9BCB7A" stop-opacity="0.9"/><stop offset="60%" stop-color="#5D8F3D" stop-opacity="0.7"/><stop offset="100%" stop-color="#2C5F2D" stop-opacity="0.5"/></radialGradient>
      <filter id="wcRoughNatto" x="-10%" y="-10%" width="120%" height="120%">
        <feTurbulence baseFrequency="0.04" numOctaves="3" seed="163"/>
        <feDisplacementMap in="SourceGraphic" scale="4"/>
      </filter>
      <filter id="wcBlurNatto"><feGaussianBlur stdDeviation="1.5"/></filter>
    </defs>
    <g filter="url(#wcBlurNatto)" opacity="0.4"><ellipse cx="0" cy="10" rx="105" ry="75" fill="#A07848"/></g>
    
    <g filter="url(#wcRoughNatto)"><path d="M -75 50 m -15 0 a 15 12 0 1 0 30 0 a 15 12 0 1 0 -30 0 Z" fill="url(#wcBodyNatto)"/><path d="M -40 55 m -15 0 a 15 12 0 1 0 30 0 a 15 12 0 1 0 -30 0 Z" fill="url(#wcBodyNatto)"/><path d="M -5 50 m -15 0 a 15 12 0 1 0 30 0 a 15 12 0 1 0 -30 0 Z" fill="url(#wcBodyNatto)"/><path d="M 30 55 m -15 0 a 15 12 0 1 0 30 0 a 15 12 0 1 0 -30 0 Z" fill="url(#wcBodyNatto)"/><path d="M 65 50 m -15 0 a 15 12 0 1 0 30 0 a 15 12 0 1 0 -30 0 Z" fill="url(#wcBodyNatto)"/><path d="M -55 20 m -15 0 a 15 12 0 1 0 30 0 a 15 12 0 1 0 -30 0 Z" fill="url(#wcBodyNatto)"/><path d="M -22 25 m -15 0 a 15 12 0 1 0 30 0 a 15 12 0 1 0 -30 0 Z" fill="url(#wcBodyNatto)"/><path d="M 12 20 m -15 0 a 15 12 0 1 0 30 0 a 15 12 0 1 0 -30 0 Z" fill="url(#wcBodyNatto)"/><path d="M 45 25 m -15 0 a 15 12 0 1 0 30 0 a 15 12 0 1 0 -30 0 Z" fill="url(#wcBodyNatto)"/><path d="M -35 -10 m -15 0 a 15 12 0 1 0 30 0 a 15 12 0 1 0 -30 0 Z" fill="url(#wcBodyNatto)"/><path d="M -3 -5 m -15 0 a 15 12 0 1 0 30 0 a 15 12 0 1 0 -30 0 Z" fill="url(#wcBodyNatto)"/><path d="M 28 -10 m -15 0 a 15 12 0 1 0 30 0 a 15 12 0 1 0 -30 0 Z" fill="url(#wcBodyNatto)"/><path d="M -15 -35 m -15 0 a 15 12 0 1 0 30 0 a 15 12 0 1 0 -30 0 Z" fill="url(#wcBodyNatto)"/><path d="M 15 -35 m -15 0 a 15 12 0 1 0 30 0 a 15 12 0 1 0 -30 0 Z" fill="url(#wcBodyNatto)"/></g>
    <g stroke="#3D2817" stroke-width="3" fill="none" stroke-linecap="round" stroke-linejoin="round" opacity="0.9"><path d="M -75 50 m -15 0 a 15 12 0 1 0 30 0 a 15 12 0 1 0 -30 0"/><path d="M -40 55 m -15 0 a 15 12 0 1 0 30 0 a 15 12 0 1 0 -30 0"/><path d="M -5 50 m -15 0 a 15 12 0 1 0 30 0 a 15 12 0 1 0 -30 0"/><path d="M 30 55 m -15 0 a 15 12 0 1 0 30 0 a 15 12 0 1 0 -30 0"/><path d="M 65 50 m -15 0 a 15 12 0 1 0 30 0 a 15 12 0 1 0 -30 0"/><path d="M -55 20 m -15 0 a 15 12 0 1 0 30 0 a 15 12 0 1 0 -30 0"/><path d="M -22 25 m -15 0 a 15 12 0 1 0 30 0 a 15 12 0 1 0 -30 0"/><path d="M 12 20 m -15 0 a 15 12 0 1 0 30 0 a 15 12 0 1 0 -30 0"/><path d="M 45 25 m -15 0 a 15 12 0 1 0 30 0 a 15 12 0 1 0 -30 0"/><path d="M -35 -10 m -15 0 a 15 12 0 1 0 30 0 a 15 12 0 1 0 -30 0"/><path d="M -3 -5 m -15 0 a 15 12 0 1 0 30 0 a 15 12 0 1 0 -30 0"/><path d="M 28 -10 m -15 0 a 15 12 0 1 0 30 0 a 15 12 0 1 0 -30 0"/><path d="M -15 -35 m -15 0 a 15 12 0 1 0 30 0 a 15 12 0 1 0 -30 0"/><path d="M 15 -35 m -15 0 a 15 12 0 1 0 30 0 a 15 12 0 1 0 -30 0"/><path d="M -30 -50 Q -10 -65 10 -55 Q 30 -45 50 -55" opacity="0.7" stroke-width="1.4"/><path d="M 0 -55 Q 25 -75 45 -68" opacity="0.6" stroke-width="1.3"/></g>
</svg>
