<svg xmlns="http://www.w3.org/2000/svg" viewBox="-120 -110 240 220" font-family="Noto Sans CJK JP, sans-serif">
<defs>
      <radialGradient id="wcBodyNatto" cx="35%" cy="25%"><stop offset="0%" stop-color="#D8B888" stop-opacity="0.95"/><stop offset="40%" stop-color="#A07848" stop-opacity="0.9"/><stop offset="80%" stop-color="#5D4E20" stop-opacity="0.85"/><stop offset="100%" stop-color="#3D3018" stop-opacity="0.65"/></radialGradient>
      <radialGradient id="wcLeafNatto" cx="50%" cy="20%"><stop offset="0%" stop-color="#9BCB7A" stop-opacity="0.9"/><stop offset="60%" stop-color="#5D8F3D" stop-opacity="0.7"/><stop offset="100%" stop-color="#2C5F2D" stop-opacity="0.5"/></radialGradient>
      <filter id="wcRoughNatto" x="-10%" y="-10%" width="120%" height="120%">
        <feTurbulence baseFrequency="0.04" numOctaves="3" seed="163"/>
        <feDisplacementMap in="SourceGraphic" scale="4"/>
      </filter>
      <filter id="wcBlurNatto"><feGaussianBlur stdDeviation="1.5"/></filter>
    </defs>
    <g filter="url(#wcBlurNatto)" opacity="0.4"><ellipse cx="0" cy="15" rx="110" ry="85" fill="#8B6428"/></g>
    
    <g filter="url(#wcRoughNatto)"><path d="M -82 65 m -14 0 a 14 11 0 1 0 28 0 a 14 11 0 1 0 -28 0 Z" fill="url(#wcBodyNatto)"/><path d="M -52 70 m -15 0 a 15 12 0 1 0 30 0 a 15 12 0 1 0 -30 0 Z" fill="url(#wcBodyNatto)"/><path d="M -18 67 m -14 0 a 14 11 0 1 0 28 0 a 14 11 0 1 0 -28 0 Z" fill="url(#wcBodyNatto)"/><path d="M 18 70 m -15 0 a 15 12 0 1 0 30 0 a 15 12 0 1 0 -30 0 Z" fill="url(#wcBodyNatto)"/><path d="M 52 65 m -14 0 a 14 11 0 1 0 28 0 a 14 11 0 1 0 -28 0 Z" fill="url(#wcBodyNatto)"/><path d="M 80 60 m -13 0 a 13 10 0 1 0 26 0 a 13 10 0 1 0 -26 0 Z" fill="url(#wcBodyNatto)"/><path d="M -68 35 m -13 0 a 13 10 0 1 0 26 0 a 13 10 0 1 0 -26 0 Z" fill="url(#wcBodyNatto)"/><path d="M -38 38 m -14 0 a 14 11 0 1 0 28 0 a 14 11 0 1 0 -28 0 Z" fill="url(#wcBodyNatto)"/><path d="M -8 35 m -13 0 a 13 10 0 1 0 26 0 a 13 10 0 1 0 -26 0 Z" fill="url(#wcBodyNatto)"/><path d="M 22 38 m -14 0 a 14 11 0 1 0 28 0 a 14 11 0 1 0 -28 0 Z" fill="url(#wcBodyNatto)"/><path d="M 55 32 m -13 0 a 13 10 0 1 0 26 0 a 13 10 0 1 0 -26 0 Z" fill="url(#wcBodyNatto)"/><path d="M -50 5 m -13 0 a 13 10 0 1 0 26 0 a 13 10 0 1 0 -26 0 Z" fill="url(#wcBodyNatto)"/><path d="M -22 8 m -14 0 a 14 11 0 1 0 28 0 a 14 11 0 1 0 -28 0 Z" fill="url(#wcBodyNatto)"/><path d="M 8 5 m -13 0 a 13 10 0 1 0 26 0 a 13 10 0 1 0 -26 0 Z" fill="url(#wcBodyNatto)"/><path d="M 38 8 m -13 0 a 13 10 0 1 0 26 0 a 13 10 0 1 0 -26 0 Z" fill="url(#wcBodyNatto)"/><path d="M -30 -22 m -12 0 a 12 9 0 1 0 24 0 a 12 9 0 1 0 -24 0 Z" fill="url(#wcBodyNatto)"/><path d="M 0 -25 m -13 0 a 13 10 0 1 0 26 0 a 13 10 0 1 0 -26 0 Z" fill="url(#wcBodyNatto)"/><path d="M 28 -20 m -12 0 a 12 9 0 1 0 24 0 a 12 9 0 1 0 -24 0 Z" fill="url(#wcBodyNatto)"/><path d="M -8 -50 m -11 0 a 11 9 0 1 0 22 0 a 11 9 0 1 0 -22 0 Z" fill="url(#wcBodyNatto)"/><path d="M 18 -48 m -11 0 a 11 9 0 1 0 22 0 a 11 9 0 1 0 -22 0 Z" fill="url(#wcBodyNatto)"/></g>
    <g stroke="#3D2817" stroke-width="3" fill="none" stroke-linecap="round" stroke-linejoin="round" opacity="0.9"><path d="M -82 65 m -14 0 a 14 11 0 1 0 28 0 a 14 11 0 1 0 -28 0"/><path d="M -52 70 m -15 0 a 15 12 0 1 0 30 0 a 15 12 0 1 0 -30 0"/><path d="M -18 67 m -14 0 a 14 11 0 1 0 28 0 a 14 11 0 1 0 -28 0"/><path d="M 18 70 m -15 0 a 15 12 0 1 0 30 0 a 15 12 0 1 0 -30 0"/><path d="M 52 65 m -14 0 a 14 11 0 1 0 28 0 a 14 11 0 1 0 -28 0"/><path d="M 80 60 m -13 0 a 13 10 0 1 0 26 0 a 13 10 0 1 0 -26 0"/><path d="M -68 35 m -13 0 a 13 10 0 1 0 26 0 a 13 10 0 1 0 -26 0"/><path d="M -38 38 m -14 0 a 14 11 0 1 0 28 0 a 14 11 0 1 0 -28 0"/><path d="M -8 35 m -13 0 a 13 10 0 1 0 26 0 a 13 10 0 1 0 -26 0"/><path d="M 22 38 m -14 0 a 14 11 0 1 0 28 0 a 14 11 0 1 0 -28 0"/><path d="M 55 32 m -13 0 a 13 10 0 1 0 26 0 a 13 10 0 1 0 -26 0"/><path d="M -50 5 m -13 0 a 13 10 0 1 0 26 0 a 13 10 0 1 0 -26 0"/><path d="M -22 8 m -14 0 a 14 11 0 1 0 28 0 a 14 11 0 1 0 -28 0"/><path d="M 8 5 m -13 0 a 13 10 0 1 0 26 0 a 13 10 0 1 0 -26 0"/><path d="M 38 8 m -13 0 a 13 10 0 1 0 26 0 a 13 10 0 1 0 -26 0"/><path d="M -30 -22 m -12 0 a 12 9 0 1 0 24 0 a 12 9 0 1 0 -24 0"/><path d="M 0 -25 m -13 0 a 13 10 0 1 0 26 0 a 13 10 0 1 0 -26 0"/><path d="M 28 -20 m -12 0 a 12 9 0 1 0 24 0 a 12 9 0 1 0 -24 0"/><path d="M -8 -50 m -11 0 a 11 9 0 1 0 22 0 a 11 9 0 1 0 -22 0"/><path d="M 18 -48 m -11 0 a 11 9 0 1 0 22 0 a 11 9 0 1 0 -22 0"/><path d="M -10 -55 Q -25 -85 -50 -100" opacity="0.55" stroke-width="1.2"/><path d="M 5 -55 Q 0 -90 15 -110" opacity="0.55" stroke-width="1.2"/><path d="M 20 -50 Q 45 -75 70 -90" opacity="0.55" stroke-width="1.2"/><path d="M -65 -10 Q -45 -30 -25 -22" opacity="0.5" stroke-width="1"/><path d="M 5 -25 Q 25 -38 35 -22" opacity="0.5" stroke-width="1"/><path d="M -22 8 Q -12 -10 5 5" opacity="0.45" stroke-width="1"/><path d="M 8 5 Q 22 -8 38 8" opacity="0.45" stroke-width="1"/><path d="M -38 38 Q -22 25 -8 35" opacity="0.45" stroke-width="1"/><path d="M 22 38 Q 38 25 55 32" opacity="0.45" stroke-width="1"/><path d="M -52 70 Q -38 55 -18 67" opacity="0.45" stroke-width="1"/><path d="M 18 70 Q 35 55 52 65" opacity="0.45" stroke-width="1"/><path d="M -82 60 Q 0 30 80 55" opacity="0.4" stroke-width="1.1"/></g>
</svg>
