<svg xmlns="http://www.w3.org/2000/svg" viewBox="-120 -100 240 200" font-family="Noto Sans CJK JP, sans-serif">
<path d="M -75 50 m -15 0 a 15 12 0 1 0 30 0 a 15 12 0 1 0 -30 0 Z" fill="#988050"/><path d="M -40 55 m -15 0 a 15 12 0 1 0 30 0 a 15 12 0 1 0 -30 0 Z" fill="#988050"/><path d="M -5 50 m -15 0 a 15 12 0 1 0 30 0 a 15 12 0 1 0 -30 0 Z" fill="#988050"/><path d="M 30 55 m -15 0 a 15 12 0 1 0 30 0 a 15 12 0 1 0 -30 0 Z" fill="#988050"/><path d="M 65 50 m -15 0 a 15 12 0 1 0 30 0 a 15 12 0 1 0 -30 0 Z" fill="#988050"/><path d="M -55 20 m -15 0 a 15 12 0 1 0 30 0 a 15 12 0 1 0 -30 0 Z" fill="#988050"/><path d="M -22 25 m -15 0 a 15 12 0 1 0 30 0 a 15 12 0 1 0 -30 0 Z" fill="#988050"/><path d="M 12 20 m -15 0 a 15 12 0 1 0 30 0 a 15 12 0 1 0 -30 0 Z" fill="#988050"/><path d="M 45 25 m -15 0 a 15 12 0 1 0 30 0 a 15 12 0 1 0 -30 0 Z" fill="#988050"/><path d="M -35 -10 m -15 0 a 15 12 0 1 0 30 0 a 15 12 0 1 0 -30 0 Z" fill="#988050"/><path d="M -3 -5 m -15 0 a 15 12 0 1 0 30 0 a 15 12 0 1 0 -30 0 Z" fill="#988050"/><path d="M 28 -10 m -15 0 a 15 12 0 1 0 30 0 a 15 12 0 1 0 -30 0 Z" fill="#988050"/><ellipse cx="-50" cy="0" rx="22" ry="12" fill="#3D3018" opacity="0.6"/><ellipse cx="30" cy="-10" rx="18" ry="10" fill="#3D3018" opacity="0.55"/>
</svg>
