<svg xmlns="http://www.w3.org/2000/svg" viewBox="-130 -120 260 240" font-family="Noto Sans CJK JP, sans-serif">
<path d="M -82 65 m -14 0 a 14 11 0 1 0 28 0 a 14 11 0 1 0 -28 0 Z" fill="#988050"/><path d="M -52 70 m -15 0 a 15 12 0 1 0 30 0 a 15 12 0 1 0 -30 0 Z" fill="#988050"/><path d="M -18 67 m -14 0 a 14 11 0 1 0 28 0 a 14 11 0 1 0 -28 0 Z" fill="#988050"/><path d="M 18 70 m -15 0 a 15 12 0 1 0 30 0 a 15 12 0 1 0 -30 0 Z" fill="#988050"/><path d="M 52 65 m -14 0 a 14 11 0 1 0 28 0 a 14 11 0 1 0 -28 0 Z" fill="#988050"/><path d="M -68 35 m -13 0 a 13 10 0 1 0 26 0 a 13 10 0 1 0 -26 0 Z" fill="#988050"/><path d="M -38 38 m -14 0 a 14 11 0 1 0 28 0 a 14 11 0 1 0 -28 0 Z" fill="#988050"/><path d="M -8 35 m -13 0 a 13 10 0 1 0 26 0 a 13 10 0 1 0 -26 0 Z" fill="#988050"/><path d="M 22 38 m -14 0 a 14 11 0 1 0 28 0 a 14 11 0 1 0 -28 0 Z" fill="#988050"/><path d="M -22 8 m -14 0 a 14 11 0 1 0 28 0 a 14 11 0 1 0 -28 0 Z" fill="#988050"/><path d="M 8 5 m -13 0 a 13 10 0 1 0 26 0 a 13 10 0 1 0 -26 0 Z" fill="#988050"/><path d="M 0 -25 m -13 0 a 13 10 0 1 0 26 0 a 13 10 0 1 0 -26 0 Z" fill="#988050"/><ellipse cx="-55" cy="0" rx="22" ry="14" fill="#3D3018" opacity="0.6"/><ellipse cx="35" cy="-10" rx="18" ry="12" fill="#3D3018" opacity="0.55"/>
</svg>
