<svg xmlns="http://www.w3.org/2000/svg" viewBox="-145 -210 290 380" font-family="Noto Sans CJK JP, sans-serif">
<!-- 上から伸びた緑の芽 -->
    <g stroke="#7AAB45" stroke-width="3" fill="none" stroke-linecap="round">
      <path d="M -8 -148 Q -12 -170 -18 -190"/>
      <path d="M 0 -150 Q 0 -180 -2 -200"/>
      <path d="M 8 -148 Q 14 -170 20 -190"/>
    </g>
    <path d="M -10 -148 Q 0 -152 10 -148 L 8 -135 Q 0 -132 -8 -135 Z" fill="#8A6028" stroke="#3D2817" stroke-width="2"/>

    <!-- 一番外側(変色した茶色) -->
    <ellipse cx="0" cy="0" rx="125" ry="135" fill="#A88058"/>
    <ellipse cx="0" cy="2" rx="113" ry="123" fill="#B89868"/>

    <!-- 内側の層(変色) -->
    <ellipse cx="0" cy="3" rx="100" ry="110" fill="#D8C898"/>
    <ellipse cx="0" cy="4" rx="82" ry="92" fill="#C8B888"/>
    <ellipse cx="0" cy="5" rx="62" ry="72" fill="#B8A878"/>
    <ellipse cx="0" cy="6" rx="40" ry="48" fill="#A89868"/>

    <!-- 中心の芯から伸びる芽の通り道(青緑の腐敗線) -->
    <path d="M 0 -130 Q 0 0 0 100" stroke="#5A6A35" stroke-width="3" fill="none" opacity="0.65"/>

    <!-- 茶色のシミ・腐敗 -->
    <ellipse cx="-30" cy="-30" rx="14" ry="18" fill="#5A3215" opacity="0.7"/>
    <ellipse cx="35" cy="40" rx="12" ry="16" fill="#5A3215" opacity="0.65"/>
    <ellipse cx="-15" cy="80" rx="11" ry="9" fill="#5A3215" opacity="0.6"/>
    <!-- 黒い斑点(カビ) -->
    <circle cx="-50" cy="20" r="4" fill="#1F1812" opacity="0.75"/>
    <circle cx="40" cy="-40" r="3.5" fill="#1F1812" opacity="0.7"/>
    <circle cx="20" cy="100" r="3" fill="#1F1812" opacity="0.65"/>

    <!-- 層の境界線 -->
    <g stroke="#5A3A15" stroke-width="2" fill="none" stroke-linecap="round" opacity="0.7">
      <ellipse cx="0" cy="2" rx="113" ry="123"/>
      <ellipse cx="0" cy="3" rx="100" ry="110"/>
      <ellipse cx="0" cy="4" rx="82" ry="92"/>
      <ellipse cx="0" cy="5" rx="62" ry="72"/>
      <ellipse cx="0" cy="6" rx="40" ry="48"/>
    </g>

    <!-- 外側の輪郭 -->
    <ellipse cx="0" cy="0" rx="125" ry="135" stroke="#3D2817" stroke-width="3" fill="none"/>

    <!-- ひげ根の切り口(伸びる) -->
    <g stroke="#5A3A15" stroke-width="2" fill="none" stroke-linecap="round">
      <line x1="-15" y1="135" x2="-18" y2="158"/>
      <line x1="-5" y1="135" x2="-7" y2="160"/>
      <line x1="5" y1="135" x2="7" y2="160"/>
      <line x1="15" y1="135" x2="18" y2="158"/>
    </g>
</svg>
