<svg xmlns="http://www.w3.org/2000/svg" viewBox="-130 -180 260 320" font-family="Noto Sans CJK JP, sans-serif">
<defs>
      <radialGradient id="wcBodyOnion" cx="35%" cy="25%"><stop offset="0%" stop-color="#F8E8C8" stop-opacity="0.95"/><stop offset="40%" stop-color="#E0C088" stop-opacity="0.9"/><stop offset="80%" stop-color="#B89058" stop-opacity="0.85"/><stop offset="100%" stop-color="#7E5A2A" stop-opacity="0.7"/></radialGradient>
      <radialGradient id="wcLeafOnion" cx="50%" cy="20%"><stop offset="0%" stop-color="#9BCB7A" stop-opacity="0.9"/><stop offset="60%" stop-color="#5D8F3D" stop-opacity="0.7"/><stop offset="100%" stop-color="#2C5F2D" stop-opacity="0.5"/></radialGradient>
      <filter id="wcRoughOnion" x="-10%" y="-10%" width="120%" height="120%">
        <feTurbulence baseFrequency="0.04" numOctaves="3" seed="13"/>
        <feDisplacementMap in="SourceGraphic" scale="4"/>
      </filter>
      <filter id="wcBlurOnion"><feGaussianBlur stdDeviation="1.5"/></filter>
    </defs>
    <g filter="url(#wcBlurOnion)" opacity="0.4"><ellipse cx="0" cy="10" rx="100" ry="110" fill="#E0C088"/><ellipse cx="0" cy="-130" rx="25" ry="18" fill="#5D8F3D"/></g>
    <g filter="url(#wcRoughOnion)" opacity="0.8"><path d="M -8 -130 L -3 -160 L 0 -130 Z" fill="url(#wcLeafOnion)"/><path d="M 0 -130 L 5 -158 L 8 -130 Z" fill="url(#wcLeafOnion)"/></g>
    <g filter="url(#wcRoughOnion)"><path d="M -85 -50 Q -90 60 0 110 Q 90 60 85 -50 Q 75 -120 0 -130 Q -75 -120 -85 -50 Z" fill="url(#wcBodyOnion)"/></g>
    <g stroke="#3D2817" stroke-width="3" fill="none" stroke-linecap="round" stroke-linejoin="round" opacity="0.9"><path d="M -85 -50 Q -90 60 0 110 Q 90 60 85 -50 Q 75 -120 0 -130 Q -75 -120 -85 -50 Z"/><path d="M -10 -130 L -3 -160 L 3 -160 L 10 -130" opacity="0.7" stroke-width="2"/><path d="M -55 -100 Q -50 0 -55 100" opacity="0.5" stroke-width="1.2"/><path d="M -25 -120 Q -20 0 -25 110" opacity="0.5" stroke-width="1.2"/><path d="M 25 -120 Q 20 0 25 110" opacity="0.5" stroke-width="1.2"/><path d="M 55 -100 Q 50 0 55 100" opacity="0.5" stroke-width="1.2"/><path d="M -20 110 L -25 130" opacity="0.7" stroke-width="2"/><path d="M -8 112 L -10 135" opacity="0.7" stroke-width="2"/><path d="M 5 112 L 5 138" opacity="0.7" stroke-width="2"/><path d="M 18 112 L 22 135" opacity="0.7" stroke-width="2"/><path d="M 30 110 L 38 130" opacity="0.7" stroke-width="2"/></g>
</svg>
