<svg xmlns="http://www.w3.org/2000/svg" viewBox="-110 -120 220 240" font-family="Noto Sans CJK JP, sans-serif">
<defs>
      <radialGradient id="wcBodyPeach" cx="35%" cy="25%"><stop offset="0%" stop-color="#FFEDE5" stop-opacity="0.95"/><stop offset="40%" stop-color="#FCC8B8" stop-opacity="0.9"/><stop offset="80%" stop-color="#F8AAA0" stop-opacity="0.85"/><stop offset="100%" stop-color="#D08070" stop-opacity="0.65"/></radialGradient>
      <radialGradient id="wcLeafPeach" cx="50%" cy="20%"><stop offset="0%" stop-color="#9BCB7A" stop-opacity="0.9"/><stop offset="60%" stop-color="#5D8F3D" stop-opacity="0.7"/><stop offset="100%" stop-color="#2C5F2D" stop-opacity="0.5"/></radialGradient>
      <filter id="wcRoughPeach" x="-10%" y="-10%" width="120%" height="120%">
        <feTurbulence baseFrequency="0.04" numOctaves="3" seed="139"/>
        <feDisplacementMap in="SourceGraphic" scale="4"/>
      </filter>
      <filter id="wcBlurPeach"><feGaussianBlur stdDeviation="1.5"/></filter>
    </defs>
    <g filter="url(#wcBlurPeach)" opacity="0.4"><ellipse cx="0" cy="0" rx="95" ry="95" fill="#FCC8B8"/></g>
    <g filter="url(#wcRoughPeach)" opacity="0.8"><path d="M 5 -90 Q 18 -100 25 -85 Q 18 -78 8 -83 Z" fill="url(#wcLeafPeach)"/></g>
    <g filter="url(#wcRoughPeach)"><path d="M 0 -95 Q -85 -85 -90 -10 Q -90 75 0 95 Q 90 75 90 -10 Q 85 -85 0 -95 Z" fill="url(#wcBodyPeach)"/></g>
    
    <g stroke="#3D2817" stroke-width="3" fill="none" stroke-linecap="round" stroke-linejoin="round" opacity="0.9"><path d="M 0 -95 Q -85 -85 -90 -10 Q -90 75 0 95 Q 90 75 90 -10 Q 85 -85 0 -95 Z"/><path d="M 0 -95 Q 5 0 0 95" opacity="0.65" stroke-width="1.6"/><path d="M 0 -95 L -3 -110" opacity="0.85" stroke-width="2.5"/><path d="M 5 -90 Q 18 -100 25 -85 Q 18 -78 8 -83" opacity="0.85" stroke-width="2"/><path d="M -50 -40 L -47 -38" opacity="0.5" stroke-width="1.3"/><path d="M -30 30 L -27 32" opacity="0.5" stroke-width="1.3"/><path d="M 40 -20 L 43 -18" opacity="0.5" stroke-width="1.3"/><path d="M 30 50 L 33 52" opacity="0.5" stroke-width="1.3"/></g>
</svg>
