<svg xmlns="http://www.w3.org/2000/svg" viewBox="-100 -130 200 250" font-family="Noto Sans CJK JP, sans-serif">
<defs>
      <radialGradient id="wcBodyPear" cx="35%" cy="25%"><stop offset="0%" stop-color="#FFF5DC" stop-opacity="0.95"/><stop offset="40%" stop-color="#F0DEB0" stop-opacity="0.9"/><stop offset="80%" stop-color="#D4B880" stop-opacity="0.85"/><stop offset="100%" stop-color="#9A7848" stop-opacity="0.65"/></radialGradient>
      <radialGradient id="wcLeafPear" cx="50%" cy="20%"><stop offset="0%" stop-color="#9BCB7A" stop-opacity="0.9"/><stop offset="60%" stop-color="#5D8F3D" stop-opacity="0.7"/><stop offset="100%" stop-color="#2C5F2D" stop-opacity="0.5"/></radialGradient>
      <filter id="wcRoughPear" x="-10%" y="-10%" width="120%" height="120%">
        <feTurbulence baseFrequency="0.04" numOctaves="3" seed="151"/>
        <feDisplacementMap in="SourceGraphic" scale="4"/>
      </filter>
      <filter id="wcBlurPear"><feGaussianBlur stdDeviation="1.5"/></filter>
    </defs>
    <g filter="url(#wcBlurPear)" opacity="0.4"><ellipse cx="0" cy="0" rx="90" ry="105" fill="#E0C088"/></g>
    
    <g filter="url(#wcRoughPear)"><path d="M 0 -100 Q -25 -95 -45 -80 Q -85 -55 -85 0 Q -90 70 0 100 Q 90 70 85 0 Q 85 -55 45 -80 Q 25 -95 0 -100 Z" fill="url(#wcBodyPear)"/></g>
    <g stroke="#3D2817" stroke-width="3" fill="none" stroke-linecap="round" stroke-linejoin="round" opacity="0.9"><path d="M 0 -100 Q -25 -95 -45 -80 Q -85 -55 -85 0 Q -90 70 0 100 Q 90 70 85 0 Q 85 -55 45 -80 Q 25 -95 0 -100 Z"/><path d="M 0 -100 L -3 -118" opacity="0.85" stroke-width="2.5"/><path d="M -20 -90 Q 0 -85 20 -90" opacity="0.5" stroke-width="1.4"/><path d="M -45 -30 L -42 -28" opacity="0.7" stroke-width="1.8"/><path d="M -20 0 L -17 2" opacity="0.6" stroke-width="1.6"/><path d="M 25 -20 L 28 -18" opacity="0.6" stroke-width="1.6"/><path d="M 50 30 L 53 32" opacity="0.6" stroke-width="1.6"/><path d="M -25 50 L -22 52" opacity="0.6" stroke-width="1.6"/><path d="M 30 70 L 33 72" opacity="0.6" stroke-width="1.6"/></g>
</svg>
