<svg xmlns="http://www.w3.org/2000/svg" viewBox="-110 -130 220 240" font-family="Noto Sans CJK JP, sans-serif">
<defs>
      <radialGradient id="wcBodyPiman" cx="35%" cy="25%"><stop offset="0%" stop-color="#D4E8B5" stop-opacity="0.95"/><stop offset="40%" stop-color="#9BCB7A" stop-opacity="0.9"/><stop offset="80%" stop-color="#5D8F3D" stop-opacity="0.85"/><stop offset="100%" stop-color="#2C5F2D" stop-opacity="0.65"/></radialGradient>
      <radialGradient id="wcLeafPiman" cx="50%" cy="20%"><stop offset="0%" stop-color="#9BCB7A" stop-opacity="0.9"/><stop offset="60%" stop-color="#5D8F3D" stop-opacity="0.7"/><stop offset="100%" stop-color="#2C5F2D" stop-opacity="0.5"/></radialGradient>
      <filter id="wcRoughPiman" x="-10%" y="-10%" width="120%" height="120%">
        <feTurbulence baseFrequency="0.04" numOctaves="3" seed="67"/>
        <feDisplacementMap in="SourceGraphic" scale="4"/>
      </filter>
      <filter id="wcBlurPiman"><feGaussianBlur stdDeviation="1.5"/></filter>
    </defs>
    <g filter="url(#wcBlurPiman)" opacity="0.4"><ellipse cx="0" cy="10" rx="80" ry="80" fill="#9BCB7A"/><ellipse cx="0" cy="-90" rx="25" ry="18" fill="#5D8F3D"/></g>
    <g filter="url(#wcRoughPiman)" opacity="0.8"><path d="M -10 -90 L -15 -110 L 0 -100 L 15 -110 L 10 -90 Z" fill="url(#wcLeafPiman)"/></g>
    <g filter="url(#wcRoughPiman)"><path d="M -75 -50 Q -85 60 -45 85 Q -25 75 0 80 Q 25 75 45 85 Q 85 60 75 -50 Q 65 -85 30 -85 Q 10 -78 0 -85 Q -10 -78 -30 -85 Q -65 -85 -75 -50 Z" fill="url(#wcBodyPiman)"/></g>
    <g stroke="#3D2817" stroke-width="3" fill="none" stroke-linecap="round" stroke-linejoin="round" opacity="0.9"><path d="M -75 -50 Q -85 60 -45 85 Q -25 75 0 80 Q 25 75 45 85 Q 85 60 75 -50 Q 65 -85 30 -85 Q 10 -78 0 -85 Q -10 -78 -30 -85 Q -65 -85 -75 -50 Z"/><path d="M 0 -85 L 0 -105" opacity="0.85" stroke-width="2.5"/><path d="M -10 -90 L -15 -110" opacity="0.85" stroke-width="2"/><path d="M 0 -100 L 0 -85" opacity="0.85" stroke-width="2"/><path d="M 15 -110 L 10 -90" opacity="0.85" stroke-width="2"/><path d="M -50 -75 Q -55 0 -45 75" opacity="0.5" stroke-width="1.3"/><path d="M 0 -85 Q 0 0 0 80" opacity="0.5" stroke-width="1.3"/><path d="M 50 -75 Q 55 0 45 75" opacity="0.5" stroke-width="1.3"/></g>
</svg>
