<svg xmlns="http://www.w3.org/2000/svg" viewBox="-110 -130 220 240" font-family="Noto Sans CJK JP, sans-serif">
<path d="M -75 -50 Q -85 60 -45 85 Q -25 75 0 80 Q 25 75 45 85 Q 85 60 75 -50 Q 65 -85 30 -85 Q 10 -78 0 -85 Q -10 -78 -30 -85 Q -65 -85 -75 -50 Z" fill="#88A858"/><path d="M -10 -90 L -15 -108 L 0 -98 L 15 -108 L 10 -90 Z" fill="#A0A040"/><ellipse cx="-20" cy="30" rx="18" ry="14" fill="#7A5520" opacity="0.45"/><path d="M -50 0 Q 0 8 50 0" stroke="#5D4E37" stroke-width="1.5" fill="none" opacity="0.55"/><path d="M -45 30 Q 0 35 45 30" stroke="#5D4E37" stroke-width="1.5" fill="none" opacity="0.55"/>
</svg>
