<svg xmlns="http://www.w3.org/2000/svg" viewBox="-130 -110 260 220" font-family="Noto Sans CJK JP, sans-serif">
<path d="M -90 -45 Q -100 0 -90 50 Q 0 75 90 50 Q 100 0 90 -45 Q 0 -65 -90 -45 Z" fill="#A87878"/><ellipse cx="-30" cy="0" rx="25" ry="18" fill="#5D4E37" opacity="0.4"/><ellipse cx="35" cy="15" rx="18" ry="12" fill="#5D4E37" opacity="0.4"/><ellipse cx="0" cy="70" rx="50" ry="8" fill="#A03828" opacity="0.55"/>
  
    <!-- animal-icon: pork (snout + ear) -->
    <g transform="translate(88, 72)" data-icon="pork">
      <circle cx="0" cy="0" r="38" fill="#FFFFFF" fill-opacity="0.96" stroke="#3D2817" stroke-width="2"/>
      <path d="M -11 -16 L -3 -25 L 0 -11 Z" fill="#F8B0A0" stroke="#3D2817" stroke-width="2" stroke-linejoin="round"/>
      <path d="M -20 0 Q -20 -14 -6 -17 Q 11 -17 20 -6 Q 25 8 17 17 Q 0 20 -14 14 Q -22 6 -20 0 Z" fill="#F8B0A0" stroke="#3D2817" stroke-width="2"/>
      <ellipse cx="20" cy="6" rx="10" ry="8" fill="#F08878" stroke="#3D2817" stroke-width="2"/>
      <ellipse cx="20" cy="3" rx="1.4" ry="1.8" fill="#3D2817"/>
      <ellipse cx="20" cy="9" rx="1.4" ry="1.8" fill="#3D2817"/>
      <circle cx="3" cy="-4" r="2.3" fill="#3D2817"/>
    </g>
</svg>
