<svg xmlns="http://www.w3.org/2000/svg" viewBox="-130 -150 260 270" font-family="Noto Sans CJK JP, sans-serif">
<!-- Skin (faded green) -->
    <path d="M -110 0 Q -115 80 0 95 Q 115 80 110 0 Q 100 -75 0 -85 Q -100 -75 -110 0 Z M -98 0 Q -103 68 0 82 Q 103 68 98 0 Q 88 -65 0 -73 Q -88 -65 -98 0 Z" fill="#5A7048" fill-rule="evenodd"/>
    <!-- Flesh (pale, watery) -->
    <path d="M -98 0 Q -103 68 0 82 Q 103 68 98 0 Q 88 -65 0 -73 Q -88 -65 -98 0 Z" fill="#F2C895"/>
    <!-- Empty/wet cavity (no plump seeds) -->
    <ellipse cx="0" cy="-3" rx="58" ry="40" fill="#D8B080" opacity="0.7"/>
    <!-- A few shriveled/dark seeds -->
    <g fill="#A88860" stroke="#5D4520" stroke-width="0.8" opacity="0.85">
      <ellipse cx="-20" cy="-8" rx="5" ry="7" transform="rotate(-15 -20 -8)"/>
      <ellipse cx="22" cy="6" rx="5" ry="7" transform="rotate(20 22 6)"/>
      <ellipse cx="-12" cy="18" rx="5" ry="7" transform="rotate(-5 -12 18)"/>
    </g>
    <!-- Mold patches -->
    <ellipse cx="-50" cy="40" rx="14" ry="9" fill="#3D5530" opacity="0.55"/>
    <ellipse cx="40" cy="-30" rx="9" ry="6" fill="#3D5530" opacity="0.5"/>
    <ellipse cx="55" cy="40" rx="8" ry="5" fill="#5A4030" opacity="0.5"/>
    <!-- Limp stem -->
    <path d="M -8 -85 L -8 -100" stroke="#5D4530" stroke-width="2.5" fill="none"/>
    <!-- Weak outline -->
    <path d="M -110 0 Q -115 80 0 95 Q 115 80 110 0 Q 100 -75 0 -85 Q -100 -75 -110 0 Z" stroke="#3D2817" stroke-width="2.5" fill="none" opacity="0.7"/>
</svg>
