<svg xmlns="http://www.w3.org/2000/svg" viewBox="-130 -150 260 270" font-family="Noto Sans CJK JP, sans-serif">
<defs>
      <radialGradient id="wcBodyPumpkin" cx="35%" cy="25%"><stop offset="0%" stop-color="#7BAB46" stop-opacity="0.95"/><stop offset="40%" stop-color="#4A7C2E" stop-opacity="0.9"/><stop offset="80%" stop-color="#2C5F2D" stop-opacity="0.85"/><stop offset="100%" stop-color="#1A3F1A" stop-opacity="0.7"/></radialGradient>
      <radialGradient id="wcLeafPumpkin" cx="50%" cy="20%"><stop offset="0%" stop-color="#9BCB7A" stop-opacity="0.9"/><stop offset="60%" stop-color="#5D8F3D" stop-opacity="0.7"/><stop offset="100%" stop-color="#2C5F2D" stop-opacity="0.5"/></radialGradient>
      <filter id="wcRoughPumpkin" x="-10%" y="-10%" width="120%" height="120%">
        <feTurbulence baseFrequency="0.04" numOctaves="3" seed="79"/>
        <feDisplacementMap in="SourceGraphic" scale="4"/>
      </filter>
      <filter id="wcBlurPumpkin"><feGaussianBlur stdDeviation="1.5"/></filter>
    </defs>
    <g filter="url(#wcBlurPumpkin)" opacity="0.4"><ellipse cx="0" cy="0" rx="120" ry="95" fill="#5D8F3D"/></g>
    
    <g filter="url(#wcRoughPumpkin)"><path d="M -110 0 Q -115 70 0 95 Q 115 70 110 0 Q 100 -75 0 -85 Q -100 -75 -110 0 Z" fill="url(#wcBodyPumpkin)"/></g>
    
    <g stroke="#3D2817" stroke-width="3" fill="none" stroke-linecap="round" stroke-linejoin="round" opacity="0.9"><path d="M -110 0 Q -115 70 0 95 Q 115 70 110 0 Q 100 -75 0 -85 Q -100 -75 -110 0 Z"/><path d="M -8 -85 L -10 -120 L 10 -118 L 8 -85" opacity="0.85" stroke-width="2.5"/><path d="M -90 -50 Q -85 30 -85 75" opacity="0.65" stroke-width="1.6"/><path d="M -55 -75 Q -50 30 -50 90" opacity="0.65" stroke-width="1.6"/><path d="M -20 -85 Q -15 30 -18 95" opacity="0.65" stroke-width="1.6"/><path d="M 20 -85 Q 15 30 18 95" opacity="0.65" stroke-width="1.6"/><path d="M 55 -75 Q 50 30 50 90" opacity="0.65" stroke-width="1.6"/><path d="M 90 -50 Q 85 30 85 75" opacity="0.65" stroke-width="1.6"/></g>
</svg>
