<svg xmlns="http://www.w3.org/2000/svg" viewBox="-140 -90 280 180" font-family="Noto Sans CJK JP, sans-serif">
<defs>
      <radialGradient id="wcBodySalmon" cx="35%" cy="25%"><stop offset="0%" stop-color="#FFD8C0" stop-opacity="0.95"/><stop offset="40%" stop-color="#FFA070" stop-opacity="0.9"/><stop offset="80%" stop-color="#E07050" stop-opacity="0.85"/><stop offset="100%" stop-color="#A04030" stop-opacity="0.65"/></radialGradient>
      <radialGradient id="wcLeafSalmon" cx="50%" cy="20%"><stop offset="0%" stop-color="#9BCB7A" stop-opacity="0.9"/><stop offset="60%" stop-color="#5D8F3D" stop-opacity="0.7"/><stop offset="100%" stop-color="#2C5F2D" stop-opacity="0.5"/></radialGradient>
      <filter id="wcRoughSalmon" x="-10%" y="-10%" width="120%" height="120%">
        <feTurbulence baseFrequency="0.04" numOctaves="3" seed="181"/>
        <feDisplacementMap in="SourceGraphic" scale="4"/>
      </filter>
      <filter id="wcBlurSalmon"><feGaussianBlur stdDeviation="1.5"/></filter>
    </defs>
    <g filter="url(#wcBlurSalmon)" opacity="0.4"><ellipse cx="0" cy="0" rx="125" ry="70" fill="#FFA070"/></g>
    
    <g filter="url(#wcRoughSalmon)"><path d="M -120 -50 Q -130 -10 -120 30 Q -100 55 -50 60 L 100 55 Q 130 50 125 0 Q 120 -50 80 -55 Q 0 -60 -120 -50 Z" fill="url(#wcBodySalmon)"/></g>
    <g stroke="#3D2817" stroke-width="3" fill="none" stroke-linecap="round" stroke-linejoin="round" opacity="0.9"><path d="M -120 -50 Q -130 -10 -120 30 Q -100 55 -50 60 L 100 55 Q 130 50 125 0 Q 120 -50 80 -55 Q 0 -60 -120 -50 Z"/><path d="M -100 -30 Q 0 -20 100 -30" opacity="0.75" stroke-width="2.2"/><path d="M -100 -5 Q 0 0 100 -5" opacity="0.75" stroke-width="2.2"/><path d="M -100 25 Q 0 30 100 25" opacity="0.75" stroke-width="2.2"/><path d="M -110 50 Q 0 58 105 52" opacity="0.7" stroke-width="2"/></g>
</svg>
