<svg xmlns="http://www.w3.org/2000/svg" viewBox="-110 -130 220 240" font-family="Noto Sans CJK JP, sans-serif">
<defs>
      <radialGradient id="wcBodyShiitake" cx="35%" cy="25%"><stop offset="0%" stop-color="#D8B89A" stop-opacity="0.95"/><stop offset="40%" stop-color="#A07848" stop-opacity="0.9"/><stop offset="80%" stop-color="#7E5A2A" stop-opacity="0.85"/><stop offset="100%" stop-color="#4F3A1F" stop-opacity="0.65"/></radialGradient>
      <radialGradient id="wcLeafShiitake" cx="50%" cy="20%"><stop offset="0%" stop-color="#9BCB7A" stop-opacity="0.9"/><stop offset="60%" stop-color="#5D8F3D" stop-opacity="0.7"/><stop offset="100%" stop-color="#2C5F2D" stop-opacity="0.5"/></radialGradient>
      <filter id="wcRoughShiitake" x="-10%" y="-10%" width="120%" height="120%">
        <feTurbulence baseFrequency="0.04" numOctaves="3" seed="83"/>
        <feDisplacementMap in="SourceGraphic" scale="4"/>
      </filter>
      <filter id="wcBlurShiitake"><feGaussianBlur stdDeviation="1.5"/></filter>
    </defs>
    <g filter="url(#wcBlurShiitake)" opacity="0.4"><ellipse cx="0" cy="-30" rx="100" ry="50" fill="#A07848"/></g>
    
    <g filter="url(#wcRoughShiitake)"><path d="M -80 -40 Q -85 -90 0 -100 Q 85 -90 80 -40 Q 70 -10 0 -10 Q -70 -10 -80 -40 Z" fill="url(#wcBodyShiitake)"/><path d="M -20 -10 Q -22 50 -15 80 L 15 80 Q 22 50 20 -10 Z" fill="url(#wcBodyShiitake)"/></g>
    <g stroke="#3D2817" stroke-width="3" fill="none" stroke-linecap="round" stroke-linejoin="round" opacity="0.9"><path d="M -80 -40 Q -85 -90 0 -100 Q 85 -90 80 -40 Q 70 -10 0 -10 Q -70 -10 -80 -40 Z"/><path d="M -20 -10 Q -22 50 -15 80 L 15 80 Q 22 50 20 -10"/><path d="M -45 -75 L -30 -40" opacity="0.65" stroke-width="1.5"/><path d="M -15 -90 L -10 -40" opacity="0.65" stroke-width="1.5"/><path d="M 15 -90 L 10 -40" opacity="0.65" stroke-width="1.5"/><path d="M 45 -75 L 30 -40" opacity="0.65" stroke-width="1.5"/><path d="M -65 -15 Q 0 -5 65 -15" opacity="0.4" stroke-width="1.3"/></g>
</svg>
