<svg xmlns="http://www.w3.org/2000/svg" viewBox="-130 -150 260 270" font-family="Noto Sans CJK JP, sans-serif">
<path d="M -70 -50 Q -85 -90 -45 -100 Q -10 -90 -25 -50 Z" fill="#A8908070"/><path d="M -20 -55 Q -30 -100 10 -110 Q 45 -100 30 -55 Z" fill="#A8908070"/><path d="M 20 -50 Q 10 -95 50 -100 Q 80 -90 65 -45 Z" fill="#A8908070"/><path d="M -55 -50 L -55 70 L -40 70 L -40 -50 Z" fill="#A8908070"/><path d="M -10 -55 L -10 80 L 5 80 L 5 -55 Z" fill="#A8908070"/><path d="M 35 -45 L 35 75 L 50 75 L 50 -45 Z" fill="#A8908070"/><ellipse cx="-45" cy="-75" rx="18" ry="12" fill="#3D2817" opacity="0.55"/><ellipse cx="30" cy="-75" rx="14" ry="9" fill="#3D2817" opacity="0.5"/><path d="M -55 70 Q 0 80 50 75" stroke="#5D4E37" stroke-width="1.5" fill="none" opacity="0.55"/>
</svg>
