<svg xmlns="http://www.w3.org/2000/svg" viewBox="-170 -95 340 195" font-family="Noto Sans CJK JP, sans-serif">
<!-- 豆腐本体(変色、表面が崩れる) -->
    <path d="M -130 -40 L -100 -85 L 100 -85 L 130 -40 Z" fill="#E8E8D0"/>
    <path d="M -130 -40 L 130 -40 L 130 65 L -130 65 Z" fill="#D8D8B8"/>

    <!-- 表面の崩れ・気泡(NG表現) -->
    <ellipse cx="-50" cy="-5" rx="10" ry="6" fill="#7A6840" opacity="0.55"/>
    <ellipse cx="30" cy="20" rx="11" ry="7" fill="#7A6840" opacity="0.5"/>
    <ellipse cx="-25" cy="40" rx="8" ry="5" fill="#7A6840" opacity="0.5"/>
    <ellipse cx="60" cy="-20" rx="6" ry="4" fill="#7A6840" opacity="0.45"/>
    <ellipse cx="-80" cy="20" rx="7" ry="5" fill="#7A6840" opacity="0.45"/>
    <!-- 上面のシミ -->
    <ellipse cx="-30" cy="-65" rx="9" ry="3" fill="#7A6840" opacity="0.5"/>
    <ellipse cx="40" cy="-72" rx="7" ry="3" fill="#7A6840" opacity="0.45"/>

    <!-- 表面のひび -->
    <path d="M -85 5 Q -25 10 25 5" stroke="#3D2817" stroke-width="1" fill="none" opacity="0.55"/>
    <path d="M 0 35 Q 50 33 100 37" stroke="#3D2817" stroke-width="1" fill="none" opacity="0.5"/>

    <!-- 角の崩れ -->
    <path d="M 130 -40 Q 125 -30 130 -20" stroke="#3D2817" stroke-width="1.5" fill="none" opacity="0.5"/>

    <!-- 輪郭 -->
    <g stroke="#3D2817" stroke-width="3" fill="none" stroke-linecap="round" stroke-linejoin="round">
      <path d="M -130 -40 L -100 -85 L 100 -85 L 130 -40 Z"/>
      <path d="M -130 -40 L 130 -40 L 130 65 L -130 65 Z"/>
    </g>

    <!-- 影 -->
    <ellipse cx="0" cy="80" rx="155" ry="8" fill="#3D2817" opacity="0.12"/>
</svg>
