<svg xmlns="http://www.w3.org/2000/svg" viewBox="-110 -90 220 180" font-family="Noto Sans CJK JP, sans-serif">
<defs>
      <radialGradient id="wcBodyTofu" cx="35%" cy="25%"><stop offset="0%" stop-color="#FFFFFF" stop-opacity="0.95"/><stop offset="40%" stop-color="#F8F4E8" stop-opacity="0.9"/><stop offset="80%" stop-color="#E8E0CC" stop-opacity="0.75"/><stop offset="100%" stop-color="#B0A88C" stop-opacity="0.5"/></radialGradient>
      <radialGradient id="wcLeafTofu" cx="50%" cy="20%"><stop offset="0%" stop-color="#9BCB7A" stop-opacity="0.9"/><stop offset="60%" stop-color="#5D8F3D" stop-opacity="0.7"/><stop offset="100%" stop-color="#2C5F2D" stop-opacity="0.5"/></radialGradient>
      <filter id="wcRoughTofu" x="-10%" y="-10%" width="120%" height="120%">
        <feTurbulence baseFrequency="0.04" numOctaves="3" seed="157"/>
        <feDisplacementMap in="SourceGraphic" scale="4"/>
      </filter>
      <filter id="wcBlurTofu"><feGaussianBlur stdDeviation="1.5"/></filter>
    </defs>
    <g filter="url(#wcBlurTofu)" opacity="0.4"><ellipse cx="0" cy="0" rx="100" ry="65" fill="#F0E8D0"/></g>
    
    <g filter="url(#wcRoughTofu)"><path d="M -85 -55 L 85 -55 Q 92 -55 92 -48 L 92 48 Q 92 55 85 55 L -85 55 Q -92 55 -92 48 L -92 -48 Q -92 -55 -85 -55 Z" fill="url(#wcBodyTofu)"/></g>
    <g stroke="#3D2817" stroke-width="3" fill="none" stroke-linecap="round" stroke-linejoin="round" opacity="0.9"><path d="M -85 -55 L 85 -55 Q 92 -55 92 -48 L 92 48 Q 92 55 85 55 L -85 55 Q -92 55 -92 48 L -92 -48 Q -92 -55 -85 -55 Z"/><path d="M -80 -55 L 80 -55" opacity="0.5" stroke-width="1.4"/><path d="M -70 -25 Q 0 -22 70 -25" opacity="0.4" stroke-width="1.2"/><path d="M -75 5 Q 0 7 75 5" opacity="0.4" stroke-width="1.2"/><path d="M -70 30 Q 0 32 70 30" opacity="0.4" stroke-width="1.2"/></g>
</svg>
