<svg xmlns="http://www.w3.org/2000/svg" viewBox="-110 -90 220 180" font-family="Noto Sans CJK JP, sans-serif">
<defs>
      <linearGradient id="wcTopTofu" x1="0" y1="0" x2="0" y2="1">
        <stop offset="0%" stop-color="#FFFFFA" stop-opacity="0.95"/>
        <stop offset="100%" stop-color="#F0F0E0" stop-opacity="0.92"/>
      </linearGradient>
      <linearGradient id="wcFrontTofu" x1="0" y1="0" x2="0" y2="1">
        <stop offset="0%" stop-color="#F5F5E5" stop-opacity="0.95"/>
        <stop offset="100%" stop-color="#D8D8C0" stop-opacity="0.92"/>
      </linearGradient>
      <linearGradient id="wcSideTofu" x1="0" y1="0" x2="1" y2="0">
        <stop offset="0%" stop-color="#E5E5D0" stop-opacity="0.92"/>
        <stop offset="100%" stop-color="#C8C8A8" stop-opacity="0.88"/>
      </linearGradient>
      <filter id="wcRoughTofu" x="-10%" y="-10%" width="120%" height="120%">
        <feTurbulence baseFrequency="0.04" numOctaves="3" seed="27"/>
        <feDisplacementMap in="SourceGraphic" scale="2"/>
      </filter>
      <filter id="wcBlurTofu">
        <feGaussianBlur stdDeviation="1.5"/>
      </filter>
    </defs>

    <!-- Watercolor bleeds -->
    <g filter="url(#wcBlurTofu)" opacity="0.4">
      <ellipse cx="0" cy="0" rx="160" ry="70" fill="#F0F0E0"/>
    </g>

    <!-- ====================
         豆腐本体のみの立体図(斜めから見た視点)
         パックなし、豆腐そのままの3D表現
         ==================== -->

    <!-- 豆腐本体 -->
    <!-- 上面(平行四辺形) -->
    <g filter="url(#wcRoughTofu)">
      <path d="M -130 -40
               L -100 -85
               L 100 -85
               L 130 -40 Z" fill="url(#wcTopTofu)"/>
    </g>

    <!-- 前面(長方形、メインの面) -->
    <g filter="url(#wcRoughTofu)">
      <path d="M -130 -40
               L 130 -40
               L 130 65
               L -130 65 Z" fill="url(#wcFrontTofu)"/>
    </g>

    <!-- Strong ink lines -->
    <g stroke="#3D2817" stroke-width="3" fill="none" stroke-linecap="round" stroke-linejoin="round" opacity="0.9">
      <!-- 豆腐本体輪郭 -->
      <path d="M -130 -40 L -100 -85 L 100 -85 L 130 -40 Z"/>
      <path d="M -130 -40 L 130 -40 L 130 65 L -130 65 Z"/>
      <!-- 上面のハイライト線(滑らかな表面) -->
      <path d="M -90 -70 L 90 -70" opacity="0.65" stroke-width="2"/>
      <path d="M -85 -78 L 50 -78" opacity="0.5" stroke-width="1.3"/>
    </g>

    <!-- 前面のハイライト(光沢) -->
    <ellipse cx="-50" cy="10" rx="32" ry="6" fill="#FFFFFF" opacity="0.45"/>
    <ellipse cx="-45" cy="10" rx="14" ry="3" fill="#FFFFFF" opacity="0.65"/>

    <!-- 影 -->
    <ellipse cx="0" cy="80" rx="155" ry="9" fill="#3D2817" opacity="0.15"/>
</svg>
