<svg xmlns="http://www.w3.org/2000/svg" viewBox="-130 -160 260 280" font-family="Noto Sans CJK JP, sans-serif">
<path d="M -85 0 Q -92 60 0 90 Q 92 60 85 0 Q 80 -85 0 -100 Q -80 -85 -85 0 Z" fill="#C66B5C"/><path d="M -28 -100 Q -32 -120 -12 -125 Q 0 -110 -10 -97 Z" fill="#8B7740"/><path d="M 0 -100 Q -3 -125 16 -127 Q 20 -115 12 -95 Z" fill="#8B7740"/><path d="M 18 -100 Q 22 -120 34 -118 Q 32 -108 28 -95 Z" fill="#8B7740"/><ellipse cx="-30" cy="20" rx="18" ry="22" fill="#7A4030" opacity="0.45"/><ellipse cx="25" cy="-20" rx="12" ry="15" fill="#7A4030" opacity="0.4"/><path d="M -50 40 Q -20 50 10 35" stroke="#5D4E37" stroke-width="1.5" fill="none" opacity="0.6"/><path d="M 20 50 Q 50 55 65 40" stroke="#5D4E37" stroke-width="1.5" fill="none" opacity="0.6"/>
</svg>
