<svg xmlns="http://www.w3.org/2000/svg" viewBox="-130 -110 260 220" font-family="Noto Sans CJK JP, sans-serif">
<defs>
      <radialGradient id="wcBodyVenison" cx="35%" cy="25%"><stop offset="0%" stop-color="#E0A090" stop-opacity="0.95"/><stop offset="40%" stop-color="#C04030" stop-opacity="0.9"/><stop offset="80%" stop-color="#7A1810" stop-opacity="0.85"/><stop offset="100%" stop-color="#3A0808" stop-opacity="0.65"/></radialGradient>
      <radialGradient id="wcLeafVenison" cx="50%" cy="20%"><stop offset="0%" stop-color="#9BCB7A" stop-opacity="0.9"/><stop offset="60%" stop-color="#5D8F3D" stop-opacity="0.7"/><stop offset="100%" stop-color="#2C5F2D" stop-opacity="0.5"/></radialGradient>
      <filter id="wcRoughVenison" x="-10%" y="-10%" width="120%" height="120%">
        <feTurbulence baseFrequency="0.04" numOctaves="3" seed="223"/>
        <feDisplacementMap in="SourceGraphic" scale="4"/>
      </filter>
      <filter id="wcBlurVenison"><feGaussianBlur stdDeviation="1.5"/></filter>
    </defs>
    <g filter="url(#wcBlurVenison)" opacity="0.4"><ellipse cx="0" cy="0" rx="110" ry="70" fill="#C04030"/></g>
    
    <g filter="url(#wcRoughVenison)"><path d="M -90 -45 Q -100 0 -90 50 Q 0 75 90 50 Q 100 0 90 -45 Q 0 -65 -90 -45 Z" fill="url(#wcBodyVenison)"/></g>
    <g stroke="#3D2817" stroke-width="3" fill="none" stroke-linecap="round" stroke-linejoin="round" opacity="0.9"><path d="M -90 -45 Q -100 0 -90 50 Q 0 75 90 50 Q 100 0 90 -45 Q 0 -65 -90 -45 Z"/><path d="M -78 -30 Q 0 -25 78 -30" opacity="0.6" stroke-width="1.3"/><path d="M -82 -10 Q 0 -5 82 -10" opacity="0.6" stroke-width="1.3"/><path d="M -80 10 Q 0 15 80 10" opacity="0.6" stroke-width="1.3"/><path d="M -75 30 Q 0 35 75 30" opacity="0.6" stroke-width="1.3"/><path d="M -70 50 Q 0 55 70 50" opacity="0.6" stroke-width="1.3"/><path d="M -50 -20 L -45 30" opacity="0.4" stroke-width="1"/><path d="M 0 -25 L 5 35" opacity="0.4" stroke-width="1"/><path d="M 50 -20 L 45 30" opacity="0.4" stroke-width="1"/></g>
</svg>
