<svg xmlns="http://www.w3.org/2000/svg" viewBox="-130 -110 260 220" font-family="Noto Sans CJK JP, sans-serif">
<path d="M -90 -45 Q -100 0 -90 50 Q 0 75 90 50 Q 100 0 90 -45 Q 0 -65 -90 -45 Z" fill="#5A3030"/><ellipse cx="-25" cy="0" rx="30" ry="22" fill="#3D2010" opacity="0.55"/><ellipse cx="30" cy="20" rx="18" ry="14" fill="#3D2010" opacity="0.5"/><ellipse cx="0" cy="70" rx="60" ry="8" fill="#601810" opacity="0.65"/>
  
    <!-- animal-icon: venison (branching antlers, slim head, white spots) -->
    <g transform="translate(88, 72)" data-icon="venison">
      <circle cx="0" cy="0" r="38" fill="#FFFFFF" fill-opacity="0.96" stroke="#3D2817" stroke-width="2"/>
      <g fill="none" stroke="#3D2817" stroke-width="2.2" stroke-linecap="round">
        <path d="M -10 -14 L -17 -31"/>
        <path d="M -17 -31 L -24 -27"/>
        <path d="M -17 -31 L -14 -36"/>
        <path d="M -17 -31 L -10 -28"/>
        <path d="M 10 -14 L 17 -31"/>
        <path d="M 17 -31 L 24 -27"/>
        <path d="M 17 -31 L 14 -36"/>
        <path d="M 17 -31 L 10 -28"/>
      </g>
      <ellipse cx="-17" cy="-6" rx="4" ry="7" fill="#A87850" stroke="#3D2817" stroke-width="1.7" transform="rotate(-30 -17 -6)"/>
      <path d="M -14 -3 Q -14 -11 -6 -14 Q 6 -14 14 -8 Q 19 6 17 14 Q 8 20 -3 20 Q -14 17 -17 8 Q -17 0 -14 -3 Z" fill="#A87850" stroke="#3D2817" stroke-width="2"/>
      <ellipse cx="11" cy="14" rx="8" ry="5" fill="#7A5230" stroke="#3D2817" stroke-width="1.6"/>
      <circle cx="15" cy="13" r="2" fill="#3D2817"/>
      <circle cx="-3" cy="-3" r="2" fill="#3D2817"/>
      <circle cx="-7" cy="9" r="2.2" fill="#FFFFFF" opacity="0.9"/>
      <circle cx="-1" cy="13" r="1.4" fill="#FFFFFF" opacity="0.75"/>
    </g>
</svg>
