<svg xmlns="http://www.w3.org/2000/svg" viewBox="-100 -150 200 280" font-family="Noto Sans CJK JP, sans-serif">
<defs>
      <linearGradient id="wcFoilNG" x1="0%" y1="0%" x2="0%" y2="100%">
        <stop offset="0%" stop-color="#EDE5D0" stop-opacity="0.95"/>
        <stop offset="50%" stop-color="#D5CDB0" stop-opacity="0.95"/>
        <stop offset="100%" stop-color="#A89878" stop-opacity="0.92"/>
      </linearGradient>
    </defs>
    <ellipse cx="0" cy="118" rx="62" ry="8" fill="#3D2817" opacity="0.18"/>
    <!-- Cup body with slight outward bulge in middle (internal pressure) -->
    <path d="M -85 -90 Q -95 0 -85 80 Q -80 105 -52 115 L 52 115 Q 80 105 85 80 Q 95 0 85 -90 Z" fill="#D8C8A0"/>
    <!-- Top rim -->
    <ellipse cx="0" cy="-90" rx="88" ry="23" fill="#C8B088" stroke="#3D2817" stroke-width="3"/>
    <!-- Yogurt surface (yellowed/discolored) -->
    <ellipse cx="0" cy="-92" rx="78" ry="18" fill="#F0E8C0" stroke="#A88830" stroke-width="1.3"/>
    <!-- Yellow whey separation pool (large, NG sign) -->
    <ellipse cx="-15" cy="-92" rx="42" ry="9" fill="#D8B040" opacity="0.7"/>
    <!-- Greenish-yellow discoloration patches -->
    <ellipse cx="-30" cy="-94" rx="9" ry="3.5" fill="#B8B048" opacity="0.6"/>
    <ellipse cx="20" cy="-95" rx="8" ry="3" fill="#A8B848" opacity="0.55"/>
    <ellipse cx="40" cy="-90" rx="6" ry="2.5" fill="#9AA840" opacity="0.5"/>
    <!-- Mold spots -->
    <ellipse cx="-50" cy="-93" rx="4" ry="2" fill="#5A6A30" opacity="0.7"/>
    <ellipse cx="48" cy="-94" rx="3" ry="1.5" fill="#5A6A30" opacity="0.7"/>

    <!-- DOMED/BULGING FOIL LID (gas pressure pushed it up, edge buckled) -->
    <g>
      <!-- Same overall silhouette as OK but with a clear central bulge
           and a wavy/distorted top edge — reads as "internal pressure". -->
      <path d="M 30 -100
               C 28 -128, 45 -148, 65 -148
               Q 75 -150 80 -147
               C 100 -148, 100 -120, 96 -108
               Q 92 -94 82 -90
               Q 60 -88 45 -92
               Q 32 -94 30 -100 Z"
            fill="url(#wcFoilNG)" stroke="#3D2817" stroke-width="3" stroke-linejoin="round" opacity="0.95"/>
      <!-- Wavy edge — buckled from pressure -->
      <path d="M 32 -118 Q 42 -130 52 -125 Q 60 -135 70 -130 Q 80 -135 90 -125"
            stroke="#3D2817" stroke-width="1.8" fill="none" opacity="0.75" stroke-linecap="round"/>
      <!-- Hinge crease -->
      <path d="M 30 -100 Q 55 -92 82 -90" stroke="#3D2817" stroke-width="1.6" fill="none" opacity="0.7"/>
      <!-- Stress wrinkles radiating from center bulge -->
      <path d="M 50 -110 Q 65 -120 85 -112" stroke="#A89878" stroke-width="0.9" fill="none" opacity="0.6"/>
      <path d="M 55 -125 Q 70 -132 85 -128" stroke="#A89878" stroke-width="0.9" fill="none" opacity="0.5"/>
      <!-- Dome highlight (round, suggests upward bulge) -->
      <ellipse cx="62" cy="-128" rx="12" ry="6" fill="#FFFFFF" opacity="0.5"/>
    </g>

    <!-- Cup outline (with bulge) -->
    <path d="M -85 -90 Q -95 0 -85 80 Q -80 105 -52 115 L 52 115 Q 80 105 85 80 Q 95 0 85 -90"
          fill="none" stroke="#3D2817" stroke-width="3" stroke-linejoin="round" opacity="0.85"/>
</svg>
