<svg xmlns="http://www.w3.org/2000/svg" viewBox="-90 -130 180 260" font-family="Noto Sans CJK JP, sans-serif">
<defs>
      <radialGradient id="wcBodyYogurt" cx="35%" cy="25%"><stop offset="0%" stop-color="#FFFFFF" stop-opacity="0.95"/><stop offset="40%" stop-color="#FAF5E8" stop-opacity="0.9"/><stop offset="80%" stop-color="#E8DCC0" stop-opacity="0.7"/><stop offset="100%" stop-color="#B89870" stop-opacity="0.4"/></radialGradient>
      <radialGradient id="wcLeafYogurt" cx="50%" cy="20%"><stop offset="0%" stop-color="#9BCB7A" stop-opacity="0.9"/><stop offset="60%" stop-color="#5D8F3D" stop-opacity="0.7"/><stop offset="100%" stop-color="#2C5F2D" stop-opacity="0.5"/></radialGradient>
      <filter id="wcRoughYogurt" x="-10%" y="-10%" width="120%" height="120%">
        <feTurbulence baseFrequency="0.04" numOctaves="3" seed="211"/>
        <feDisplacementMap in="SourceGraphic" scale="4"/>
      </filter>
      <filter id="wcBlurYogurt"><feGaussianBlur stdDeviation="1.5"/></filter>
    </defs>
    <g filter="url(#wcBlurYogurt)" opacity="0.4"><ellipse cx="0" cy="0" rx="80" ry="110" fill="#F8F0E0"/></g>
    
    <g filter="url(#wcRoughYogurt)"><path d="M -75 -100 Q -78 -110 -65 -110 L 65 -110 Q 78 -110 75 -100 L 78 100 Q 80 115 60 115 L -60 115 Q -80 115 -78 100 Z" fill="url(#wcBodyYogurt)"/></g>
    <g stroke="#3D2817" stroke-width="3" fill="none" stroke-linecap="round" stroke-linejoin="round" opacity="0.9"><path d="M -75 -100 Q -78 -110 -65 -110 L 65 -110 Q 78 -110 75 -100 L 78 100 Q 80 115 60 115 L -60 115 Q -80 115 -78 100 Z"/><path d="M -75 -90 L 75 -90" opacity="0.7" stroke-width="1.6"/><path d="M -65 -75 Q 0 -78 65 -75" opacity="0.5" stroke-width="1.4"/><path d="M -60 -50 Q 0 -53 60 -50" opacity="0.4" stroke-width="1.2"/><path d="M -55 -10 L 55 -10 L 55 50 L -55 50 Z" opacity="0.45" stroke-width="1.4"/></g>
</svg>
